<?xml version="1.0" encoding="UTF-8"?><svg id="Layer_1" xmlns="http://www.w3.org/2000/svg" viewBox="0 0 184.25 184.25"><defs><style>.cls-1{fill:none;}.cls-2{fill:white}</style></defs><circle class="cls-1" cx="91.5" cy="92.42" r="83.38"/><path class="cls-2" d="m38.47,138.01c-3.35,2.5-6.58,1.77-8.47-.77-.8-1.07-1.42-2.17-1.83-3.45l.17-.24c.98-.3,2.55-1.07,3.51-1.7l.58.78-2.08,2.77c.17.39.43.8.7,1.17,1.42,1.91,2.67,1.53,5.68-.73l7.16-5.35-4.61-4.51.06-.19,1.88-1c1.23,1.76,2.65,3.7,3.42,4.74.82,1.09,2.17,2.82,2.84,3.64l-.56.83c-.6-.38-1.25-.71-1.85-.93l-6.61,4.93Z"/><path class="cls-2" d="m55.73,150.71c-3.64,4.46-7.05,4.99-9.87,2.83-3.5-2.68-3.71-5.72-.63-9.74l4.44-5.8c-.16-.55-.55-1.26-.84-1.72l.8-.58c.67.57,1.33,1.11,2.18,1.75.77.59,1.83,1.37,2.55,1.87l-.32.95c-.63-.2-1.48-.46-2.18-.57l-4.21,5.5c-2.63,3.43-2.76,5.74-.54,7.44,1.94,1.49,4.34,1.05,6.97-2.38l.38-.49c.84-1.1,2.91-4.03,3.65-5.12-.24-.68-.7-1.56-1.03-2.07l.8-.58c.67.57,1.22,1.02,1.96,1.59.79.6,1.5,1.12,2.17,1.57l-.32.95c-.57-.17-1.28-.34-1.88-.36l-4.05,4.95Z"/><path class="cls-2" d="m65.16,163.87l-5.76-2.15.07-.98c.45,0,1.08-.04,1.87-.19l4.42-11.81c-.5-.63-.96-1.07-1.29-1.37l.59-.79,6.25,2.34c3.53,1.32,4.91,2.89,3.92,5.53-.65,1.75-2.32,2.71-4.72,2.48l-.04.11c2.51,1.06,3.4,2.78,2.71,4.62-1.06,2.83-4.09,3.7-8.03,2.23Zm3.38-14.66l-4.79,12.81,2.18.82c2.57.96,3.8.19,4.5-1.7.71-1.9.23-3.32-1.98-4.14l-1.97-.74.39-1.04,2.38.89c1.36.06,2.64-.47,3.27-2.16.69-1.84.35-3.12-1.85-3.95l-2.14-.8Z"/><path class="cls-2" d="m84.39,168.34c-.89-.16-1.73-.3-2.76-.43-1.05-.14-1.9-.23-2.78-.3l-.15-.98c.53-.14,1.28-.37,1.78-.6l1.65-12.5c-.42-.36-1.08-.77-1.56-1.05l.4-.9c.86.16,1.71.29,2.76.43,1.03.14,1.88.22,2.78.3l.15.97c-.53.14-1.28.37-1.78.6l-1.65,12.5c.42.36,1.09.77,1.56,1.04l-.4.9Z"/><path class="cls-2" d="m91.93,167.89c.51-.25,1.13-.6,1.61-.99l-1.04-12.53c-.49-.28-1.23-.55-1.75-.71l.2-.97c.88-.03,1.73-.07,2.79-.16,1.04-.09,1.89-.18,2.78-.3l.35.92c-.49.25-1.11.6-1.61.97l1.07,12.99,5.09-.42,1.15-3.13.92-.08.07.83c.09,1.13.23,2.27.43,3.28l-.1.24c-2.54.12-4.61.27-6.06.38-1.61.13-3.61.32-5.56.6l-.35-.92Z"/><path class="cls-2" d="m109.9,165.63c.36-.29.83-.7,1.32-1.36l-4.08-11.87c-.76-.23-1.39-.28-1.88-.28l-.04-.99c1.89-.53,3.8-1.16,5.33-1.69,1.36-.46,3.4-1.19,5.7-2.11l.23.17c.22,1.07.47,2.01.83,3.04.12.35.22.63.35.95l-.9.31-2.26-2.37-4.87,1.68,1.99,5.79,3.15-1.08c.31-1.08.46-1.72.53-2.43l.92-.09c.25.94.47,1.72.72,2.46.26.76.56,1.49.94,2.39l-.78.51c-.57-.66-1.16-1.17-1.95-1.75l-3.17,1.09,1.98,5.75,4.87-1.68.34-3.27.9-.31c.11.4.22.71.36,1.12.33.96.67,1.8,1.14,2.74l-.06.26c-2.43.74-4.43,1.4-5.81,1.87-1.53.53-3.42,1.2-5.24,1.95l-.57-.81Z"/><path class="cls-2" d="m128.18,158.3c.27-.38.62-.9.91-1.66l-7.06-10.37c-.79-.02-1.42.1-1.89.22l-.3-.94c1.69-1.01,3.36-2.12,4.7-3.03,1.18-.8,2.96-2.05,4.94-3.53l.26.1c.5.98.99,1.82,1.6,2.71.21.3.38.55.59.83l-.78.53-2.8-1.69-4.26,2.9,3.45,5.06,2.75-1.87c.01-1.13-.01-1.78-.13-2.48l.86-.33c.49.84.91,1.54,1.35,2.18.46.67.94,1.29,1.54,2.05l-.61.7c-.72-.49-1.42-.82-2.34-1.18l-2.77,1.89,3.42,5.02,4.26-2.9-.53-3.24.78-.53c.21.36.4.62.64.99.57.84,1.12,1.56,1.82,2.34v.27c-2.14,1.35-3.89,2.52-5.09,3.34-1.34.91-2.99,2.06-4.54,3.26l-.76-.63Z"/><path class="cls-2" d="m151.45,138.95c-.59.65-1.17,1.31-1.79,2.06-.67.82-1.23,1.53-1.75,2.24l-.91-.39c.16-.52.34-1.21.41-1.81l-10.03-8.24-2.36,2.87,1.74,3.38-.6.73c-.32-.3-.65-.56-.98-.84-.88-.72-1.8-1.42-2.76-2.03v-.28c1.58-1.8,3.99-4.61,4.88-5.7.91-1.11,3.2-4,4.66-5.92l.28-.04c.79.82,1.65,1.59,2.52,2.31.34.28.66.54,1.01.8l-.6.73-3.63-1.07-2.39,2.91,10.03,8.24c.62-.24,1.2-.51,1.71-.77l.56.82Z"/><path class="cls-2" d="m38.42,60.82c.15-.55.3-1.25.33-1.86l-10.02-7.57c-.54.17-1.23.55-1.7.83l-.59-.79c.57-.67,1.1-1.34,1.74-2.19.63-.83,1.12-1.52,1.63-2.27l.92.35c-.14.53-.29,1.23-.35,1.85l10.39,7.85,3.08-4.07-1.57-2.95.56-.74.66.5c.9.68,1.85,1.34,2.73,1.86l.11.23c-1.61,1.97-2.88,3.62-3.75,4.78-.98,1.29-2.17,2.91-3.26,4.54l-.92-.35Z"/><path class="cls-2" d="m61.25,39.89c-.75.5-1.69,1.18-2.48,1.78-.83.62-1.8,1.38-2.47,1.94l-.81-.58c.36-.53.81-1.27,1.07-1.96l-2.84-1.97-5.19,3.9,1.08,3.21c.8-.08,1.58-.29,2.35-.52l.31.95c-.71.48-1.39.96-2.19,1.55-.79.6-1.26.98-1.92,1.53l-.79-.59c.26-.43.6-.94.81-1.5l-3.75-13.04c-.65.06-1.39.26-2.01.41l-.33-.91c.67-.45,1.63-1.14,2.48-1.78.7-.53,1.32-1.02,1.71-1.34l12.99,8.37c.62-.06,1.16-.23,1.63-.36l.35.92Zm-15.67-6.06l2.51,7.88,4.53-3.4-6.87-4.61-.17.12Z"/><path class="cls-2" d="m77.44,33.73l-1.94,1.04-13.18-10.01-.15.05,4.19,10.55c.67.3,1.66.4,2.45.44l.03.99c-.84.25-1.88.58-2.82.91-.57.2-1.28.47-2.09.8l-.57-.8c.45-.4.99-.88,1.32-1.34l-4.15-11.91c-.56-.15-1.25-.22-1.87-.23l-.05-.99c.58-.15,1.44-.43,2.21-.7.83-.29,1.21-.45,1.98-.76l12.08,9.25.13-.05-3.97-9.9c-.75-.2-1.51-.33-2.31-.37l-.03-.99c.84-.25,1.57-.47,2.45-.78.83-.29,1.5-.55,2.31-.88l.57.8c-.41.36-.88.85-1.32,1.34l4.72,13.53Z"/><path class="cls-2" d="m89.04,32.58l-6.7.21-.31-.94c.53-.2,1.21-.54,1.66-.88l-.39-12.6c-.47-.31-1.17-.59-1.71-.78l.25-.96,7.02-.22c4.8-.15,7.82,1.77,7.99,7.26.17,5.56-2.87,8.75-7.81,8.91Zm-2.98-14.81l.42,13.62,2.89-.09c3.37-.1,4.85-2.28,4.73-6.11-.15-4.8-1.85-7.61-5.89-7.49l-2.15.07Z"/><path class="cls-2" d="m105.14,34.39c-1.57-.39-3.51-1.03-4.54-1.74l-.02-.29c.54-.94,1.28-2.4,1.64-3.55l.92.23.37,3.5c.57.28,1.34.54,1.88.68,2.24.55,3.5,0,3.89-1.59.37-1.48-.07-2.49-2.66-4.35-2.99-2.17-3.6-3.82-3.09-5.88.63-2.53,3.08-3.88,6.4-3.06,1.57.39,3.45,1.07,4.57,1.75l.02.29c-.54.92-1.28,2.37-1.63,3.5l-.92-.23-.37-3.5c-.52-.22-1.22-.44-1.72-.57-1.88-.46-3.2.04-3.59,1.64-.37,1.5.27,2.66,2.51,4.29,3.09,2.24,3.78,3.88,3.27,5.95-.67,2.69-3.26,3.84-6.91,2.93Z"/><path class="cls-2" d="m114.43,35.73c.57.06,1.28.08,1.89,0l5.68-11.21c-.27-.5-.76-1.11-1.12-1.52l.68-.72c.76.44,1.51.85,2.46,1.33.93.47,1.7.84,2.52,1.2l-.18.97c-.55-.04-1.26-.07-1.88-.02l-5.89,11.62,4.55,2.31,2.62-2.06.82.42-.38.74c-.51,1.01-.99,2.06-1.35,3.02l-.21.15c-2.22-1.23-4.07-2.19-5.37-2.85-1.44-.73-3.25-1.62-5.05-2.4l.18-.97Z"/><path class="cls-2" d="m131.96,37.12c3.23-3.59,7.74-4.39,11.28-1.2,3.54,3.18,3.99,7.07.17,11.31-3.23,3.59-7.74,4.38-11.29,1.19-3.52-3.17-3.97-7.05-.16-11.3Zm8.41,9.27c3.38-3.76,4.13-7.6,1.66-9.82-2.11-1.9-4.63-1.28-7.01,1.37-3.38,3.76-4.13,7.6-1.66,9.82,2.11,1.9,4.63,1.28,7.01-1.37Z"/><path class="cls-2" d="m159.89,58.95c-.42-.28-.9-.49-1.47-.7l-15.14,3.04-1-1.55,9.11-12.59c0-.55-.04-1.18-.17-1.62l.97-.24c.44.76,1.04,1.75,1.58,2.58.56.87,1.25,1.89,1.78,2.62l-.65.75c-.58-.48-1.31-1.05-1.88-1.34l-7.29,9.41.13.19,11.49-2.85c-.06-.73-.25-1.66-.43-2.28l.97-.24c.36.65.87,1.47,1.32,2.17.55.85.82,1.23,1.32,1.92l-.65.75Z"/><path class="cls-2" d="m19.6,97.04v-9.04l-.36-.07h-.01s-3.72,1.38-3.72,1.38h-.03v.76l2.29-.43v7.43c-.83.3-1.73.48-2.34.58h-.06s.19.67.19.67v.04s.05,0,.05,0c.87-.06,2.23-.06,3.13-.06.97,0,2.29,0,3.17.06h.04s.24-.7.24-.7h-.06c-1.01-.12-1.86-.32-2.52-.61Z"/><path class="cls-2" d="m30.81,95.21l-.97,1.5h-3.91v-.04c.28-.23.58-.46.9-.71.54-.42,1.15-.9,1.75-1.43,1.58-1.4,2.64-2.65,2.64-4.15s-1.22-2.44-3.11-2.44c-1.09,0-2.34.32-3.19.8h-.02s-.07.23-.07.23v.02c.18.5.34,1.41.41,2.06v.04h.68l.74-2.18c.18-.06.4-.12.7-.12,1.13,0,1.86.7,1.86,1.79,0,1.37-.99,2.58-1.96,3.59-1.01,1.07-2.06,1.98-2.76,2.55l-.03.02.49,1.62h.04c.6-.06,1.63-.09,2.98-.09,1.67,0,2.27.03,2.86.1h.02s.21-.12.21-.12v-.03c.03-.6.21-1.86.41-2.81v-.05s-.65-.14-.65-.14h-.03Z"/><path class="cls-2" d="m40.72,87.39l-.52.75c-.91.04-1.64.06-2.49.06-.67,0-1.74,0-3.36-.09h-.02s-.18.16-.18.16v.03c.08.81.1,2.28.1,3.07v.05h.68l.65-1.64h3.61c-1.69,3.07-2.88,5.7-3.86,8.5l-.02.05.85.17h.04s.01-.03.01-.03c1.24-3.06,2.91-5.99,5.03-9.44l.21-1.28v-.04s-.7-.31-.7-.31l-.04-.02Z"/><path class="cls-2" d="m49,93.25l-.38.74h-.48v-5.89h-2.25l-.02.02c-1.27,1.79-2.58,3.88-3.77,6.04v.02s.5,1.24.5,1.24h3.93v1.82c-.38.27-.64.39-.87.5l-.04.02.2.59h.04c.53-.03.85-.05,1.46-.05.57,0,.95.01,1.52.04h.04s.24-.59.24-.59l-.05-.02c-.28-.11-.55-.25-.92-.57v-1.75h1.27l.13-.13v-.02c.02-.68.06-1.4.13-1.97v-.06s-.67,0-.67,0Zm-2.47-4.16v4.9h-3.14c.8-1.45,2.16-3.48,3.13-4.9h.01Z"/><path class="cls-2" d="m137.9,95.21l-.97,1.5h-3.91v-.04c.28-.23.58-.47.9-.72.54-.42,1.15-.9,1.75-1.43,1.58-1.4,2.64-2.65,2.64-4.15s-1.22-2.44-3.11-2.44c-1.09,0-2.34.32-3.19.8h-.02s-.07.23-.07.23v.02c.18.5.34,1.41.41,2.06v.04h.68l.74-2.18c.18-.06.4-.12.7-.12,1.13,0,1.86.7,1.86,1.79,0,1.37-.99,2.58-1.96,3.59-1.01,1.07-2.06,1.98-2.76,2.55l-.03.02.49,1.62h.04c.6-.06,1.63-.09,2.98-.09,1.67,0,2.27.03,2.86.1h.02s.21-.12.21-.12v-.03c.03-.6.21-1.86.41-2.81v-.05s-.65-.14-.65-.14h-.03Z"/><path class="cls-2" d="m145.01,87.93c-2.5,0-3.99,1.99-3.99,5.33,0,3.59,1.29,5.27,4.05,5.27,2.5,0,3.99-1.99,3.99-5.33,0-3.59-1.29-5.27-4.05-5.27Zm.25,9.73c-1.76,0-2.36-1.34-2.36-5.33,0-2.6.5-3.52,1.92-3.52,1.81,0,2.36,1.24,2.36,5.31,0,2.57-.52,3.53-1.92,3.53Z"/><path class="cls-2" d="m157.36,95.21l-.97,1.5h-3.91v-.04c.28-.23.58-.47.9-.72.54-.42,1.15-.9,1.75-1.43,1.58-1.4,2.64-2.65,2.64-4.15s-1.22-2.44-3.11-2.44c-1.09,0-2.34.32-3.19.8h-.02s-.07.23-.07.23v.02c.18.5.34,1.41.41,2.06v.04h.68l.74-2.18c.18-.06.4-.12.7-.12,1.13,0,1.86.7,1.86,1.79,0,1.37-.99,2.58-1.96,3.59-1.01,1.07-2.06,1.98-2.76,2.55l-.03.02.49,1.62h.04c.6-.06,1.63-.09,2.98-.09,1.67,0,2.27.03,2.86.1h.02s.21-.12.21-.12v-.03c.03-.6.21-1.86.41-2.81v-.05s-.65-.14-.65-.14h-.03Z"/><path class="cls-2" d="m167.25,93.25l-.38.74h-.48v-5.89h-2.25l-.02.02c-1.27,1.79-2.58,3.88-3.77,6.04v.02s.5,1.24.5,1.24h3.93v1.82c-.38.27-.64.39-.87.5l-.04.02.2.59h.04c.53-.03.85-.05,1.46-.05.57,0,.95.01,1.52.04h.04s.24-.59.24-.59l-.05-.02c-.28-.11-.55-.25-.92-.57v-1.75h1.27l.13-.13v-.02c.02-.68.06-1.4.13-1.97v-.06s-.67,0-.67,0Zm-2.47-4.16v4.9h-3.14c.8-1.45,2.16-3.48,3.13-4.9h.01Z"/><path class="cls-2" d="m103.12,51.05c-5.86,3.58-6.28,10.84-6.28,11.17h-2.4c0-.28.05-4.62,2.51-8.69,1.05-1.73,2.54-3.42,4.65-4.72.61-.37,1.26-.72,1.97-1.03l.64-.27s.29-.11.43-.16c.14-.05.49-.16.49-.16l.21,1.27.66,4.1-1.45.69c-.38-.65-.9-1.53-1.43-2.18Z"/><path class="cls-2" d="m105.52,116.45c.02-.24.1-2.37-1.5-4.07-1.19-1.27-2.93-1.91-5.18-1.91-4.36,0-3.86-1.89-3.89-1.97l-3.46.66-3.46-.66c-.03.08.47,1.97-3.89,1.97-2.25,0-4,.64-5.18,1.91-1.6,1.7-1.51,3.83-1.5,4.07h2.43s-.04-1.37.79-2.24c.66-.68,2-1.03,3.46-1.03,4.82,0,6.68-2.03,7.34-3.18.67,1.15,2.52,3.18,7.34,3.18,1.46,0,2.8.35,3.46,1.03.83.86.79,2.24.79,2.24h2.43Z"/><rect class="cls-2" x="90.16" y="41.09" width="2.71" height="39.23"/><path class="cls-2" d="m86.8,120.17l1.19,2.35h7.03l1.19-2.35c-1.5.08-3.07.12-4.71.12-1.64,0-3.2-.04-4.7-.12Z"/><path class="cls-2" d="m79.84,95.05c.84.4,1.79.85,2.87.93,1.55.11,2.26-.21,3.53-.86l-1.23-2.16c-.96.49-1.37.63-2.09.57-.58-.05-1.23-.35-1.91-.68-1.76-.84-4.7-2.23-7.02,2.49l2.43,1.19c1.14-2.33,1.63-2.35,3.43-1.49Z"/><path class="cls-2" d="m83.46,126.27c1.56,3.18,1.72,6.66,1.56,8.71l2.42,1.75c.29-1.78.81-6.85-1.54-11.65l-2.43,1.19Z"/><path class="cls-2" d="m76.98,122.98c2.68,4.62,2.22,7,1.97,7.62l2.12,1.53c.51-.82,1.98-4.09-1.75-10.5l-2.34,1.36Z"/><rect class="cls-2" x="90.14" y="126.25" width="2.71" height="14.26"/><path class="cls-2" d="m79.9,51.08c5.86,3.58,6.28,10.84,6.28,11.17h2.4c0-.28-.05-4.62-2.51-8.69-1.05-1.73-2.54-3.42-4.65-4.72-.61-.37-1.26-.72-1.97-1.03l-.64-.27s-.29-.11-.43-.16c-.14-.05-.49-.16-.49-.16l-.21,1.27-.66,4.1,1.45.69c.38-.65.9-1.53,1.43-2.18Z"/><path class="cls-2" d="m87.7,80.33h0s0,0,0,0v-5.61h-1.57s-.31,1.7-.95,2.98c-6.27.32-11.37,2.13-13.54,2.85l-1.56-5.97c1.87.95,4.05,1.38,6.17,1.04,2.67-.42,5.01-1.85,6.6-4.04,1.59-2.18,2.23-4.85,1.81-7.52-.42-2.65-1.89-4.83-4.16-6.13-2.07-1.19-4.7-1.62-7.4-1.19l.54,1.85h0l.23.78c1.96-.24,3.83.07,5.27.9,1.71.99,2.72,2.63,2.9,4.73.12,1.41-.16,2.85-.84,4.11-1.13,2.09-3.09,3.47-5.38,3.84-2.73.42-5.54-.74-7.16-3l-1.65-5.83c.84-.68,2.82-1.18,2.82-1.18l-.25-1.52h-6.32l6.71,22.15s6.75-3.26,17.73-3.25Z"/><path class="cls-2" d="m66.15,112.86c.01.7.41,1.47,1.38,2,1.28.69,3.07.18,4.19-1.19,1.87-2.26,1.22-5.74-1.65-9.2,0,0-2.74-2.89-2.44-6.61.13-1.69.44-3.69,1.28-6.01l2.36,1.16c-.7,1.91-.9,3.5-.93,4.81-.08,2.96,1.59,4.68,1.73,4.83,4.53,5.46,3.87,10.17,1.74,12.75-1.32,1.61-3.2,2.48-5.02,2.48-.89,0-1.76-.21-2.56-.64-2.28-1.25-3.33-3.68-2.53-5.92.55-1.56,2.09-2.94,4.4-3.01l1,2.16s-2.67-.11-2.92,2.05c0,0-.02.15-.02.34Z"/><path class="cls-2" d="m116.86,112.86c-.01.7-.41,1.47-1.38,2-1.28.69-3.07.18-4.19-1.19-1.87-2.26-1.22-5.74,1.65-9.2,0,0,2.74-2.89,2.44-6.61-.13-1.69-.44-3.69-1.28-6.01l-2.36,1.16c.7,1.91.9,3.5.93,4.81.08,2.96-1.59,4.68-1.73,4.83-4.53,5.46-3.87,10.17-1.74,12.75,1.32,1.61,3.2,2.48,5.02,2.48.89,0,1.76-.21,2.56-.64,2.28-1.25,3.33-3.68,2.53-5.92-.55-1.56-2.09-2.94-4.4-3.01l-1,2.16s2.67-.11,2.92,2.05c0,0,.02.15.02.34Z"/><path class="cls-2" d="m103.18,95.05c-.84.4-1.79.85-2.87.93-1.55.11-2.26-.21-3.53-.86l1.23-2.16c.96.49,1.37.63,2.09.57.58-.05,1.23-.35,1.91-.68,1.76-.84,4.7-2.23,7.02,2.49l-2.43,1.19c-1.14-2.33-1.63-2.35-3.43-1.49Z"/><path class="cls-2" d="m99.56,126.27c-1.56,3.18-1.72,6.66-1.56,8.71l-2.42,1.75c-.29-1.78-.81-6.85,1.54-11.65l2.43,1.19Z"/><path class="cls-2" d="m106.04,122.98c-2.68,4.62-2.22,7-1.97,7.62l-2.12,1.53c-.51-.82-1.98-4.09,1.75-10.5l2.34,1.36Z"/><path class="cls-2" d="m95.31,80.33h0s0,0,0,0v-2.7s0-2.9,0-2.9h1.57s.31,1.7.95,2.98c6.27.32,11.37,2.13,13.54,2.85l1.56-5.97c-1.87.95-4.05,1.38-6.17,1.04-2.67-.42-5.01-1.85-6.6-4.04s-2.23-4.85-1.81-7.52c.42-2.65,1.89-4.83,4.16-6.13,2.07-1.19,4.7-1.62,7.4-1.19l-.54,1.85h0l-.23.78c-1.96-.24-3.83.07-5.27.9-1.71.99-2.72,2.63-2.9,4.73-.12,1.41.16,2.85.84,4.11,1.13,2.09,3.09,3.47,5.38,3.84,2.73.42,5.54-.74,7.16-3l1.65-5.83c-.84-.68-2.82-1.18-2.82-1.18l.25-1.52h6.32s-6.71,22.15-6.71,22.15c0,0-6.75-3.26-17.73-3.25Z"/><polygon class="cls-2" points="91.52 115.76 88.96 114.3 83.39 117.66 84.95 119.03 88.85 117.18 91.52 118.2 94.19 117.18 98.08 119.03 99.62 117.64 94.08 114.3 91.52 115.76"/><path class="cls-2" d="m90.2,93.07c-.07-1.17-.16-2.57-.86-3.83-1.18-2.12-3.89-5.4-6.53-4.16-6.22,2.91-8.65.6-8.75.51l-1.97,1.86c.15.16,3.74,3.89,11.86.09.39-.18,2.27.98,3.02,3.02.28.77.46,1.69.52,2.64l.23,6.82h0l.13,3.98-2.39,1.12.51,1.71,4.66-.8-.45-12.95Z"/><path class="cls-2" d="m92.81,93.07c.07-1.17.16-2.57.86-3.83,1.18-2.12,3.89-5.4,6.53-4.16,6.22,2.91,8.65.6,8.75.51l1.97,1.86c-.15.16-3.74,3.89-11.86.09-.39-.18-2.27.98-3.02,3.02-.28.77-.46,1.69-.52,2.64l-.23,6.82h0l-.13,3.98,2.39,1.12-.51,1.71-4.66-.8.45-12.95Z"/></svg>