<svg xmlns="http://www.w3.org/2000/svg" width="214" height="52" viewBox="0 0 214 52" fill="none">
    <path d="M42.0756 0.637695H0.521484L21.2793 25.9999L42.0756 0.637695Z" fill="#0572A2"/>
    <path d="M21.2794 51.3622C24.6559 48.6764 29.1068 45.2231 32.9437 40.2351H9.65344C13.4904 45.2231 17.9029 48.6764 21.2794 51.3622Z" fill="#0572A2"/>
    <path d="M2.78564 26.0002C3.20771 27.8036 3.70651 29.4919 4.32042 30.9883C5.77846 34.5566 7.62019 37.6262 9.65377 40.2737L21.3181 26.0386H2.78564V26.0002Z" fill="#0572A2"/>
    <path d="M42.0756 0.637695L21.3178 25.9999L9.65344 40.235H32.9821C35.0156 37.5875 36.8574 34.5563 38.3154 30.9495C38.9293 29.4531 39.4281 27.7649 39.8502 25.9615C42.3442 15.2948 42.0756 0.637695 42.0756 0.637695Z" fill="#E0E0DF"/>
    <path d="M21.2795 25.9999L0.521661 0.637695C0.521661 0.637695 0.214706 15.2948 2.78546 25.9999H21.2795Z" fill="#E0E0DF"/>
    <path d="M62.335 15.7936H60.3781L54.5844 0.637695H57.2702L61.4909 12.2636L65.7499 0.637695H68.3206L62.335 15.7936Z" fill="#060400"/>
    <path d="M73.5768 6.43178C71.8885 6.43178 70.8526 7.62123 70.4689 9.15601H76.3394C76.2243 7.69797 75.1116 6.43178 73.5768 6.43178ZM73.6535 14.1824C75.1116 14.1824 76.1476 13.6452 76.8382 12.4558L78.4114 13.4918C77.2986 15.2568 75.8022 16.1009 73.5384 16.1009C70.0852 16.1009 68.09 13.6069 68.09 10.3838C68.09 7.12243 70.4689 4.62842 73.5384 4.62842C76.4929 4.62842 78.6416 6.77711 78.6416 9.73155C78.6416 10.1152 78.6032 10.6141 78.5265 10.9594H70.3154C70.4689 12.686 71.6967 14.1824 73.6535 14.1824Z" fill="#060400"/>
    <path d="M86.7378 7.23734C86.239 6.7769 85.3565 6.39321 84.5507 6.39321C83.6682 6.39321 83.0543 6.89201 83.0543 7.69777C83.0543 8.50353 84.0519 8.88722 85.0879 9.30929C86.5075 9.88483 88.3109 10.6522 88.3109 12.6091C88.3109 15.0647 86.3541 16.0623 84.2821 16.0623C82.709 16.0623 81.2893 15.4484 80.3301 14.2973L81.7881 13.0311C82.5555 13.7985 83.3229 14.2206 84.2438 14.2206C85.203 14.2206 86.0471 13.7601 86.0471 12.7242C86.0471 11.88 85.0495 11.4963 83.9752 11.0743C82.5555 10.4987 80.9056 9.84646 80.9056 7.88962C80.9056 5.66419 82.6706 4.58984 84.5507 4.58984C85.8553 4.58984 87.1215 5.01191 88.004 5.85604L86.7378 7.23734Z" fill="#060400"/>
    <path d="M93.5677 6.77658V11.5344C93.5677 11.803 93.5677 12.0716 93.606 12.4169C93.6828 13.4529 94.0281 14.0668 94.9873 14.0668C95.4478 14.0668 95.8698 13.9517 96.2152 13.7598L96.8674 15.5248C96.2919 15.8318 95.4478 16.062 94.6804 16.062C93.1072 16.062 92.1096 15.333 91.6876 14.1819C91.4573 13.568 91.3806 12.8006 91.3806 11.9948V6.77658H89.9609V4.85811H91.3806L91.4957 2.28735H93.606V4.85811H96.5988V6.77658H93.5677Z" fill="#060400"/>
    <path d="M101.395 0.637695H99.1697V15.832H101.395V0.637695Z" fill="#060400"/>
    <path d="M111.179 10.8824C110.412 10.729 109.836 10.6906 109.299 10.6906C108.033 10.6906 106.344 11.0359 106.344 12.6091C106.344 13.8369 107.304 14.3357 108.378 14.3357C109.452 14.3357 110.335 13.7985 111.141 13.1079V10.8824H111.179ZM111.332 15.7937L111.256 14.681C110.412 15.6402 109.376 16.0623 108.033 16.0623C105.999 16.0623 104.119 15.0263 104.119 12.6858C104.119 9.9232 106.575 9.07907 108.992 9.07907C109.567 9.07907 110.258 9.15581 111.141 9.30929V9.00233C111.141 7.39081 110.412 6.46995 108.647 6.46995C107.38 6.46995 106.114 6.93038 105.193 7.42918L104.579 5.62582C105.769 5.05028 107.457 4.58984 108.992 4.58984C112.138 4.58984 113.366 6.31647 113.366 9.15581V15.7937H111.332Z" fill="#060400"/>
    <path d="M118.776 4.85843L118.853 6.58506C119.697 5.31886 121.002 4.58984 122.421 4.58984C123.879 4.58984 124.877 5.12702 125.529 5.97115C126.297 7.00712 126.488 8.46516 126.488 10.115V15.8321H124.263V10.3453C124.263 9.34765 124.225 8.23494 123.764 7.46755C123.419 6.93038 122.843 6.58506 121.922 6.58506C120.733 6.58506 119.582 7.39081 118.853 8.5419V15.7937H116.627V4.82006H118.776V4.85843Z" fill="#060400"/>
    <path d="M134.661 6.58496C132.282 6.58496 131.131 8.5418 131.131 10.3452C131.131 12.302 132.474 14.067 134.585 14.067C135.697 14.067 137.117 13.4147 137.654 12.1102V8.19648C136.964 7.12213 135.736 6.58496 134.661 6.58496ZM139.918 15.7936H137.808L137.731 14.3356C136.964 15.4867 135.505 16.0622 134.239 16.0622C131.131 16.0622 128.868 13.4915 128.868 10.3068C128.868 7.35235 131.016 4.58975 134.278 4.58975C135.505 4.58975 136.81 5.12692 137.693 6.00942V0.637695H139.918V15.7936Z" fill="#060400"/>
    <path d="M61.9126 26.0766C61.4905 25.8464 61.0301 25.7697 60.4929 25.7697C59.9557 25.7697 59.572 25.8848 59.3035 26.115C58.8814 26.4987 58.8046 27.1893 58.8046 28.0718V29.2997H60.9917L61.7207 31.2181H58.8046V40.2733H56.5792V31.2181H55.1595V29.2997H56.5792V27.88C56.5792 26.6905 56.8094 25.7313 57.3082 25.0023C57.8838 24.1965 58.7663 23.7361 60.2627 23.7361C61.0301 23.7361 61.8742 23.9663 62.5648 24.2349L61.9126 26.0766Z" fill="#060400"/>
    <path d="M65.0206 29.2612L67.7065 37.1653H67.7448L70.5074 29.2612H72.9247L66.7472 45.2229L64.7904 44.4172L66.517 39.8128L62.5266 29.2612H65.0206Z" fill="#060400"/>
    <path d="M77.1453 25.0793H74.9199V40.2353H77.1453V25.0793Z" fill="#060400"/>
    <path d="M83.0159 34.5182L83.0543 34.5566L87.3133 29.2616H89.9992L86.0855 33.7892L90.3061 40.2353H87.6203L84.6275 35.5158L83.0159 37.3959V40.2353H80.7905V25.0793H83.0159V34.5182Z" fill="#060400"/>
    <path d="M96.5606 30.8725C94.8723 30.8725 93.8363 32.0619 93.4526 33.5967H99.3232C99.208 32.1003 98.0953 30.8725 96.5606 30.8725ZM96.6373 38.6231C98.0953 38.6231 99.1313 38.0859 99.822 36.8965L101.395 37.9324C100.282 39.6974 98.786 40.5416 96.5222 40.5416C93.0689 40.5416 91.0737 38.0475 91.0737 34.8245C91.0737 31.5631 93.4526 29.0691 96.5222 29.0691C99.4766 29.0691 101.625 31.2178 101.625 34.1722C101.625 34.5559 101.587 35.0547 101.51 35.4H93.2992C93.4526 37.1267 94.6805 38.6231 96.6373 38.6231Z" fill="#060400"/>
    <path d="M109.721 31.6783C109.222 31.2178 108.34 30.8341 107.534 30.8341C106.652 30.8341 106.038 31.3329 106.038 32.1387C106.038 32.9444 107.035 33.3281 108.071 33.7502C109.491 34.3257 111.294 35.0931 111.294 37.05C111.294 39.5056 109.337 40.5032 107.265 40.5032C105.692 40.5032 104.273 39.8893 103.313 38.7382L104.771 37.472C105.539 38.2394 106.306 38.6615 107.227 38.6615C108.186 38.6615 109.03 38.2011 109.03 37.1651C109.03 36.3209 108.033 35.9373 106.958 35.5152C105.539 34.9397 103.889 34.2874 103.889 32.3305C103.889 30.1051 105.654 29.0308 107.534 29.0308C108.839 29.0308 110.105 29.4528 110.987 30.297L109.721 31.6783Z" fill="#060400"/>
    <path d="M116.244 34.5182L116.321 34.5566L120.541 29.2616H123.227L119.352 33.7892L123.534 40.2353H120.848L117.855 35.5158L116.244 37.3959V40.2353H114.019V25.0793H116.244V34.5182Z" fill="#060400"/>
    <path d="M129.865 31.0258C127.908 31.0258 126.488 32.6757 126.488 34.7476C126.488 36.7812 127.908 38.4694 129.865 38.4694C131.822 38.4694 133.241 36.7812 133.241 34.7476C133.241 32.714 131.822 31.0258 129.865 31.0258ZM135.505 34.7476C135.505 37.9706 133.088 40.503 129.865 40.503C126.603 40.503 124.224 37.9706 124.224 34.7476C124.224 31.5246 126.603 28.9922 129.865 28.9922C133.088 29.0306 135.505 31.5629 135.505 34.7476Z" fill="#060400"/>
    <path d="M152.273 40.2344V34.7476C152.273 33.75 152.234 32.6373 151.812 31.8699C151.467 31.3711 150.891 31.0258 150.047 31.0258C149.05 31.0258 147.975 31.678 147.208 32.6756C147.285 33.2512 147.323 33.8651 147.323 34.5174V40.2344H145.098V34.7476C145.098 33.75 145.059 32.5605 144.561 31.7932C144.254 31.3327 143.755 31.0258 142.949 31.0258C141.913 31.0258 140.8 31.9083 140.148 32.7908V40.2344H137.923V29.2608H140.033L140.071 30.8339C140.915 29.6828 142.258 28.9922 143.486 28.9922C144.714 28.9922 145.827 29.4526 146.479 30.4886C146.594 30.6421 146.671 30.7956 146.748 30.949C147.707 29.5677 149.126 28.9922 150.508 28.9922C151.927 28.9922 152.887 29.491 153.501 30.2967C154.306 31.3327 154.537 32.8291 154.537 34.5174V40.2344H152.273Z" fill="#060400"/>
    <path d="M172.148 40.2344V34.7476C172.148 33.75 172.11 32.6373 171.688 31.8699C171.343 31.3711 170.767 31.0258 169.923 31.0258C168.925 31.0258 167.851 31.678 167.122 32.6756C167.199 33.2512 167.237 33.8651 167.237 34.5174V40.2344H165.012V34.7476C165.012 33.75 165.012 32.5605 164.474 31.7932C164.167 31.3327 163.669 31.0258 162.863 31.0258C161.827 31.0258 160.714 31.9083 160.062 32.7908V40.2344H157.76V29.2608H159.87L159.908 30.8339C160.753 29.6828 162.095 28.9922 163.323 28.9922C164.551 28.9922 165.664 29.4526 166.316 30.4886C166.431 30.6421 166.508 30.7956 166.585 30.949C167.544 29.5677 168.964 28.9922 170.345 28.9922C171.765 28.9922 172.724 29.491 173.338 30.2967C174.144 31.3327 174.374 32.8291 174.374 34.5174V40.2344H172.148Z" fill="#060400"/>
    <path d="M185.232 40.2349L185.155 38.5083C184.349 39.7745 183.006 40.5035 181.587 40.5035C180.129 40.5035 179.131 39.9663 178.479 39.1222C177.712 38.0862 177.52 36.6282 177.52 34.9783V29.2612H179.745V34.7481C179.745 35.7457 179.783 36.8584 180.244 37.6258C180.551 38.1629 181.165 38.4699 182.047 38.4699C183.237 38.4699 184.388 37.6641 185.117 36.5131V29.2612H187.342V40.2349H185.232Z" fill="#060400"/>
    <path d="M192.829 29.2608L192.906 30.9874C193.712 29.7212 195.055 28.9922 196.474 28.9922C197.932 28.9922 198.93 29.5294 199.582 30.3735C200.35 31.4095 200.542 32.8675 200.542 34.5174V40.2344H198.316V34.7476C198.316 33.75 198.278 32.6373 197.817 31.8699C197.51 31.3327 196.896 31.0258 196.014 31.0258C194.825 31.0258 193.673 31.8315 192.944 32.9826V40.2344H190.719V29.2608H192.829Z" fill="#060400"/>
    <path d="M208.446 30.8725C206.757 30.8725 205.721 32.0619 205.338 33.5967H211.208C211.093 32.1003 209.98 30.8725 208.446 30.8725ZM208.522 38.6231C209.98 38.6231 211.016 38.0859 211.707 36.8965L213.28 37.9324C212.167 39.6974 210.671 40.5416 208.407 40.5416C204.954 40.5416 202.959 38.0475 202.959 34.8245C202.959 31.5631 205.338 29.0691 208.407 29.0691C211.362 29.0691 213.51 31.2178 213.51 34.1722C213.51 34.5559 213.472 35.0547 213.395 35.4H205.184C205.338 37.1267 206.565 38.6231 208.522 38.6231Z" fill="#060400"/>
</svg>