<svg xmlns="http://www.w3.org/2000/svg" width="228" height="78" viewBox="0 0 228 78" fill="none">
    <path d="M31.98 18.1243H25.097L36.6029 38.1401L40.0272 32.156L31.98 18.1243Z" fill="#0BAEC6"/>
    <path d="M59.3062 18.1243L45.6431 41.9232L42.2188 47.9073L51.2248 63.5899L77.3526 18.1243H59.3062Z" fill="#0BAEC6"/>
    <path d="M96.8713 37.0739V31.3649H91.3924V37.0739H89.3378V24.2458H91.3924V29.6109H96.8713V24.2458H98.8917V37.0739H96.8713Z" fill="#002F43"/>
    <path d="M107.761 31.2963L104.063 34.9761C104.439 35.3888 104.987 35.5952 105.603 35.5952C107.007 35.5952 107.932 34.4947 107.932 32.4656C107.932 32.0529 107.864 31.6402 107.761 31.2963ZM103.48 33.7381L107.179 30.0238C106.768 29.5767 106.254 29.3359 105.569 29.3359C104.165 29.3359 103.275 30.5052 103.275 32.4312C103.275 32.947 103.343 33.3941 103.48 33.7381ZM100.638 36.5582L101.974 35.2169C101.563 34.4603 101.357 33.5317 101.357 32.4656C101.357 29.6111 102.967 27.6507 105.638 27.6507C106.802 27.6507 107.795 28.0634 108.48 28.7513L109.747 27.5132L110.672 28.4418L109.268 29.8174C109.678 30.5396 109.85 31.4682 109.85 32.4656C109.85 35.3201 108.24 37.2804 105.603 37.2804C104.439 37.2804 103.48 36.9021 102.796 36.283L101.563 37.4867C101.255 37.1772 100.946 36.8677 100.638 36.5582Z" fill="#002F43"/>
    <path d="M116.013 29.3358C114.575 29.3358 113.616 30.4363 113.616 32.4654C113.616 34.4945 114.575 35.5951 116.013 35.5951C117.417 35.5951 118.274 34.4945 118.274 32.4654C118.274 30.4707 117.417 29.3358 116.013 29.3358ZM120.26 36.6956C120.26 39.4469 118.445 40.857 116.013 40.857C113.925 40.857 112.418 39.9628 112.007 38.4496L113.925 37.9337C114.13 38.6903 114.986 39.2062 116.013 39.2062C117.554 39.2062 118.274 38.1744 118.274 36.6956V36.0078C117.897 36.6956 116.767 37.2803 115.705 37.2803C113.411 37.2803 111.665 35.3199 111.665 32.4654C111.665 29.6453 113.308 27.6506 115.705 27.6506C116.904 27.6506 117.965 28.3729 118.274 29.0263L118.445 27.857H120.26V36.6956Z" fill="#002F43"/>
    <path d="M122.246 34.357C122.896 34.2194 123.547 34.1162 124.163 33.9787C124.3 34.7009 124.711 35.5951 126.184 35.5951C126.526 35.5951 128.136 35.4575 128.136 34.2882C128.136 32.0871 122.52 34.357 122.52 30.402C122.52 28.8199 124.095 27.6506 126.047 27.6506C127.999 27.6506 129.677 28.476 129.951 30.5395C129.3 30.6427 128.649 30.7803 128.033 30.9178C127.896 29.7829 127.211 29.3358 126.115 29.3358C125.157 29.3358 124.506 29.8517 124.506 30.402C124.506 31.1586 125.191 31.3649 126.287 31.4681C128.375 31.6744 130.122 32.1559 130.122 34.2882C130.122 36.2141 128.444 37.2459 126.218 37.2459C123.821 37.2803 122.486 36.0422 122.246 34.357Z" fill="#002F43"/>
    <path d="M137.758 27.857H140.429L136.423 31.64C137.108 32.4998 140.121 36.2485 140.806 37.1083H138.443L135.087 32.9125L134.197 33.8067V37.1083H132.211V24.2458H134.197V31.2617L137.758 27.857Z" fill="#002F43"/>
    <path d="M143.853 32.8783C143.853 34.7699 144.504 35.5953 145.908 35.5953C147.278 35.5953 147.963 34.7011 147.963 32.8783V27.8572H149.914V37.1085H148.168L147.963 36.1111C147.654 36.627 146.696 37.2805 145.463 37.2805C142.895 37.2805 141.901 35.8704 141.901 32.9127V27.8572H143.853V32.8783Z" fill="#002F43"/>
    <path d="M154.572 24.2458H152.62V37.1083H154.572V24.2458Z" fill="#002F43"/>
    <path d="M162.961 31.5712C162.893 30.1956 162.242 29.3358 160.907 29.3358C159.605 29.3358 158.852 30.4363 158.818 31.5712H162.961ZM163.372 33.8755C163.954 34.0474 164.571 34.2194 165.153 34.3913C164.742 35.7326 163.475 37.2458 160.975 37.2458C158.441 37.2458 156.66 35.2855 156.66 32.431C156.66 29.5765 158.338 27.6162 160.907 27.6162C163.441 27.6162 165.05 29.3358 165.05 32.1215C165.05 32.3966 165.05 32.7062 165.016 33.0157H158.715C158.749 34.357 159.674 35.5607 161.009 35.5607C161.968 35.595 162.927 35.148 163.372 33.8755Z" fill="#002F43"/>
    <path d="M173.542 32.0528C173.542 30.1612 172.892 29.3358 171.454 29.3358C170.084 29.3358 169.399 30.23 169.399 32.0528V37.0739H167.447V27.857H169.228L169.399 28.8543C169.707 28.2697 170.7 27.6506 171.83 27.6506C174.467 27.685 175.46 29.0951 175.46 32.0528V37.0739H173.508V32.0528H173.542Z" fill="#002F43"/>
    <path d="M93.584 49.4206C92.1458 49.4206 91.324 50.5211 91.324 52.5502C91.324 54.5793 92.1458 55.6798 93.584 55.6798C94.988 55.6798 95.9126 54.5793 95.9126 52.5502C95.9126 50.5555 95.0222 49.4206 93.584 49.4206ZM89.3378 47.9417H91.1185L91.2897 49.111C91.6321 48.5952 92.6252 47.7698 93.9607 47.7698C96.255 47.7698 97.8987 49.7301 97.8987 52.5846C97.8987 55.4391 96.4605 57.3994 93.9607 57.3994C92.7279 57.3994 91.6664 56.6428 91.2897 56.0925V60.8042H89.3036V47.9417H89.3378Z" fill="#002F43"/>
    <path d="M103.652 46.3252C104.131 46.3252 104.508 45.9469 104.508 45.4654C104.508 44.9839 104.131 44.6056 103.652 44.6056C103.172 44.6056 102.761 45.0183 102.761 45.4654C102.761 45.9125 103.206 46.3252 103.652 46.3252ZM103.652 43.7458C104.61 43.7458 105.398 44.5369 105.398 45.4654C105.398 46.4284 104.61 47.185 103.652 47.185C102.693 47.185 101.905 46.4284 101.905 45.4654C101.905 44.5369 102.727 43.7458 103.652 43.7458ZM105.638 53.5818V53.1347H103.48C101.871 53.1347 101.528 53.9601 101.528 54.4072C101.528 55.0263 101.939 55.6797 103.138 55.6797C104.747 55.6797 105.638 54.5792 105.638 53.5818ZM101.802 51.1056C101.152 51.0025 100.501 50.8649 99.8505 50.7273C100.056 48.6982 101.734 47.7353 103.652 47.7353C106.254 47.7353 107.59 49.0078 107.59 51.5183V54.7167C107.59 55.267 107.692 55.5765 108.069 55.5765C108.206 55.5765 108.446 55.5421 108.548 55.5078V57.1242C108 57.2617 107.624 57.2617 107.384 57.2617C106.425 57.2617 105.946 56.7115 105.775 55.9548C105.398 56.4019 104.439 57.2961 102.898 57.3305C100.775 57.3305 99.5081 56.1268 99.5081 54.4072C99.5081 52.9628 100.844 51.6559 103.241 51.6559H105.603V51.1056C105.603 50.3834 105.295 49.4205 103.617 49.4205C102.521 49.4205 101.837 50.0051 101.802 51.1056Z" fill="#002F43"/>
    <path d="M119.746 44.3306H121.903L117.28 57.1586H115.329L110.74 44.3306H112.829L116.287 54.2009L119.746 44.3306Z" fill="#002F43"/>
    <path d="M127.93 51.656C127.862 50.2803 127.211 49.4205 125.876 49.4205C124.574 49.4205 123.821 50.521 123.753 51.656H127.93ZM128.375 53.9602C128.958 54.1321 129.574 54.3041 130.156 54.4761C129.745 55.8173 128.478 57.3306 125.978 57.3306C123.444 57.3306 121.664 55.3702 121.664 52.5157C121.664 49.6612 123.342 47.7009 125.91 47.7009C128.444 47.7009 130.053 49.4205 130.053 52.2062C130.053 52.4814 130.053 52.7909 130.019 53.1004H123.718C123.753 54.4417 124.677 55.6454 126.013 55.6454C126.937 55.6798 127.896 55.2327 128.375 53.9602Z" fill="#002F43"/>
    <path d="M131.697 54.4417C132.348 54.3041 132.998 54.201 133.615 54.0634C133.752 54.7856 134.163 55.6798 135.635 55.6798C135.977 55.6798 137.587 55.5422 137.587 54.3729C137.587 52.1719 131.971 54.4417 131.971 50.4867C131.971 48.9047 133.546 47.7354 135.498 47.7354C137.45 47.7354 139.128 48.5607 139.402 50.6242C138.751 50.7274 138.101 50.865 137.484 51.0025C137.347 49.8676 136.662 49.4205 135.567 49.4205C134.608 49.4205 133.957 49.9364 133.957 50.4867C133.957 51.2433 134.642 51.4496 135.738 51.5528C137.827 51.7592 139.573 52.2406 139.573 54.3729C139.573 56.2988 137.895 57.3306 135.669 57.3306C133.272 57.365 131.937 56.0925 131.697 54.4417Z" fill="#002F43"/>
    <path d="M140.771 49.4207V47.9418H142.347V45.2593H144.299V47.9418H146.216V49.4207H144.299V54.6482C144.299 55.3704 144.504 55.6111 145.155 55.6111C145.429 55.6111 145.703 55.5767 146.011 55.5767V57.1588L144.846 57.2275H144.607C142.86 57.2275 142.312 56.299 142.312 54.5106V49.3863H140.771V49.4207Z" fill="#002F43"/>
    <path d="M150.394 44.3306H148.442V57.193H150.394V44.3306Z" fill="#002F43"/>
    <path d="M158.578 53.5819V53.1348H156.421C154.811 53.1348 154.469 53.9602 154.469 54.4073C154.469 55.0264 154.88 55.6798 156.078 55.6798C157.688 55.6798 158.578 54.5793 158.578 53.5819ZM154.743 51.1057C154.092 51.0025 153.442 50.865 152.791 50.7274C152.996 48.6983 154.674 47.7354 156.592 47.7354C159.194 47.7354 160.53 49.0078 160.53 51.5184V54.7168C160.53 55.2671 160.633 55.5766 161.009 55.5766C161.146 55.5766 161.386 55.5422 161.489 55.5078V57.1242C160.941 57.2618 160.564 57.2618 160.324 57.2618C159.366 57.2618 158.886 56.7115 158.715 55.9549C158.338 56.402 157.38 57.2962 155.839 57.3306C153.716 57.3306 152.448 56.1269 152.448 54.4073C152.448 52.9629 153.784 51.656 156.181 51.656H158.544V51.1057C158.544 50.3835 158.236 49.4205 156.558 49.4205C155.462 49.4205 154.777 50.0052 154.743 51.1057Z" fill="#002F43"/>
    <path d="M169.365 52.1374C169.365 50.2459 168.714 49.4205 167.276 49.4205C165.906 49.4205 165.221 50.3147 165.221 52.1374V57.1586H163.269V47.9073H165.05L165.221 48.9046C165.529 48.32 166.523 47.7009 167.653 47.7009C170.289 47.7353 171.282 49.1454 171.282 52.103V57.1242H169.331V52.1374H169.365Z" fill="#002F43"/>
    <path d="M177.72 55.6798C179.124 55.6798 179.98 54.5792 179.98 52.5501C179.98 50.5554 179.124 49.4205 177.72 49.4205C176.316 49.4205 175.357 50.521 175.357 52.5501C175.357 54.5792 176.316 55.6798 177.72 55.6798ZM181.966 57.1586H180.151L179.98 56.0237C179.638 56.5396 178.645 57.365 177.309 57.365C175.015 57.365 173.337 55.4046 173.337 52.5501C173.337 49.6956 174.81 47.7353 177.309 47.7353C178.542 47.7353 179.604 48.4919 179.98 49.0422V44.3306H181.966V57.1586Z" fill="#002F43"/>
    <path d="M190.39 51.656C190.322 50.2803 189.671 49.4205 188.336 49.4205C187.034 49.4205 186.281 50.521 186.247 51.656H190.39ZM190.801 53.9602C191.383 54.1321 192 54.3041 192.582 54.4761C192.171 55.8173 190.904 57.3306 188.404 57.3306C185.87 57.3306 184.089 55.3702 184.089 52.5157C184.089 49.6612 185.767 47.7009 188.336 47.7009C190.87 47.7009 192.479 49.4205 192.479 52.2062C192.479 52.4814 192.479 52.7909 192.445 53.1004H186.144C186.178 54.4417 187.103 55.6454 188.438 55.6454C189.397 55.6798 190.322 55.2327 190.801 53.9602Z" fill="#002F43"/>
    <path d="M193.78 49.4207V47.9418H195.356V45.2593H197.307V47.9418H199.225V49.4207H197.307V54.6482C197.307 55.3704 197.513 55.6111 198.164 55.6111C198.438 55.6111 198.711 55.5767 199.02 55.5767V57.1588L197.855 57.2275H197.616C195.869 57.2275 195.321 56.299 195.321 54.5106V49.3863H193.78V49.4207Z" fill="#002F43"/>
</svg>