<?xml version="1.0" encoding="UTF-8"?><svg id="Layer_1" xmlns="http://www.w3.org/2000/svg" viewBox="0 0 364 102.41"><defs><style>.cls-1{fill: var(--svg-color, #1d1d1b);}</style></defs><path class="cls-1" d="m132.73,85.17v-9.04l-.36-.07h-.01s-3.72,1.38-3.72,1.38h-.03v.76l2.29-.43v7.43c-.83.3-1.73.48-2.34.58h-.06s.19.67.19.67v.04s.05,0,.05,0c.87-.06,2.23-.06,3.13-.06.97,0,2.29,0,3.17.06h.04s.24-.7.24-.7h-.06c-1.01-.12-1.86-.32-2.52-.61Z"/><path class="cls-1" d="m143.93,83.35l-.97,1.5h-3.91v-.04c.28-.23.58-.46.9-.71.54-.42,1.15-.9,1.75-1.43,1.58-1.4,2.64-2.65,2.64-4.15s-1.22-2.44-3.11-2.44c-1.09,0-2.34.32-3.19.8h-.02s-.07.23-.07.23v.02c.18.5.34,1.41.41,2.06v.04h.68l.74-2.18c.18-.06.4-.12.7-.12,1.13,0,1.86.7,1.86,1.79,0,1.37-.99,2.58-1.96,3.59-1.01,1.07-2.06,1.98-2.76,2.55l-.03.02.49,1.62h.04c.6-.06,1.63-.09,2.98-.09,1.67,0,2.27.03,2.86.1h.02s.21-.12.21-.12v-.03c.03-.6.21-1.86.41-2.81v-.05s-.65-.14-.65-.14h-.03Z"/><path class="cls-1" d="m153.84,75.53l-.52.75c-.91.04-1.64.06-2.49.06-.67,0-1.74,0-3.36-.09h-.02s-.18.16-.18.16v.03c.08.81.1,2.28.1,3.07v.05h.68l.65-1.64h3.61c-1.69,3.07-2.88,5.7-3.86,8.5l-.02.05.85.17h.04s.01-.03.01-.03c1.24-3.06,2.91-5.99,5.03-9.44l.21-1.28v-.04s-.7-.31-.7-.31l-.04-.02Z"/><path class="cls-1" d="m162.13,81.38l-.38.74h-.48v-5.89h-2.25l-.02.02c-1.27,1.79-2.58,3.88-3.77,6.04v.02s.5,1.24.5,1.24h3.93v1.82c-.38.27-.64.39-.87.5l-.04.02.2.59h.04c.53-.03.85-.05,1.46-.05.57,0,.95.01,1.52.04h.04s.24-.59.24-.59l-.05-.02c-.28-.11-.55-.25-.92-.57v-1.75h1.27l.13-.13v-.02c.02-.68.06-1.4.13-1.97v-.06s-.67,0-.67,0Zm-2.47-4.16v4.9h-3.14c.8-1.45,2.16-3.48,3.13-4.9h.01Z"/><path class="cls-1" d="m214.44,83.35l-.97,1.5h-3.91v-.04c.28-.23.58-.47.9-.72.54-.42,1.15-.9,1.75-1.43,1.58-1.4,2.64-2.65,2.64-4.15s-1.22-2.44-3.11-2.44c-1.09,0-2.34.32-3.19.8h-.02s-.07.23-.07.23v.02c.18.5.34,1.41.41,2.06v.04h.68l.74-2.18c.18-.06.4-.12.7-.12,1.13,0,1.86.7,1.86,1.79,0,1.37-.99,2.58-1.96,3.59-1.01,1.07-2.06,1.98-2.76,2.55l-.03.02.49,1.62h.04c.6-.06,1.63-.09,2.98-.09,1.67,0,2.27.03,2.86.1h.02s.21-.12.21-.12v-.03c.03-.6.21-1.86.41-2.81v-.05s-.65-.14-.65-.14h-.03Z"/><path class="cls-1" d="m221.55,76.07c-2.5,0-3.99,1.99-3.99,5.33,0,3.59,1.29,5.27,4.05,5.27,2.5,0,3.99-1.99,3.99-5.33,0-3.59-1.29-5.27-4.05-5.27Zm.25,9.73c-1.76,0-2.36-1.34-2.36-5.33,0-2.6.5-3.52,1.92-3.52,1.81,0,2.36,1.24,2.36,5.31,0,2.57-.52,3.53-1.92,3.53Z"/><path class="cls-1" d="m233.89,83.35l-.97,1.5h-3.91v-.04c.28-.23.58-.47.9-.72.54-.42,1.15-.9,1.75-1.43,1.58-1.4,2.64-2.65,2.64-4.15s-1.22-2.44-3.11-2.44c-1.09,0-2.34.32-3.19.8h-.02s-.07.23-.07.23v.02c.18.5.34,1.41.41,2.06v.04h.68l.74-2.18c.18-.06.4-.12.7-.12,1.13,0,1.86.7,1.86,1.79,0,1.37-.99,2.58-1.96,3.59-1.01,1.07-2.06,1.98-2.76,2.55l-.03.02.49,1.62h.04c.6-.06,1.63-.09,2.98-.09,1.67,0,2.27.03,2.86.1h.02s.21-.12.21-.12v-.03c.03-.6.21-1.86.41-2.81v-.05s-.65-.14-.65-.14h-.03Z"/><path class="cls-1" d="m243.79,81.39l-.38.74h-.48v-5.89h-2.25l-.02.02c-1.27,1.79-2.58,3.88-3.77,6.04v.02s.5,1.24.5,1.24h3.93v1.82c-.38.27-.64.39-.87.5l-.04.02.2.59h.04c.53-.03.85-.05,1.46-.05.57,0,.95.01,1.52.04h.04s.24-.59.24-.59l-.05-.02c-.28-.11-.55-.25-.92-.57v-1.75h1.27l.13-.13v-.02c.02-.68.06-1.4.13-1.97v-.06s-.67,0-.67,0Zm-2.47-4.16v4.9h-3.14c.8-1.45,2.16-3.48,3.13-4.9h.01Z"/><path class="cls-1" d="m21.4,60.89c1.87,0,3.85.04,5.89.11l.09-.18c-.1-.92-.16-2-.16-3.21v-.76h-.82l-1.37,2.95h-5.06v-12.77h.02c.58-.37,1.24-.66,1.61-.81l-.25-.84c-.9.05-1.73.07-2.69.07s-1.81-.02-2.69-.07l-.25.84c.42.17,1.15.49,1.61.82h.02v12.31h-.02c-.55.39-1.23.69-1.61.84l.25.84c1.54-.09,3.31-.13,5.41-.13Z"/><path class="cls-1" d="m44.81,60.96c1.02,0,2.11.02,2.93.07l.25-.84c-.06-.02-.12-.05-.18-.07-.39-.15-.83-.33-1.27-.59h-.01s0-.03,0-.03l-5.21-14.08c-.32.01-1.1.04-2.08.04-1.1,0-2.19-.02-2.93-.07l-.25.82c.11.05.22.09.33.14.47.2,1.01.43,1.44.7l.04.02v.04s-4.72,12.37-4.72,12.37h-.01c-.43.28-.91.47-1.33.64l-.14.06.25.84c.83-.04,1.4-.07,2.35-.07s1.73.02,2.58.07l.29-.84c-.65-.24-1.4-.54-2.1-.96l-.03-.02v-.04s1.06-3.16,1.06-3.16h6.4v.03s1.08,3.23,1.08,3.23l-.03.02c-.61.39-1.39.7-1.94.89l.27.84c.79-.04,1.94-.07,3.02-.07Zm-8.42-6.11l.02-.07,2.67-7.64h.27v.03s2.69,7.67,2.69,7.67h-5.65Z"/><path class="cls-1" d="m68.09,45.37c-.89.05-1.58.07-2.37.07-.84,0-1.58-.02-2.46-.07l-.27.84c.68.28,1.32.63,1.97,1.07h.02s0,.04,0,.04l.48,10.43h-.21v-.02s-8.15-12.35-8.15-12.35c-.79.04-1.2.07-2.04.07s-1.67-.02-2.21-.06l-.25.84c.58.21,1.17.5,1.61.8l.02.02v12.34h-.02c-.44.33-1.09.59-1.61.81l.25.84c.82-.04,1.57-.07,2.15-.07,1,0,2.03.02,2.84.07l.27-.84c-.65-.27-1.55-.67-2.09-1.19h-.01s0-.03,0-.03l-.47-11.1h.24l.02.02,8.89,13.41,2.04-.33v-13.94h.03c.57-.33,1.14-.62,1.61-.81l-.25-.84Z"/><path class="cls-1" d="m80.15,61.03c4.9,0,7.83-3.14,7.83-8.39,0-2.59-.66-4.43-2.01-5.63-1.24-1.1-3.04-1.64-5.5-1.64h-6.8l-.25.84c.71.28,1.26.55,1.61.8h.02v12.36h-.02c-.46.34-1.13.64-1.61.82l.25.84h6.49Zm-2.5-14.52h2.14c3.74,0,5.56,2.46,5.56,7.52,0,3.89-1.63,5.86-4.84,5.86h-2.86v-13.38Z"/><path class="cls-1" d="m98.76,52.14c-2.48-1.01-3.41-1.96-3.41-3.51s1.09-2.44,3.07-2.44c.47,0,1.2.04,1.76.13h.03s0,.03,0,.03l1.16,3.19h.84c.07-1.15.43-2.67.71-3.64l-.08-.23c-1.28-.4-3.27-.58-4.69-.58-3.16,0-5.28,1.74-5.28,4.34,0,1.84.73,3.36,4.27,4.79,2.73,1.09,3.56,1.91,3.56,3.53s-1.1,2.46-3.36,2.46c-.51,0-1.31-.06-1.95-.2h-.03s0-.03,0-.03l-1.16-3.19h-.84c-.07,1.14-.41,2.64-.71,3.69l.08.23c1.16.42,3.17.58,4.66.58,3.63,0,5.8-1.62,5.8-4.34,0-2.2-1.21-3.5-4.45-4.82Z"/><path class="cls-1" d="m114.32,60.89c1.87,0,3.85.04,5.89.11l.09-.18c-.1-.92-.16-2-.16-3.21v-.76h-.82l-1.37,2.95h-5.06v-12.77h.02c.58-.37,1.24-.66,1.61-.81l-.25-.84c-.9.05-1.73.07-2.69.07s-1.81-.02-2.69-.07l-.25.84c.42.17,1.15.49,1.61.82h.02v12.31h-.02c-.55.39-1.23.69-1.61.84l.25.84c1.54-.09,3.31-.13,5.41-.13Z"/><path class="cls-1" d="m139.03,53.13c0-5.25-2.57-8.03-7.44-8.03-2.21,0-4.08.8-5.39,2.33-1.27,1.47-1.94,3.49-1.94,5.84,0,5.25,2.57,8.03,7.42,8.03,2.22,0,4.09-.8,5.41-2.33,1.27-1.47,1.94-3.49,1.94-5.84Zm-6.88,6.98c-1.59,0-2.93-.79-3.86-2.27-.91-1.46-1.39-3.52-1.39-5.97,0-3.62,1.5-5.61,4.24-5.61,1.59,0,2.93.79,3.86,2.27.91,1.46,1.39,3.52,1.39,5.97,0,3.62-1.5,5.61-4.24,5.61Z"/><path class="cls-1" d="m156.34,47.04c.48-.36.9-.63,1.32-.82l-.25-.84c-.82.04-1.27.07-2.24.07-.86,0-1.77-.02-2.44-.07l-.29.84c.66.2,1.47.54,2.05.84l.04.02v.04s-3.76,10.95-3.76,10.95h-.3v-.03s-3.87-10.98-3.87-10.98l.04-.02c.52-.31,1.33-.59,2.06-.82l-.25-.84c-.81.04-1.97.07-3.05.07s-2.11-.02-2.91-.07l-.29.84c.38.13.88.38,1.38.71h.01s0,.02,0,.02l5.48,14.08h1.73l5.51-13.98h.01Z"/><path class="cls-1" d="m218.29,61.3c3.33,0,5.49-2.4,5.49-6.12v-8.06h.02c.51-.35,1.12-.65,1.76-.9l-.29-.84c-1.1.05-3.21.09-4.47.09-1.43,0-3.73-.03-5.65-.09l-.31,1.98.08.12,6.24-.97v8.77c0,1.72-.09,3.02-.51,3.83-.4.76-1.08,1.08-2.29,1.08-.47,0-.94-.05-1.34-.14h-.03s0-.04,0-.04l-.93-3.21h-.86c-.08,1.14-.39,2.78-.71,3.69l.08.23c1.14.39,2.33.58,3.72.58Z"/><path class="cls-1" d="m238.54,61.3c3.7,0,5.75-2.76,5.91-7.99l.2-6.26h.02c.49-.37,1.15-.65,1.63-.84l-.29-.84c-.78.04-1.63.07-2.58.07-.83,0-1.51-.02-2.42-.07l-.25.84c.57.21,1.42.61,1.99.98h.02s0,.04,0,.04c.07,1.31.2,4.79.2,6.12v.61c0,4.97-2.19,6.01-4.03,6.01-2.79,0-4.03-1.89-4.03-6.13v-6.78h.03c.57-.33,1.32-.61,1.92-.83l.07-.03-.29-.84c-.89.04-2.16.07-3.05.07-.98,0-1.81-.02-2.69-.07l-.25.84c.3.11,1.11.43,1.63.82h.02v7.15c0,4.92,1.91,7.11,6.21,7.11Z"/><path class="cls-1" d="m259.79,53.07h-.05v-.2h.04c2.18-.59,3.43-1.99,3.43-3.83,0-2.6-1.57-3.66-5.42-3.66h-6.47l-.25.84c.55.21,1.07.48,1.61.8h.02v12.36h-.02c-.54.34-1.06.6-1.61.81l.25.84h5.95c4.02,0,6.52-1.81,6.52-4.72,0-1.95-1.46-3.13-4-3.24Zm-2.16,6.84h-2.32v-13.42h2.28c2.17,0,3.09.9,3.09,3.02,0,1.98-1.24,2.79-2.29,3.13h-.02s-2.43,0-2.43,0v.98h2c2.2,0,3.27,1.03,3.27,3.16s-1.11,3.13-3.58,3.13Z"/><path class="cls-1" d="m272.57,60.96c.96,0,1.79.02,2.69.07l.25-.84c-.35-.14-1.11-.47-1.61-.8h-.02v-12.36h.02c.49-.34,1.26-.67,1.61-.81l-.25-.84c-.9.05-1.73.07-2.69.07s-1.81-.02-2.69-.07l-.25.84c.35.14,1.11.47,1.61.8h.02v12.36h-.02c-.5.34-1.27.67-1.61.81l.25.84c.87-.05,1.7-.07,2.69-.07Z"/><path class="cls-1" d="m287.76,60.89c1.87,0,3.85.04,5.89.11l.09-.18c-.1-.92-.16-2-.16-3.21v-.76h-.82l-1.37,2.95h-5.06v-12.77h.02c.58-.37,1.24-.66,1.61-.81l-.25-.84c-.9.05-1.73.07-2.69.07s-1.81-.02-2.69-.07l-.25.84c.42.17,1.15.5,1.61.82h.02v12.31h-.02c-.55.39-1.23.69-1.61.84l.25.84c1.54-.09,3.31-.13,5.41-.13Z"/><path class="cls-1" d="m304.28,60.89c1.29,0,3.37.02,5.92.11l.11-.19c-.12-.94-.18-1.8-.18-2.87,0-.41,0-.72.02-1.1h-.84l-1.35,2.9h-5.1v-6.02h3.34v.02c.6.85.95,1.49,1.24,2.2l.79-.2c-.07-.99-.11-1.71-.11-2.46s.04-1.52.11-2.46l-.8-.18c-.28.59-.6,1.12-1.25,2.04v.02h-3.33v-6.06h5.1v.03s1.33,2.87,1.33,2.87h.84c-.02-.32-.02-.59-.02-.94,0-1.02.06-1.96.2-3.05l-.13-.19c-1.91.09-3.89.13-5.89.13-2.1,0-3.87-.04-5.41-.13l-.25.84c.57.21,1.1.48,1.61.85l.02.02v12.27h-.02c-.61.44-1.13.66-1.61.84l.25.84c1.54-.09,3.31-.13,5.41-.13Z"/><path class="cls-1" d="m321.87,60.89c1.29,0,3.37.02,5.92.11l.11-.19c-.12-.94-.18-1.8-.18-2.87,0-.41,0-.72.02-1.1h-.84l-1.35,2.9h-5.1v-6.02h3.34v.02c.6.85.95,1.49,1.24,2.2l.79-.2c-.07-.95-.11-1.7-.11-2.46s.04-1.53.11-2.46l-.8-.18c-.28.59-.6,1.12-1.25,2.04v.02h-3.33v-6.06h5.1v.03s1.33,2.87,1.33,2.87h.84c-.02-.32-.02-.59-.02-.94,0-1.02.06-1.96.2-3.05l-.13-.19c-1.91.09-3.89.13-5.89.13-2.1,0-3.87-.04-5.41-.13l-.25.84c.57.21,1.1.48,1.61.85l.02.02v12.27h-.02c-.61.44-1.13.66-1.61.84l.25.84c1.54-.09,3.31-.13,5.41-.13Z"/><path class="cls-1" d="m340.49,45.53c-1.44,0-5.01-.07-7.3-.16l-.17.15c.12.98.18,2.07.18,3.31,0,.41,0,.8-.02,1.21h.84l1.46-3.4h3.71v12.73h-.02c-.55.36-1.21.66-1.59.81l.25.84c.86-.04,1.73-.07,2.73-.07.91,0,1.77.02,2.62.07l.25-.84c-.57-.25-1.11-.51-1.61-.79h-.03v-12.74h3.75v.03s1.44,3.37,1.44,3.37h.84c-.02-.41-.02-.8-.02-1.21,0-1.24.06-2.33.18-3.31l-.17-.15c-2.28.09-5.87.16-7.32.16Z"/><path class="cls-1" d="m193.45,22.45c-4,2.44-4.29,7.41-4.29,7.63h-1.64c0-.19.03-3.15,1.72-5.94.72-1.18,1.74-2.33,3.18-3.23.41-.26.86-.49,1.34-.7l.44-.19s.2-.07.3-.11c.1-.03.33-.11.33-.11l.14.87.45,2.8-.99.47c-.26-.44-.62-1.04-.97-1.49Z"/><path class="cls-1" d="m195.09,67.13c.01-.16.07-1.62-1.02-2.78-.81-.86-2-1.3-3.54-1.3-2.98,0-2.64-1.29-2.66-1.35l-2.36.45-2.36-.45c-.02.05.32,1.35-2.66,1.35-1.54,0-2.73.44-3.54,1.3-1.09,1.16-1.03,2.62-1.02,2.78h1.66s-.03-.94.54-1.53c.45-.47,1.36-.71,2.36-.71,3.3,0,4.56-1.39,5.02-2.17.46.79,1.72,2.17,5.02,2.17,1,0,1.91.24,2.36.71.57.59.54,1.53.54,1.53h1.66Z"/><rect class="cls-1" x="184.59" y="15.65" width="1.85" height="26.8"/><path class="cls-1" d="m182.3,69.67l.81,1.61h4.8l.81-1.61c-1.02.05-2.1.08-3.22.08-1.12,0-2.19-.03-3.21-.08Z"/><path class="cls-1" d="m177.54,52.52c.57.27,1.22.58,1.96.63,1.06.08,1.54-.14,2.41-.59l-.84-1.48c-.66.34-.93.43-1.43.39-.4-.03-.84-.24-1.31-.46-1.2-.57-3.21-1.52-4.8,1.7l1.66.82c.78-1.59,1.11-1.6,2.34-1.02Z"/><path class="cls-1" d="m180.01,73.84c1.06,2.17,1.17,4.55,1.06,5.95l1.65,1.19c.2-1.22.55-4.68-1.05-7.96l-1.66.81Z"/><path class="cls-1" d="m175.59,71.6c1.83,3.16,1.51,4.78,1.35,5.2l1.45,1.04c.35-.56,1.35-2.8-1.19-7.18l-1.6.93Z"/><rect class="cls-1" x="184.58" y="73.83" width="1.85" height="9.74"/><path class="cls-1" d="m177.58,22.48c4,2.44,4.29,7.41,4.29,7.63h1.64c0-.19-.03-3.15-1.72-5.94-.72-1.18-1.74-2.33-3.18-3.23-.41-.26-.86-.49-1.34-.7l-.44-.19s-.2-.07-.3-.11c-.1-.03-.33-.11-.33-.11l-.14.87-.45,2.8.99.47c.26-.44.62-1.04.97-1.49Z"/><path class="cls-1" d="m182.91,42.46h0s0,0,0,0v-3.83h-1.07s-.21,1.16-.65,2.04c-4.28.22-7.77,1.45-9.25,1.95l-1.07-4.08c1.28.65,2.76.94,4.22.71,1.82-.29,3.42-1.27,4.51-2.76s1.52-3.32,1.24-5.14c-.28-1.81-1.29-3.3-2.84-4.19-1.41-.82-3.21-1.11-5.06-.81l.37,1.27h0l.16.53c1.34-.17,2.61.05,3.6.62,1.17.67,1.86,1.8,1.98,3.23.08.97-.11,1.95-.57,2.8-.77,1.43-2.11,2.37-3.68,2.62-1.87.29-3.78-.51-4.89-2.05l-1.13-3.98c.57-.46,1.93-.8,1.93-.8l-.17-1.04h-4.32l4.58,15.13s4.61-2.23,12.11-2.22Z"/><path class="cls-1" d="m168.19,64.69c0,.48.28,1.01.94,1.37.87.47,2.1.12,2.86-.81,1.27-1.55.83-3.92-1.12-6.28,0,0-1.87-1.97-1.67-4.51.09-1.15.3-2.52.87-4.11l1.61.79c-.48,1.3-.62,2.39-.64,3.28-.05,2.02,1.09,3.2,1.18,3.3,3.09,3.73,2.64,6.94,1.19,8.71-.9,1.1-2.18,1.7-3.43,1.7-.61,0-1.21-.14-1.75-.44-1.56-.85-2.27-2.52-1.73-4.05.38-1.06,1.43-2.01,3-2.06l.68,1.48s-1.82-.08-1.99,1.4c0,0-.02.1-.02.23Z"/><path class="cls-1" d="m202.83,64.69c0,.48-.28,1.01-.94,1.37-.87.47-2.1.12-2.86-.81-1.27-1.55-.83-3.92,1.12-6.28,0,0,1.87-1.97,1.67-4.51-.09-1.15-.3-2.52-.87-4.11l-1.61.79c.48,1.3.62,2.39.64,3.28.05,2.02-1.09,3.2-1.18,3.3-3.09,3.73-2.64,6.94-1.19,8.71.9,1.1,2.18,1.7,3.43,1.7.61,0,1.21-.14,1.75-.44,1.56-.85,2.27-2.52,1.73-4.05-.38-1.06-1.43-2.01-3-2.06l-.68,1.48s1.82-.08,1.99,1.4c0,0,.02.1.02.23Z"/><path class="cls-1" d="m193.48,52.52c-.57.27-1.22.58-1.96.63-1.06.08-1.54-.14-2.41-.59l.84-1.48c.66.34.93.43,1.43.39.4-.03.84-.24,1.31-.46,1.2-.57,3.21-1.52,4.8,1.7l-1.66.82c-.78-1.59-1.11-1.6-2.34-1.02Z"/><path class="cls-1" d="m191.01,73.84c-1.06,2.17-1.17,4.55-1.06,5.95l-1.65,1.19c-.2-1.22-.55-4.68,1.05-7.96l1.66.81Z"/><path class="cls-1" d="m195.44,71.6c-1.83,3.16-1.51,4.78-1.35,5.2l-1.45,1.04c-.35-.56-1.35-2.8,1.19-7.18l1.6.93Z"/><path class="cls-1" d="m188.11,42.46h0s0,0,0,0v-1.85s0-1.98,0-1.98h1.07s.21,1.16.65,2.04c4.28.22,7.77,1.45,9.25,1.95l1.07-4.08c-1.28.65-2.76.94-4.22.71-1.82-.29-3.42-1.27-4.51-2.76s-1.52-3.32-1.24-5.14c.28-1.81,1.29-3.3,2.84-4.19,1.41-.82,3.21-1.11,5.06-.81l-.37,1.27h0l-.16.53c-1.34-.17-2.61.05-3.6.62-1.17.67-1.86,1.8-1.98,3.23-.08.97.11,1.95.57,2.8.77,1.43,2.11,2.37,3.68,2.62,1.87.29,3.78-.51,4.89-2.05l1.13-3.98c-.57-.46-1.93-.8-1.93-.8l.17-1.04h4.32s-4.58,15.13-4.58,15.13c0,0-4.61-2.23-12.11-2.22Z"/><polygon class="cls-1" points="185.52 66.66 183.77 65.67 179.97 67.96 181.03 68.9 183.69 67.63 185.52 68.33 187.34 67.63 190 68.9 191.06 67.95 187.27 65.67 185.52 66.66"/><path class="cls-1" d="m184.62,51.16c-.05-.8-.11-1.76-.58-2.61-.81-1.45-2.66-3.69-4.46-2.84-4.25,1.99-5.91.41-5.98.35l-1.34,1.27c.1.11,2.55,2.66,8.1.06.27-.13,1.55.67,2.06,2.06.19.53.31,1.16.35,1.8l.16,4.66h0l.09,2.72-1.63.76.35,1.17,3.19-.55-.3-8.85Z"/><path class="cls-1" d="m186.4,51.16c.05-.8.11-1.76.58-2.61.81-1.45,2.66-3.69,4.46-2.84,4.25,1.99,5.91.41,5.98.35l1.34,1.27c-.1.11-2.55,2.66-8.1.06-.27-.13-1.55.67-2.06,2.06-.19.53-.31,1.16-.35,1.8l-.16,4.66h0l-.09,2.72,1.63.76-.35,1.17-3.19-.55.3-8.85Z"/></svg>