<svg width="296" height="52" viewBox="0 0 296 52" fill="none" xmlns="http://www.w3.org/2000/svg">
    <path d="M295.214 21.0453C294.681 21.0834 294.3 21.0834 293.652 21.0834C293.118 21.0834 292.623 21.0834 291.898 21.0453C291.822 21.0834 291.784 21.1215 291.746 21.2359C291.746 21.3121 291.746 21.4646 291.822 21.5027L292.089 21.5408C292.623 21.617 292.889 21.6933 292.966 21.8076C293.156 22.1126 293.271 23.1798 293.271 24.857V28.0206C293.271 28.2493 293.271 28.478 293.232 28.5543C292.699 27.9825 292.127 27.3726 291.403 26.5341C291.212 26.3435 291.022 26.1148 290.831 25.8861L289.383 24.2852V24.2471C287.896 22.6081 287.058 21.5027 286.867 21.0072V20.9691H286.829C286.638 21.0072 286.41 21.0072 286.143 21.0072C285.876 21.0072 285.075 21.0072 284.466 20.9691C284.389 21.0072 284.351 21.0453 284.351 21.1596C284.351 21.274 284.351 21.3883 284.427 21.4265L284.694 21.4646C285.114 21.5027 285.419 21.617 285.571 21.8076C285.876 22.1126 285.876 22.4175 285.876 22.8368V27.2583C285.876 28.0206 285.876 29.6596 285.685 30.1552C285.609 30.2695 285.419 30.3839 285.075 30.422L284.656 30.4601C284.618 30.4982 284.58 30.6126 284.58 30.6888C284.58 30.765 284.618 30.8794 284.694 30.9175H284.732C285.228 30.8794 285.647 30.8794 286.257 30.8794C286.791 30.8794 287.286 30.8794 288.01 30.9175H288.049C288.087 30.8794 288.125 30.8031 288.163 30.7269C288.163 30.6126 288.163 30.5363 288.087 30.4601V30.422L287.591 30.3839C287.21 30.3457 286.943 30.2695 286.867 30.117C286.714 29.8121 286.6 28.7448 286.6 27.0677V23.8278C286.6 23.4848 286.6 23.1417 286.638 22.9511C286.867 23.1798 287.286 23.7135 287.706 24.1709C287.934 24.4758 288.163 24.7426 288.315 24.8951L291.746 28.8211C292.889 30.117 293.423 30.765 293.652 31.07V31.1081H293.69C293.842 31.1081 293.995 31.0318 294.033 30.9175C293.995 30.7269 293.995 30.1552 293.995 28.3256V24.7807V24.5901C293.995 23.8278 293.995 22.2269 294.223 21.7695C294.262 21.6933 294.49 21.5789 295.024 21.5027L295.253 21.4646C295.291 21.3883 295.329 21.3121 295.329 21.1978C295.329 21.1596 295.291 21.0834 295.214 21.0453ZM281.492 28.7448C281.416 28.7067 281.302 28.7448 281.226 28.783H281.188C280.844 29.5072 280.425 30.0408 280.158 30.1933C279.815 30.3457 279.358 30.422 278.291 30.422C276.957 30.422 276.69 30.2695 276.537 30.117C276.309 29.8883 276.271 29.3928 276.271 28.5924V26.496C276.271 26.1529 276.271 26.1529 276.69 26.1529H277.566C278.1 26.1529 278.481 26.1529 278.71 26.2291C278.977 26.3054 279.091 26.5341 279.129 26.7628L279.282 27.3345V27.3727C279.358 27.4489 279.472 27.4489 279.549 27.4489C279.663 27.4489 279.701 27.4108 279.739 27.3345C279.739 27.1821 279.739 26.9915 279.701 26.8009C279.701 26.5341 279.663 26.2291 279.663 25.9242C279.663 25.6193 279.663 25.2762 279.701 25.0094C279.701 24.7807 279.739 24.5901 279.739 24.4377C279.701 24.3614 279.625 24.3233 279.549 24.3233C279.472 24.3233 279.32 24.3233 279.282 24.3996L279.167 25.0475C279.091 25.4287 278.977 25.4668 278.862 25.5049C278.71 25.5431 278.253 25.5812 277.605 25.5812H276.728C276.309 25.5812 276.309 25.5812 276.309 25.2V22.2269C276.309 21.6933 276.309 21.6933 276.69 21.6933H277.757C278.405 21.6933 278.862 21.6933 279.167 21.7695C279.892 21.9601 280.044 22.4175 280.235 23.0655L280.273 23.1417V23.1798C280.311 23.2179 280.387 23.2561 280.501 23.2561C280.578 23.2561 280.692 23.2179 280.73 23.1417L280.692 22.913C280.654 22.265 280.54 21.3502 280.463 21.1215V21.0834H280.425C280.235 21.1215 279.358 21.1215 278.443 21.1215H275.661C275.089 21.1215 274.593 21.1215 273.907 21.0834C273.831 21.1215 273.793 21.2359 273.793 21.3121C273.793 21.3502 273.793 21.5027 273.869 21.5408L274.136 21.5789C274.975 21.6933 274.975 21.8457 274.975 23.4085V28.7448C274.975 30.3076 274.898 30.4982 274.098 30.5363L273.602 30.5744C273.526 30.6507 273.526 30.765 273.526 30.8413C273.526 30.9175 273.564 30.9937 273.64 31.0318C274.555 30.9937 275.013 30.9937 275.661 30.9937H276.995C278.291 30.9937 279.625 30.9937 280.959 31.0318H280.997V30.9937C281.188 30.5744 281.569 29.4309 281.683 28.9354V28.8973C281.645 28.8211 281.569 28.783 281.492 28.7448ZM270.401 26.8771C269.867 26.9152 269.371 26.9152 268.8 26.9152C267.885 26.9152 267.084 26.9152 266.665 26.8771C266.589 26.9152 266.551 27.0296 266.551 27.1058C266.551 27.1821 266.589 27.2964 266.665 27.3345L267.351 27.4108C268.228 27.5251 268.266 27.5632 268.266 28.783V29.3547C268.266 29.8121 268.19 30.0789 268.114 30.1552C267.999 30.3457 267.504 30.5744 266.513 30.5744C263.806 30.5744 262.129 28.6305 262.129 25.5431C262.129 22.4175 264.34 21.3121 266.208 21.3121C267.923 21.3121 268.838 21.9601 269.219 23.3704C269.295 23.4466 269.448 23.4466 269.524 23.4466C269.6 23.4085 269.676 23.3704 269.714 23.3323C269.562 22.3413 269.486 21.617 269.486 21.1978V21.1215H269.41C269.257 21.1596 268.838 21.0453 268.571 21.0072H268.495C268.342 20.9691 267.504 20.7785 266.589 20.7785C264.531 20.7785 262.968 21.3502 261.862 22.5318C260.986 23.4466 260.528 24.7045 260.528 26.0767C260.528 27.4108 261.024 28.5924 261.901 29.5072C262.968 30.6126 264.569 31.1843 266.475 31.1843C267.351 31.1843 268.457 30.9556 269.143 30.8031C269.371 30.765 269.676 30.6888 269.867 30.6888C269.905 30.6507 269.943 30.6126 269.943 30.5744C269.943 30.5363 269.943 30.4601 269.905 30.4601C269.676 30.3839 269.6 30.0789 269.6 29.4691V28.6305C269.6 27.8682 269.638 27.487 270.172 27.4489L270.439 27.4108C270.515 27.3727 270.553 27.2583 270.515 27.1439C270.515 27.0296 270.477 26.9534 270.401 26.8771ZM251.838 22.0363C251.838 21.6552 251.838 21.617 252.753 21.617C254.468 21.617 255.078 22.8368 255.078 23.8278C255.078 24.6664 254.849 25.2381 254.353 25.6193C253.934 25.9623 253.324 26.0005 252.867 26.0005C252.105 26.0005 251.914 25.9623 251.876 25.9623C251.838 25.9242 251.838 25.7336 251.838 25.5049V22.0363ZM258.737 30.765C258.356 30.7269 257.975 30.5744 257.746 30.3457C256.717 29.4691 255.916 28.2112 254.773 26.4197C254.697 26.2673 254.658 26.191 254.697 26.1529C255.154 25.9623 256.564 25.2762 256.564 23.6372C256.564 22.4175 255.878 21.8076 255.306 21.5027C254.582 21.1215 253.629 21.0453 252.791 21.0453C251.457 21.0453 250.389 21.0834 249.475 21.1596H249.436C249.36 21.1978 249.322 21.274 249.322 21.3883C249.322 21.5027 249.36 21.617 249.398 21.6552L249.894 21.7314C250.427 21.8076 250.504 21.9601 250.504 23.4085V28.7448C250.504 30.3076 250.466 30.4601 249.665 30.5363L249.284 30.5744C249.208 30.6507 249.208 30.8031 249.208 30.8794C249.208 30.9556 249.246 31.0318 249.322 31.0318C250.084 30.9937 250.58 30.9937 251.19 30.9937C251.8 30.9937 252.333 30.9937 252.943 31.0318C252.981 30.9937 253.058 30.9175 253.058 30.8031C253.058 30.6888 253.058 30.5744 252.981 30.5363L252.638 30.4982C251.838 30.3839 251.8 30.2314 251.8 28.7067V26.839C251.8 26.5722 251.8 26.5722 252.448 26.5722C253.019 26.5722 253.248 26.7247 253.439 27.0296C253.667 27.3727 253.934 27.7919 254.201 28.1731C254.468 28.5924 254.697 28.9735 254.887 29.2404C255.878 30.6888 256.64 31.1462 258.013 31.1462C258.279 31.1462 258.546 31.1081 258.699 31.07C258.737 31.0318 258.775 30.9556 258.775 30.8794C258.813 30.8413 258.775 30.8031 258.737 30.765ZM246.082 28.7448C246.006 28.7067 245.892 28.7448 245.815 28.783H245.777C245.434 29.5072 245.015 30.0408 244.748 30.1933C244.405 30.3457 243.948 30.422 242.88 30.422C241.546 30.422 241.279 30.2695 241.127 30.117C240.898 29.8883 240.86 29.3928 240.86 28.5924V26.496C240.86 26.1529 240.86 26.1529 241.279 26.1529H242.156C242.69 26.1529 243.071 26.1529 243.3 26.2291C243.567 26.3054 243.681 26.5341 243.719 26.7628L243.871 27.3345V27.3727C243.948 27.4489 244.062 27.4489 244.138 27.4489C244.214 27.4489 244.291 27.4108 244.329 27.3345C244.329 27.1821 244.329 26.9915 244.291 26.8009C244.253 26.5341 244.253 26.2291 244.253 25.9242C244.253 25.6193 244.291 25.2762 244.291 25.0094C244.291 24.7807 244.329 24.5901 244.329 24.4377C244.291 24.3614 244.214 24.3233 244.138 24.3233C244.062 24.3233 243.91 24.3233 243.871 24.3996L243.719 25.0475C243.643 25.4287 243.567 25.4668 243.414 25.5049C243.262 25.5431 242.804 25.5812 242.156 25.5812H241.279C240.86 25.5812 240.86 25.5812 240.86 25.2V22.2269C240.86 21.6933 240.86 21.6933 241.241 21.6933H242.309C242.957 21.6933 243.414 21.6933 243.719 21.7695C244.443 21.9601 244.558 22.4175 244.786 23.0655L244.824 23.1417V23.1798C244.862 23.2179 244.939 23.2561 245.053 23.2561C245.129 23.2561 245.244 23.2179 245.282 23.1417L245.244 22.913C245.206 22.265 245.091 21.3502 245.015 21.1215L244.977 21.0834H244.939C244.786 21.1215 243.871 21.1215 242.957 21.1215H240.174C239.602 21.1215 239.107 21.1215 238.421 21.0834C238.344 21.1215 238.306 21.2359 238.306 21.3121C238.306 21.3502 238.306 21.5027 238.383 21.5408L238.649 21.5789C239.488 21.6933 239.488 21.8457 239.488 23.4085V28.7448C239.488 30.3076 239.412 30.4982 238.611 30.5363L238.116 30.5744C238.04 30.6507 238.04 30.765 238.04 30.8413C238.04 30.9175 238.078 30.9937 238.154 31.0318C239.069 30.9937 239.526 30.9937 240.174 30.9937H241.508C242.804 30.9937 244.138 30.9937 245.472 31.0318H245.51V30.9937C245.701 30.5744 246.082 29.4309 246.197 28.9354V28.8973C246.235 28.8211 246.158 28.783 246.082 28.7448ZM230.073 25.3525C230.035 25.3144 230.035 25.2 230.035 25.0475V22.0363C230.035 21.7695 230.073 21.7314 230.226 21.6933C230.34 21.6552 230.569 21.617 230.874 21.617C231.369 21.617 233.046 21.7695 233.046 23.561C233.046 24.8188 232.398 25.3525 230.759 25.3906C230.378 25.4287 230.149 25.4287 230.073 25.3525ZM231.445 30.4601C230.874 30.4601 230.531 30.3457 230.302 30.0789C230.035 29.774 229.997 29.0117 229.997 28.478V26.2673C229.997 26.0386 229.997 25.9242 230.797 25.9242C233.313 25.9242 233.694 27.487 233.694 28.4018C233.732 30.1933 232.284 30.4601 231.445 30.4601ZM233.161 25.5812C233.008 25.5431 232.932 25.5049 232.932 25.4668C233.694 25.1238 234.457 24.5901 234.457 23.4085C234.457 22.5318 234.037 21.8839 233.275 21.5027C232.551 21.1215 231.56 21.0834 230.759 21.0834C229.463 21.0834 228.434 21.1215 227.558 21.1978H227.519C227.443 21.2359 227.405 21.3121 227.405 21.4265C227.405 21.5408 227.443 21.617 227.519 21.6933L228.015 21.7314C228.625 21.7695 228.701 22.0363 228.701 23.1036V28.7448C228.701 30.3076 228.663 30.422 227.939 30.5363L227.672 30.5744C227.596 30.6507 227.596 30.765 227.596 30.8413C227.596 30.9175 227.634 30.9937 227.71 31.0318C227.901 31.0318 228.053 31.0318 228.244 31.0318C228.625 31.0318 228.968 30.9937 229.425 30.9937C229.768 30.9937 230.149 30.9937 230.454 31.0318C230.721 31.0318 230.988 31.0318 231.179 31.0318C233.732 31.0318 235.181 29.9646 235.181 28.0969C235.181 26.4197 233.847 25.6955 233.161 25.5812ZM218.6 21.5408L218.981 21.5027C219.058 21.4646 219.058 21.3121 219.058 21.274C219.058 21.1978 219.019 21.0834 218.943 21.0453C218.257 21.0834 217.723 21.0834 217.114 21.0834C216.466 21.0834 215.97 21.0834 215.246 21.0453C215.17 21.0834 215.131 21.1978 215.131 21.274C215.131 21.3121 215.132 21.4646 215.208 21.5027L215.589 21.5408C216.427 21.617 216.466 21.8076 216.466 23.3704V28.6686C216.466 30.2314 216.427 30.3839 215.589 30.4982L215.208 30.5363C215.132 30.6126 215.131 30.7269 215.131 30.8031C215.131 30.8794 215.17 30.9556 215.246 30.9937C215.97 30.9556 216.466 30.9556 217.114 30.9556C217.723 30.9556 218.219 30.9556 218.943 30.9937C219.019 30.9556 219.058 30.8413 219.058 30.765C219.058 30.7269 219.058 30.5744 218.981 30.5363L218.6 30.4982C217.762 30.3839 217.723 30.2314 217.723 28.6686V23.4085C217.723 21.8457 217.762 21.617 218.6 21.5408ZM206.86 20.6641C206.631 21.0453 206.517 21.0834 205.717 21.0834H199.656H199.618C198.932 21.0834 198.551 21.0453 198.513 20.6641C198.436 20.5879 198.208 20.626 198.17 20.6641H198.132V20.7022C198.017 21.274 197.827 22.2269 197.56 22.913V22.9511V22.9892C197.598 23.0655 197.674 23.1417 197.788 23.1417C197.865 23.1798 197.979 23.1417 198.017 23.1036C198.17 22.7605 198.322 22.4175 198.665 22.1126C199.008 21.8076 199.771 21.7695 200.457 21.7695H201.257C201.638 21.7695 201.638 21.7695 201.638 22.1888V28.8211C201.638 30.3839 201.562 30.5744 200.762 30.6126L200.228 30.6507H200.19C200.114 30.6888 200.075 30.8031 200.075 30.8794C200.075 30.9556 200.114 31.07 200.19 31.1081C201.105 31.07 201.638 31.07 202.248 31.07C202.82 31.07 203.315 31.07 204.192 31.1081C204.268 31.07 204.306 30.9556 204.306 30.8794C204.306 30.8413 204.306 30.6888 204.23 30.6507L203.735 30.6126C202.934 30.5363 202.896 30.3839 202.896 28.8211V22.1888C202.896 21.9982 202.896 21.8839 202.934 21.8076C202.972 21.7695 203.087 21.7695 203.277 21.7695H204.345C205.145 21.7695 205.717 21.8839 206.022 22.1507C206.174 22.265 206.288 22.6462 206.365 23.1798C206.403 23.2561 206.555 23.2561 206.632 23.2561C206.746 23.2561 206.822 23.2179 206.822 23.1417C206.784 22.6843 206.86 21.5027 207.051 20.8928V20.8547V20.8166C207.127 20.6641 206.936 20.626 206.86 20.6641ZM194.892 28.7448C194.815 28.7067 194.701 28.7448 194.625 28.783H194.587C194.244 29.5072 193.824 30.0408 193.558 30.1933C193.214 30.3457 192.757 30.422 191.69 30.422C190.356 30.422 190.089 30.2695 189.936 30.117C189.708 29.8883 189.67 29.3928 189.67 28.5924V26.496C189.67 26.1529 189.67 26.1529 190.089 26.1529H190.966C191.499 26.1529 191.88 26.1529 192.109 26.2291C192.376 26.3054 192.49 26.5341 192.528 26.7628L192.681 27.3345V27.3727C192.757 27.4489 192.871 27.4489 192.948 27.4489C193.062 27.4489 193.138 27.4108 193.138 27.3345C193.138 27.1821 193.138 26.9915 193.1 26.8009C193.1 26.5341 193.062 26.2291 193.062 25.9242C193.062 25.6193 193.1 25.2762 193.1 25.0094C193.1 24.7807 193.138 24.5901 193.138 24.4377C193.1 24.3614 193.024 24.3233 192.948 24.3233C192.871 24.3233 192.719 24.3233 192.681 24.3996L192.566 25.0475C192.49 25.4287 192.376 25.4668 192.262 25.5049C192.109 25.5431 191.652 25.5812 191.004 25.5812H190.127C189.708 25.5812 189.708 25.5812 189.708 25.2V22.2269C189.708 21.6933 189.708 21.6933 190.089 21.6933H191.156C191.804 21.6933 192.3 21.6933 192.605 21.7695C193.329 21.9601 193.481 22.4175 193.672 23.0655L193.71 23.1417V23.1798C193.748 23.2179 193.824 23.2561 193.939 23.2561C194.015 23.2561 194.129 23.2179 194.167 23.1417V22.913C194.091 22.265 194.015 21.3502 193.939 21.1215V21.0834H193.901C193.748 21.1215 192.833 21.1215 191.918 21.1215H189.136C188.564 21.1215 188.069 21.1215 187.383 21.0834C187.306 21.1215 187.268 21.2359 187.268 21.3121C187.268 21.3502 187.268 21.5027 187.345 21.5408L187.611 21.5789C188.45 21.6933 188.488 21.8457 188.488 23.4085V28.7448C188.488 30.3076 188.412 30.4982 187.611 30.5363L187.116 30.5744C187.04 30.6507 187.04 30.765 187.04 30.8413C187.04 30.9175 187.078 30.9937 187.154 31.0318C188.069 30.9937 188.526 30.9937 189.174 30.9937H190.508C191.804 30.9937 193.138 30.9937 194.472 31.0318H194.434V30.9937C194.625 30.5744 195.006 29.4309 195.12 28.9354V28.8973C195.082 28.8211 195.006 28.783 194.892 28.7448ZM183.647 20.6641C183.419 21.0453 183.304 21.0834 182.504 21.0834H176.443H176.405C175.719 21.0834 175.376 21.0453 175.3 20.6641C175.223 20.5879 174.995 20.626 174.957 20.6641H174.919V20.7022C174.804 21.274 174.575 22.2269 174.347 22.913V22.9511V22.9892C174.385 23.0655 174.461 23.1417 174.575 23.1417C174.652 23.1798 174.766 23.1417 174.804 23.1036C174.957 22.7605 175.109 22.4175 175.452 22.1126C175.795 21.8076 176.558 21.7695 177.244 21.7695H178.044C178.425 21.7695 178.425 21.7695 178.425 22.1888V28.8211C178.425 30.3839 178.349 30.5744 177.549 30.6126L177.015 30.6507H176.977C176.901 30.6888 176.862 30.8031 176.862 30.8794C176.862 30.9556 176.901 31.07 176.977 31.1081C177.892 31.07 178.425 31.07 179.035 31.07C179.607 31.07 180.102 31.07 180.979 31.1081C181.055 31.07 181.093 30.9556 181.093 30.8794C181.093 30.8413 181.093 30.6888 181.017 30.6507L180.522 30.6126C179.721 30.5363 179.683 30.3839 179.683 28.8211V22.1888C179.683 21.9982 179.683 21.8839 179.721 21.8076C179.759 21.7695 179.874 21.7695 180.064 21.7695H181.131C181.932 21.7695 182.504 21.8839 182.809 22.1507C182.961 22.265 183.075 22.6462 183.152 23.1798C183.19 23.2561 183.342 23.2561 183.419 23.2561C183.533 23.2561 183.609 23.2179 183.609 23.1417C183.571 22.6843 183.647 21.5027 183.838 20.8928V20.8547V20.8166C183.952 20.6641 183.762 20.626 183.647 20.6641ZM171.717 28.7448C171.64 28.7067 171.526 28.7448 171.45 28.783C171.107 29.5072 170.688 30.0408 170.421 30.1933C170.078 30.3457 169.62 30.422 168.553 30.422C167.219 30.422 166.952 30.2695 166.8 30.117C166.571 29.8883 166.533 29.3928 166.533 28.5924V26.496C166.533 26.1529 166.533 26.1529 166.952 26.1529H167.829C168.362 26.1529 168.744 26.1529 168.972 26.2291C169.239 26.3054 169.353 26.5341 169.392 26.7628L169.544 27.3345V27.3727C169.62 27.4489 169.735 27.4489 169.811 27.4489C169.887 27.4489 169.963 27.4108 170.001 27.3345C170.001 27.1821 170.001 26.9915 169.963 26.8009C169.963 26.5341 169.925 26.2291 169.925 25.9242C169.925 25.6193 169.963 25.2762 169.963 25.0094C169.963 24.7807 170.001 24.5901 170.001 24.4377C169.963 24.3614 169.887 24.3233 169.811 24.3233C169.735 24.3233 169.582 24.3233 169.544 24.3996L169.43 25.0475C169.353 25.4287 169.239 25.4668 169.125 25.5049C168.972 25.5431 168.515 25.5812 167.867 25.5812H166.99C166.571 25.5812 166.571 25.5812 166.571 25.2V22.2269C166.571 21.6933 166.571 21.6933 166.952 21.6933H168.019C168.667 21.6933 169.125 21.6933 169.43 21.7695C170.154 21.9601 170.306 22.4175 170.497 23.0655L170.535 23.1417V23.1798C170.573 23.2179 170.649 23.2561 170.764 23.2561C170.84 23.2561 170.954 23.2179 170.993 23.1417L170.954 22.913C170.916 22.265 170.802 21.3502 170.726 21.1215L170.688 21.0834H170.649C170.497 21.1215 169.582 21.1215 168.667 21.1215H165.885C165.313 21.1215 164.818 21.1215 164.132 21.0834C164.055 21.1215 164.017 21.2359 164.017 21.3121C164.017 21.3502 164.017 21.5027 164.093 21.5408L164.36 21.5789C165.199 21.6933 165.199 21.8457 165.199 23.4085V28.7448C165.199 30.3076 165.123 30.4982 164.322 30.5363L163.827 30.5744C163.75 30.6507 163.75 30.765 163.75 30.8413C163.75 30.9175 163.788 30.9937 163.865 31.0318C164.779 30.9937 165.237 30.9937 165.885 30.9937H167.219C168.515 30.9937 169.849 30.9937 171.183 31.0318H171.221V30.9937C171.412 30.5744 171.793 29.4309 171.907 28.9354V28.8973C171.907 28.8211 171.831 28.783 171.717 28.7448ZM160.472 20.6641C160.244 21.0453 160.167 21.0834 159.329 21.0834H153.268H153.23C152.544 21.0834 152.163 21.0453 152.125 20.6641C152.049 20.5879 151.82 20.626 151.782 20.6641H151.744V20.7022C151.629 21.274 151.439 22.2269 151.172 22.913V22.9511V22.9892C151.21 23.0655 151.286 23.1417 151.401 23.1417C151.477 23.1798 151.591 23.1417 151.629 23.1036C151.782 22.7605 151.934 22.4175 152.277 22.1126C152.62 21.8076 153.383 21.7695 154.069 21.7695H154.869C155.25 21.7695 155.25 21.7695 155.25 22.1888V28.8211C155.25 30.3839 155.174 30.5744 154.374 30.6126L153.84 30.6507H153.802C153.726 30.6888 153.688 30.8031 153.688 30.8794C153.688 30.9556 153.726 31.07 153.802 31.1081C154.717 31.07 155.25 31.07 155.86 31.07C156.432 31.07 156.927 31.07 157.804 31.1081C157.88 31.07 157.919 30.9556 157.919 30.8794C157.919 30.8413 157.918 30.6888 157.842 30.6507L157.347 30.6126C156.546 30.5363 156.508 30.3839 156.508 28.8211V22.1888C156.508 21.9982 156.508 21.8839 156.546 21.8076C156.584 21.7695 156.699 21.7695 156.889 21.7695H157.957C158.757 21.7695 159.329 21.8839 159.634 22.1507C159.786 22.265 159.901 22.6462 159.977 23.1798C160.015 23.2561 160.167 23.2561 160.244 23.2561C160.358 23.2561 160.434 23.2179 160.434 23.1417C160.396 22.6843 160.472 21.5027 160.663 20.8928V20.8547V20.8166C160.777 20.6641 160.587 20.626 160.472 20.6641ZM147.779 21.5408L148.161 21.5027C148.237 21.4646 148.237 21.3121 148.237 21.274C148.237 21.1978 148.199 21.0834 148.123 21.0453C147.436 21.0834 146.903 21.0834 146.293 21.0834C145.645 21.0834 145.149 21.0834 144.425 21.0453C144.349 21.0834 144.311 21.1978 144.311 21.274C144.311 21.3121 144.311 21.4646 144.387 21.5027L144.768 21.5408C145.607 21.617 145.607 21.8076 145.607 23.3704V28.6686C145.607 30.2314 145.569 30.3839 144.768 30.4982L144.387 30.5363C144.311 30.6126 144.311 30.7269 144.311 30.8031C144.311 30.8794 144.349 30.9556 144.425 30.9937C145.149 30.9556 145.645 30.9556 146.293 30.9556C146.903 30.9556 147.398 30.9556 148.123 30.9937C148.199 30.9556 148.237 30.8413 148.237 30.765C148.237 30.7269 148.237 30.5744 148.161 30.5363L147.779 30.4982C146.941 30.3839 146.941 30.2314 146.941 28.6686V23.4085C146.941 21.8457 146.979 21.617 147.779 21.5408ZM139.089 25.5431L137.907 24.8188C137.45 24.5139 136.688 23.904 136.688 23.0274C136.688 22.5318 136.84 21.4265 138.403 21.4265C139.737 21.4265 140.156 22.3031 140.385 23.0655V23.1036C140.423 23.1417 140.499 23.1798 140.575 23.1798C140.652 23.1798 140.804 23.1417 140.842 23.0655C140.842 22.4175 140.69 21.5789 140.575 21.2359V21.1978H140.537C140.423 21.1978 140.232 21.1596 140.042 21.1215C139.699 21.0072 139.127 20.9309 138.632 20.9309C136.802 20.9309 135.544 21.9982 135.544 23.5229C135.544 24.7807 136.421 25.6193 137.183 26.1148L138.593 27.0296C139.623 27.7157 139.775 28.4018 139.775 29.0498C139.775 29.8883 139.203 30.6888 137.984 30.6888C136.459 30.6888 135.773 29.5072 135.506 28.5161C135.468 28.478 135.392 28.4399 135.315 28.4399C135.201 28.4399 135.087 28.478 135.049 28.5543C135.087 29.2022 135.277 30.3076 135.468 30.6507C135.773 30.8031 136.573 31.2224 137.831 31.2224C139.775 31.2224 141.033 30.0789 141.033 28.4018C140.995 27.2583 140.385 26.3054 139.089 25.5431ZM125.405 22.0363C125.405 21.6552 125.405 21.617 126.32 21.617C128.035 21.617 128.645 22.8368 128.645 23.8278C128.645 24.6664 128.416 25.2381 127.921 25.6193C127.501 25.9623 126.892 26.0005 126.434 26.0005C125.672 26.0005 125.481 25.9623 125.443 25.9623C125.405 25.9242 125.405 25.7336 125.405 25.5049V22.0363ZM132.266 30.765C131.885 30.7269 131.504 30.5744 131.275 30.3457C130.246 29.4691 129.407 28.2112 128.302 26.4197C128.226 26.2673 128.188 26.191 128.226 26.1529C128.683 25.9623 130.093 25.2762 130.093 23.6372C130.093 22.4175 129.407 21.8076 128.836 21.5027C128.111 21.1215 127.158 21.0453 126.32 21.0453C124.986 21.0453 123.918 21.0834 123.004 21.1596H122.966C122.889 21.1978 122.851 21.274 122.851 21.3883C122.851 21.5027 122.889 21.617 122.966 21.6552L123.461 21.7314C123.995 21.8076 124.071 21.9601 124.071 23.4085V28.7448C124.071 30.3076 124.033 30.4601 123.232 30.5363L122.851 30.5744C122.775 30.6507 122.775 30.8031 122.775 30.8794C122.775 30.9556 122.813 31.0318 122.889 31.0318C123.652 30.9937 124.185 30.9937 124.757 30.9937C125.405 30.9937 125.939 30.9937 126.51 31.0318C126.549 30.9937 126.625 30.9175 126.625 30.8031C126.625 30.6888 126.625 30.5744 126.549 30.5363L126.206 30.4982C125.367 30.3839 125.367 30.2314 125.367 28.7067V26.839C125.367 26.5722 125.367 26.5722 126.015 26.5722C126.587 26.5722 126.815 26.7247 127.006 27.0296C127.235 27.3727 127.501 27.7919 127.768 28.1731C128.035 28.5924 128.264 28.9735 128.454 29.2404C129.445 30.6888 130.208 31.1462 131.58 31.1462C131.847 31.1462 132.114 31.1081 132.266 31.07H132.304C132.342 31.0318 132.38 30.9556 132.38 30.8794C132.38 30.8413 132.342 30.8031 132.266 30.765ZM119.649 28.7448C119.573 28.7067 119.459 28.7448 119.383 28.783H119.345C119.001 29.5072 118.582 30.0408 118.315 30.1933C117.972 30.3457 117.515 30.422 116.448 30.422C115.114 30.422 114.847 30.2695 114.694 30.117C114.466 29.8883 114.427 29.3928 114.427 28.5924V26.496C114.427 26.1529 114.427 26.1529 114.847 26.1529H115.723C116.257 26.1529 116.638 26.1529 116.867 26.2291C117.134 26.3054 117.248 26.5341 117.286 26.7628L117.439 27.3345V27.3727C117.515 27.4489 117.629 27.4489 117.705 27.4489C117.782 27.4489 117.858 27.4108 117.896 27.3345C117.896 27.1821 117.896 26.9915 117.858 26.8009C117.82 26.5341 117.82 26.2291 117.82 25.9242C117.82 25.6193 117.858 25.2762 117.858 25.0094C117.858 24.7807 117.896 24.5901 117.896 24.4377C117.858 24.3614 117.782 24.3233 117.705 24.3233C117.629 24.3233 117.515 24.3233 117.439 24.3996L117.286 25.0475C117.21 25.4287 117.134 25.4668 116.981 25.5049C116.829 25.5431 116.371 25.5812 115.723 25.5812H114.847C114.427 25.5812 114.427 25.5812 114.427 25.2V22.2269C114.427 21.6933 114.427 21.6933 114.809 21.6933H115.876C116.524 21.6933 116.981 21.6933 117.286 21.7695C118.01 21.9601 118.163 22.4175 118.353 23.0655L118.392 23.1417V23.1798C118.43 23.2179 118.506 23.2561 118.62 23.2561C118.697 23.2561 118.811 23.2179 118.849 23.1417L118.811 22.913C118.773 22.265 118.658 21.3502 118.582 21.1215L118.544 21.0834H118.506C118.353 21.1215 117.439 21.1215 116.524 21.1215H113.741C113.17 21.1215 112.674 21.1215 111.988 21.0834C111.912 21.1215 111.874 21.2359 111.874 21.3121C111.874 21.3502 111.874 21.5027 111.95 21.5408L112.217 21.5789C113.055 21.6933 113.055 21.8457 113.055 23.4085V28.7448C113.055 30.3076 112.979 30.4982 112.179 30.5363L111.683 30.5744C111.607 30.6507 111.607 30.765 111.607 30.8413C111.607 30.9175 111.645 30.9937 111.721 31.0318C112.636 30.9937 113.093 30.9937 113.741 30.9937H115.075C116.371 30.9937 117.706 30.9937 119.04 31.0318H119.078V30.9937C119.268 30.5744 119.649 29.4309 119.764 28.9354V28.8973C119.802 28.8211 119.726 28.783 119.649 28.7448ZM108.862 21.0453C108.367 21.0834 107.91 21.0834 107.414 21.0834C106.842 21.0834 106.271 21.0834 105.889 21.0453C105.813 21.0834 105.775 21.1596 105.775 21.274C105.775 21.3883 105.813 21.4646 105.851 21.5027L106.118 21.5408C106.69 21.617 106.728 21.7314 106.728 21.7695C106.728 21.8839 106.728 22.0363 106.614 22.3413C106.347 22.9892 105.661 24.7045 105.241 25.6574C105.127 25.8861 105.013 26.2291 104.86 26.5722C104.555 27.2964 104.174 28.1731 103.869 28.8592C103.145 27.1821 102.497 25.5431 101.811 23.8659C101.353 22.7605 101.125 21.9601 101.087 21.8076C101.087 21.7314 101.201 21.6552 101.735 21.5789L101.963 21.5408C102.04 21.5027 102.04 21.3883 102.04 21.3121C102.04 21.1978 102.001 21.1215 101.925 21.0834C101.277 21.1215 100.744 21.1215 100.134 21.1215C99.5239 21.1215 99.0284 21.1215 98.6091 21.0834H98.571C98.4948 21.1215 98.4566 21.1978 98.4566 21.3121C98.4566 21.4265 98.4947 21.5027 98.5328 21.5408L98.7997 21.5789C99.4095 21.6552 99.6383 21.922 99.9432 22.7605L102.573 29.2022C102.802 29.7359 103.069 30.4982 103.259 31.1843V31.2224H103.297C103.374 31.2605 103.45 31.2605 103.526 31.2605C103.602 31.2605 103.679 31.2224 103.717 31.2224C103.984 30.422 104.708 28.6686 105.241 27.3345L106.042 25.5049C106.728 23.904 107.3 22.7605 107.681 22.1126C107.871 21.8076 108.1 21.6552 108.405 21.617L108.862 21.5789C108.939 21.5027 108.939 21.3883 108.939 21.3121C108.977 21.1596 108.939 21.0834 108.862 21.0453ZM94.8737 21.5408L95.2548 21.5027C95.331 21.4646 95.3311 21.3121 95.3311 21.274C95.3311 21.1978 95.2929 21.0834 95.2167 21.0453C94.5306 21.0834 93.997 21.0834 93.3871 21.0834C92.7392 21.0834 92.2436 21.0834 91.5194 21.0453C91.4432 21.0834 91.4051 21.1978 91.4051 21.274C91.4051 21.3121 91.4051 21.4646 91.4813 21.5027L91.8624 21.5408C92.701 21.617 92.701 21.8076 92.701 23.3704V28.6686C92.701 30.2314 92.6629 30.3839 91.8624 30.4982L91.4813 30.5363C91.4051 30.6126 91.4051 30.7269 91.4051 30.8031C91.4051 30.8794 91.4432 30.9556 91.5194 30.9937C92.2436 30.9556 92.7392 30.9556 93.3871 30.9556C93.997 30.9556 94.4925 30.9556 95.2167 30.9937C95.2929 30.9556 95.3311 30.8413 95.3311 30.765C95.3311 30.7269 95.331 30.5744 95.2548 30.5363L94.8737 30.4982C94.0351 30.3839 93.997 30.2314 93.997 28.6686V23.4085C93.997 21.8457 94.0351 21.617 94.8737 21.5408ZM87.9364 21.0453C87.4409 21.0834 87.0598 21.0834 86.4118 21.0834C85.8782 21.0834 85.3826 21.0834 84.6584 21.0453C84.5822 21.0834 84.5441 21.1215 84.5441 21.2359C84.5441 21.3121 84.5441 21.4646 84.6203 21.5027L84.8871 21.5408C85.4207 21.617 85.6876 21.6933 85.7638 21.8076C85.9544 22.1126 86.0306 23.1798 86.0306 24.857V28.0206C86.0306 28.2493 86.0306 28.478 85.9925 28.5543C85.4589 27.9825 84.8871 27.3726 84.1629 26.5341C83.9723 26.3435 83.7817 26.1148 83.5911 25.8861L82.1427 24.2852L82.1046 24.2471C80.6181 22.6081 79.7795 21.5027 79.5889 21.0072V20.9691H79.5508C79.3602 21.0072 79.1315 21.0072 78.8647 21.0072C78.5978 21.0072 77.7974 21.0072 77.1876 20.9691C77.1113 21.0072 77.0732 21.0453 77.0732 21.1596C77.0732 21.274 77.0732 21.3883 77.1494 21.4265L77.4163 21.4646C77.8356 21.5027 78.1405 21.617 78.2929 21.8076C78.5979 22.1126 78.5979 22.4175 78.5979 22.8368V27.2583C78.5979 28.0206 78.5979 29.6596 78.4073 30.1552C78.3692 30.2695 78.1405 30.3839 77.7974 30.422L77.3781 30.4601C77.34 30.4982 77.3019 30.6126 77.3019 30.6888C77.3019 30.765 77.34 30.8794 77.4163 30.9175C77.9118 30.8794 78.3311 30.8794 78.9791 30.8794C79.5127 30.8794 80.0082 30.8794 80.6943 30.9175H80.7324C80.7705 30.8794 80.8467 30.8031 80.8467 30.7269C80.8467 30.6126 80.8467 30.5363 80.7705 30.4601V30.422L80.275 30.3839C79.8939 30.3457 79.627 30.2695 79.5508 30.117C79.3983 29.8121 79.2839 28.7448 79.2839 27.0677V23.8278C79.2839 23.4848 79.284 23.1417 79.3221 22.9511C79.5508 23.1798 80.0082 23.7135 80.3894 24.1709C80.6181 24.4758 80.8468 24.7426 80.9992 24.8951L84.4297 28.8211C85.5732 30.117 86.1068 30.765 86.3355 31.07L86.3736 31.1081H86.4118C86.6024 31.1081 86.7167 31.0318 86.7548 30.9175C86.7167 30.7269 86.7167 30.1552 86.7167 28.3256V24.7807V24.5901C86.7167 23.8278 86.7167 22.2269 86.9454 21.7695C86.9835 21.6933 87.2122 21.5789 87.7458 21.5027L87.9746 21.4646C88.0508 21.3883 88.0508 21.3121 88.0508 21.1978C88.0508 21.1596 88.0127 21.0834 87.9364 21.0453ZM73.9096 21.0453C73.3759 21.0834 72.9566 21.0834 72.3468 21.0834C71.775 21.0834 71.2414 21.0834 70.6696 21.0453H70.6315C70.5934 21.0834 70.5172 21.1596 70.5172 21.2359C70.5172 21.3502 70.5171 21.4265 70.5934 21.4646V21.5027L70.9746 21.5408C71.3176 21.5789 71.5844 21.6552 71.6606 21.8076C71.8512 22.1126 71.9275 23.2179 71.9275 24.857V26.5722C71.9275 29.774 70.3266 30.4601 68.9925 30.4601C66.9723 30.4601 66.0194 29.2022 66.0194 26.5341V23.3323C66.0194 21.8076 66.0575 21.5789 66.858 21.5027L67.2391 21.4646C67.2773 21.4265 67.3153 21.3502 67.3153 21.2359C67.3153 21.1596 67.2772 21.0453 67.201 21.0072C66.5149 21.0453 65.9813 21.0453 65.3714 21.0453C64.7616 21.0453 64.2279 21.0453 63.5418 21.0072C63.4656 21.0453 63.4275 21.1596 63.4275 21.2359C63.4275 21.3502 63.4656 21.4265 63.5037 21.4646L63.8849 21.5027C64.6853 21.5789 64.7234 21.7695 64.7234 23.3323V26.839C64.7234 28.6305 65.1046 29.6978 65.905 30.3839C66.553 30.9556 67.506 31.2224 68.7257 31.2224C69.8692 31.2224 70.9746 30.8031 71.5844 30.117C72.3087 29.3547 72.6517 28.1731 72.6517 26.5341V24.857C72.6517 24.0184 72.6517 22.3413 72.8423 21.8457C72.9185 21.6552 73.1853 21.5408 73.5284 21.5027L73.9096 21.4646V21.4265C73.9477 21.3502 73.9857 21.274 73.9857 21.1596C74.0239 21.1596 73.9858 21.0834 73.9096 21.0453Z" fill="#060400"/>
    <path d="M30.7998 34.4238C30.533 34.157 30.19 34.2332 30.19 34.2332C30.2281 34.0426 30.19 33.9664 30.19 33.852C30.2662 33.852 30.3806 33.852 30.3806 33.6996C30.3806 33.5471 30.1518 33.5852 30.1518 33.5852C30.1137 33.3184 30.0756 33.1659 29.9613 32.9372C30.3424 32.9753 30.5711 33.0516 30.7236 33.3184C30.9142 33.5852 30.9523 34.0807 30.7998 34.4238ZM30.3043 35.5673C30.0756 35.7197 29.8469 35.7578 29.7707 35.7197C29.8088 35.7197 29.9994 35.5673 30.1137 35.3386C30.2281 35.0336 30.19 34.5762 30.19 34.5762C30.19 34.5762 30.5711 34.5381 30.6474 34.8049C30.6855 35.0717 30.533 35.4148 30.3043 35.5673ZM28.5891 34.6143C28.6272 34.1951 28.7034 34.0426 28.7034 34.0426C28.7034 34.0426 28.7797 33.9282 28.894 33.9282C29.0465 33.9282 29.1608 33.852 29.1608 33.7377C29.1608 33.5852 28.7796 33.6233 28.7796 33.6233C28.7796 33.6233 28.894 33.1278 28.5891 32.556C28.7415 32.4417 28.9702 32.4417 29.2752 32.5179C29.7325 32.7848 29.885 34.1188 29.6944 34.7287C29.3514 34.2332 28.7797 34.4238 28.5891 34.6143ZM28.3222 33.7758C28.3222 33.7758 28.1698 33.6614 27.9411 33.6233C27.6362 33.5852 27.6361 33.8139 27.8267 33.8901C28.0173 33.9282 28.1698 34.0045 28.246 34.1569C28.246 34.4238 28.1698 34.843 28.1698 34.843C27.903 34.5 27.4455 34.5 27.1787 34.8049C26.9881 34.0045 27.1788 33.7377 27.5218 33.204C27.8268 32.7466 27.8267 32.7466 27.903 32.7085C27.9792 32.6704 28.1698 32.6704 28.1698 32.6704C28.1698 32.6704 28.3985 32.8229 28.3985 33.2421C28.3985 33.6233 28.3222 33.7758 28.3222 33.7758ZM25.3111 34.8049C25.0442 34.5 24.5868 34.5 24.32 34.843C24.32 34.843 24.2438 34.4238 24.2056 34.1569C24.32 34.0045 24.4344 33.9664 24.6631 33.8901C24.8537 33.852 24.8155 33.5852 24.5106 33.6233C24.2819 33.6614 24.1294 33.7758 24.1294 33.7758C24.1294 33.7758 24.0532 33.5852 24.0913 33.204C24.0913 32.7847 24.32 32.6323 24.32 32.6323C24.32 32.6323 24.4725 32.6704 24.5868 32.6704C24.6631 32.7085 24.663 32.6704 24.968 33.1659C25.2729 33.6995 25.5016 33.9664 25.3111 34.8049ZM22.7191 34.7668C22.5666 34.1188 22.7191 32.7847 23.1384 32.556C23.4052 32.4798 23.672 32.4798 23.8245 32.5942C23.5577 33.1659 23.6339 33.6614 23.6339 33.6614C23.6339 33.6614 23.2527 33.6233 23.2527 33.7758C23.2527 33.8901 23.3671 33.9664 23.5196 33.9664C23.672 33.9664 23.7102 34.0807 23.7102 34.0807C23.7102 34.0807 23.7864 34.2332 23.8245 34.6525C23.672 34.4238 23.1003 34.2332 22.7191 34.7668ZM22.6429 35.7197C22.5666 35.7578 22.3379 35.7578 22.1092 35.5673C21.9187 35.4148 21.7281 35.0717 21.8043 34.8049C21.8805 34.5762 22.2617 34.5762 22.2617 34.5762C22.2617 34.5762 22.1855 34.9955 22.3379 35.3386C22.4142 35.5673 22.6429 35.7197 22.6429 35.7197ZM21.69 33.2803C21.8424 32.9753 22.0711 32.8991 22.4523 32.8991C22.376 33.1278 22.2998 33.2803 22.2617 33.5471C22.2617 33.5471 21.9949 33.509 22.033 33.6614C22.033 33.8139 22.1855 33.8139 22.2236 33.8139C22.2236 33.9664 22.1855 34.0045 22.2236 34.1951C22.2236 34.1951 21.8806 34.1188 21.6137 34.3857C21.5375 34.0807 21.5375 33.5852 21.69 33.2803ZM28.6653 36.139C28.6653 36.1009 28.8559 35.9103 28.8559 35.5291C28.8559 35.1861 28.7034 34.9955 28.7034 34.9955C28.7034 34.9955 28.8559 34.7668 29.1608 34.8812C29.4657 34.9955 29.4276 35.2242 29.4276 35.3004C29.4276 35.8722 28.7796 36.1009 28.6653 36.139ZM28.0555 36.139C27.7505 36.0628 27.4456 35.7197 27.3312 35.5291C27.255 35.3386 27.2931 35.0718 27.4837 34.9955C27.7505 34.8812 27.9411 35.1099 27.9411 35.2623C27.8268 35.9484 28.0555 36.139 28.0555 36.139ZM25.1586 35.5291C25.0442 35.7578 24.7393 36.0628 24.4343 36.139H24.3962C24.3962 36.139 24.6249 35.9484 24.5487 35.3004C24.5487 35.148 24.7012 34.9193 25.0061 35.0336C25.1586 35.0718 25.2348 35.3386 25.1586 35.5291ZM23.024 35.2623C23.024 35.1861 23.0241 34.9574 23.2909 34.843C23.5958 34.7287 23.7483 34.9574 23.7483 34.9574C23.7483 34.9574 23.5958 35.148 23.5958 35.491C23.5958 35.8722 23.7864 36.0628 23.7864 36.0628V36.1009C23.672 36.1009 23.024 35.8722 23.024 35.2623ZM19.4411 23.0269C19.5935 22.9126 19.7841 22.7601 19.8603 22.6457C19.9747 22.5314 20.0509 22.4552 20.0509 22.4552C20.0509 22.4552 20.2034 22.417 20.2415 22.417C20.2797 22.417 20.2796 22.4552 20.2796 22.4552C20.2796 22.4552 20.1272 22.7601 19.9366 23.065C19.746 23.37 19.5554 23.4843 19.5554 23.4843C19.5173 23.4843 19.403 23.4843 19.3267 23.3318C19.2505 23.2556 19.3267 23.1413 19.4411 23.0269ZM19.5173 20.3969C19.5173 20.3969 20.394 19.9395 20.6989 19.4821C21.042 19.0628 21.3088 18.4148 21.3469 18.3386C21.385 18.2623 21.5375 18.1861 21.5375 18.3767C21.4994 18.5291 21.1182 19.7108 20.8133 20.0919C20.5464 20.4731 19.8223 20.8543 19.7079 20.8924C19.5173 20.778 19.4792 20.5112 19.5173 20.3969ZM20.0891 18.796C20.0891 18.6054 20.1272 18.2242 20.2034 18.0717C20.2415 18.0336 20.2796 17.9955 20.3178 17.9955C20.3559 18.0336 20.3559 18.1099 20.3559 18.148C20.3559 18.2623 20.4702 19.0628 20.4702 19.0628C20.4702 19.0628 20.4702 19.139 20.3178 19.2152C20.1653 19.2915 20.0891 19.2915 20.0509 19.2534C20.1272 19.2534 20.0509 18.9865 20.0891 18.796ZM20.6227 13.917C20.6989 13.8789 20.8895 13.9933 21.042 14.0314C21.1182 14.0314 21.1945 13.917 21.1945 13.8789C21.1945 13.8027 21.2325 13.8408 20.8133 13.6121C20.6989 13.5359 20.6989 13.3072 20.8133 13.1928C20.8895 13.1166 21.0038 13.2309 21.0801 13.3072C21.1563 13.3834 21.3088 13.4596 21.3469 13.4596C21.385 13.4215 21.4613 13.2309 21.4231 13.1928C21.385 13.0785 21.1182 13.0022 21.042 12.8498C21.0039 12.7354 21.042 12.6211 21.1182 12.5067C21.1563 12.4305 21.385 12.3543 21.4994 12.3161C21.6137 12.278 22.1474 12.4305 22.2236 12.5067C22.3379 12.6211 22.3379 12.7354 22.4523 13.0022C22.5666 13.2309 22.7191 13.4215 22.7953 13.4978C22.8716 13.6121 22.5285 13.7646 22.4142 13.6883C22.2236 13.574 22.0711 13.4596 21.9568 13.3453C21.8043 13.2309 21.7281 13.4596 21.7662 13.5359C21.8043 13.6502 21.8805 13.7646 22.1092 13.917C22.2617 14.0314 22.2617 14.0695 22.1855 14.1839C22.1473 14.2982 22.0711 14.4888 22.033 14.6794C21.9949 14.7937 21.9568 14.8318 21.8806 14.8318C21.1563 14.6794 20.8133 14.87 20.8133 14.9843C20.8133 15.0987 21.0801 15.0605 21.385 15.0987C21.8043 15.1749 21.7662 15.213 21.8424 15.2511C22.033 15.4417 22.033 15.8991 22.033 15.9372C21.9949 16.0134 21.8805 16.0516 21.6518 16.2422C21.4231 16.3946 21.4231 16.4709 21.4231 16.6614C21.4231 16.852 21.5375 16.8901 21.6518 16.6996C21.7662 16.509 22.0711 16.2803 22.2236 16.2422C22.3761 16.204 22.5285 16.3946 22.5285 16.3946C22.5285 16.3946 22.5666 16.4327 22.4523 16.5852C22.1855 16.852 22.1092 17.1951 22.1855 17.2332C22.2617 17.2713 22.2617 17.1569 22.4523 16.8901C22.6429 16.6233 22.7953 16.5852 22.7953 16.5852C22.7953 16.5852 22.9478 16.6233 23.1003 16.6614C23.2909 16.6996 23.4052 16.8139 23.4052 16.8139C23.4052 16.8139 23.2527 17.8812 23.4433 17.9193C23.5958 17.9193 23.672 16.8901 23.8245 16.8901C23.977 16.8901 24.0532 17.1951 24.1294 17.1951C24.2057 17.1951 24.1294 16.7758 24.2056 16.7377C24.4725 16.6614 24.625 16.509 24.7774 16.3565C24.9299 16.204 25.0824 16.3184 25.0824 16.3184C25.0824 16.3184 25.0823 16.852 25.0061 16.8139C24.9299 16.7758 24.9299 16.6614 24.8155 16.7377C24.7012 16.8139 24.9299 17.2332 25.0061 17.3475C25.0823 17.4619 25.0823 17.6143 24.8918 17.5C24.7012 17.3857 24.6631 17.0426 24.5868 17.2332C24.5106 17.4619 24.625 17.6906 24.7774 17.843C24.9299 17.9574 25.0824 17.9955 25.0824 17.9955C25.0824 17.9955 25.1586 18.2242 25.0442 18.3386C24.8155 18.5291 24.6631 18.5291 24.6631 18.5291C24.6631 18.5291 24.2819 18.1099 24.2438 17.6525C24.1676 17.6143 24.1294 17.6906 24.1294 17.8049C24.0913 18.0717 24.1675 18.6435 24.0532 18.6816C23.977 18.7197 23.7101 18.7197 23.5196 18.7197C23.3671 18.7197 23.2908 18.6435 23.2527 18.5291C23.2146 18.4148 23.2527 18.2242 23.2146 18.2242C23.1384 18.1861 23.0622 18.3004 22.9859 18.4529C22.9478 18.6054 22.9097 18.6054 22.7572 18.6054C22.681 18.6054 22.5666 18.5673 22.3761 18.4529C22.1474 18.3004 22.5285 17.6143 22.6047 17.4619C22.681 17.3094 22.6047 17.2713 22.4523 17.4238C22.2998 17.5762 22.1092 17.9574 22.0711 18.0717C22.033 18.1861 21.9186 18.1861 21.7662 18.0717C21.6137 17.9574 21.4231 17.9193 21.3088 17.6906C21.2326 17.4619 21.2707 17.3856 21.3469 17.2713C21.4231 17.1569 21.385 17.1188 21.3469 17.1188C21.3088 17.1188 21.1945 17.2332 21.1945 17.2332C21.1945 17.2332 21.0801 17.2713 21.042 17.1569C20.8133 16.852 20.7751 16.3565 20.8133 16.2422C20.8133 16.0897 21.1182 16.0135 21.2707 15.9753C21.4231 15.9372 21.4613 15.7085 21.3088 15.7085C21.1563 15.7085 21.0801 15.7085 20.8895 15.7466C20.6989 15.7848 20.6608 15.2511 20.6227 14.8318C20.4702 14.2601 20.5465 13.9552 20.6227 13.917ZM20.2796 10.6771C20.2796 10.4484 20.3559 10.1435 20.394 10.1054C20.4321 10.0291 20.4321 10.0673 20.5846 10.3722C20.6989 10.6009 20.9276 10.7534 21.1182 10.7915C21.4231 10.8677 21.6518 10.7915 22.2236 10.8677C22.7953 10.9439 23.024 11.2108 23.2527 11.4395C23.5195 11.7063 23.9007 11.935 23.8626 11.9731C23.7864 12.0493 23.4814 12.0112 23.1384 11.6682C22.8716 11.4395 22.681 11.3632 22.6047 11.4776C22.4904 11.63 23.1384 12.1256 23.1003 12.2018C23.024 12.278 22.681 11.8969 22.5667 11.9731C22.5285 12.0112 22.5285 12.0874 22.5667 12.1256C22.6048 12.2018 22.7572 12.4305 22.681 12.5067C22.6048 12.583 22.4523 12.3543 22.3761 12.2018C22.2617 12.0493 22.0711 12.0112 21.9186 12.0112C21.8043 12.0112 21.2707 12.0112 20.8133 11.7063C20.394 11.3251 20.3177 10.9439 20.2796 10.6771ZM24.3962 10.6009C24.8155 10.4865 25.1967 10.7915 25.2348 10.9821C25.1967 11.0964 25.1204 11.0964 24.968 11.0583C24.7011 10.9439 24.3581 10.9821 24.2056 11.4013C24.1675 11.4776 24.0913 11.4776 23.9769 11.4395C23.8626 11.2489 23.9388 10.7534 24.3962 10.6009ZM25.3872 11.6682C25.3491 11.7825 25.2729 11.8587 25.1586 11.7825C24.968 11.6682 24.7393 11.7444 24.7012 11.9731C24.6631 12.0874 24.5868 12.1256 24.4343 12.0493C24.32 11.8969 24.3581 11.4776 24.7012 11.3632C25.0061 11.287 25.311 11.4776 25.3872 11.6682ZM26.2258 10.4103C26.4926 10.4103 26.8738 10.5628 26.9119 10.9439C26.8738 11.0964 26.7595 11.0964 26.6833 11.0202C26.5689 10.9058 26.4164 10.7915 26.1877 10.7915C25.959 10.7915 25.8066 10.8677 25.7303 11.0202C25.6541 11.0964 25.5397 11.1345 25.5016 10.9439C25.5778 10.5628 25.959 10.4103 26.2258 10.4103ZM27.7505 11.4013C28.0554 11.5157 28.1316 11.935 28.0173 12.0874C27.8648 12.1637 27.7886 12.1256 27.7505 12.0112C27.6743 11.7825 27.4837 11.7063 27.2931 11.8206C27.2168 11.8587 27.1025 11.8206 27.0644 11.7063C27.1787 11.4776 27.4456 11.287 27.7505 11.4013ZM28.0555 10.6009C28.5128 10.7152 28.5891 11.2489 28.4747 11.4395C28.3604 11.4776 28.2841 11.4776 28.246 11.4013C28.0935 10.9821 27.7124 10.9439 27.4837 11.0583C27.3312 11.1345 27.255 11.0964 27.2169 10.9821C27.2931 10.7915 27.6362 10.4865 28.0555 10.6009ZM29.1608 11.4013C29.3895 11.2108 29.6182 10.9058 30.19 10.8296C30.7617 10.7534 30.9904 10.8296 31.2953 10.7534C31.4859 10.7152 31.7527 10.5628 31.829 10.3341C31.9814 10.0291 31.9814 9.99103 32.0196 10.0673C32.0577 10.1435 32.172 10.4103 32.1339 10.639C32.1339 10.8677 32.0195 11.287 31.6003 11.5919C31.181 11.8969 30.6474 11.8969 30.4949 11.8969C30.3043 11.8969 30.1518 11.935 30.0375 12.0874C29.9231 12.2399 29.8088 12.4686 29.7325 12.3924C29.6563 12.3161 29.8088 12.0874 29.8469 12.0112C29.885 11.9731 29.885 11.8969 29.8469 11.8587C29.7326 11.7825 29.3895 12.1637 29.3132 12.0874C29.237 12.0112 29.885 11.5157 29.8088 11.3632C29.7325 11.2489 29.5038 11.3251 29.2752 11.5538C28.894 11.8969 28.6272 11.935 28.5509 11.8587C28.5128 11.8969 28.894 11.6682 29.1608 11.4013ZM31.9433 14.6794C31.9433 15.0987 31.9052 15.6323 31.6765 15.5942C31.4859 15.5561 31.4097 15.5561 31.2572 15.5561C31.1048 15.5561 31.1047 15.7848 31.2953 15.8229C31.4478 15.861 31.7528 15.9372 31.7528 16.0897C31.7528 16.204 31.7146 16.6996 31.524 17.0045C31.4478 17.0807 31.3716 17.0807 31.3716 17.0807C31.3716 17.0807 31.2953 16.9664 31.2191 16.9664C31.1428 16.9664 31.1428 17.0045 31.2191 17.1188C31.2953 17.2332 31.3335 17.3094 31.2572 17.5381C31.181 17.7668 30.9523 17.8049 30.7998 17.9193C30.6474 18.0336 30.5711 18.0336 30.4949 17.9193C30.4187 17.8049 30.2662 17.4238 30.1137 17.2713C29.9613 17.1188 29.8469 17.1569 29.9613 17.3094C30.0375 17.4238 30.4187 18.148 30.19 18.3004C29.9994 18.4148 29.885 18.4529 29.8088 18.4529C29.6563 18.4529 29.6182 18.4529 29.5801 18.3004C29.542 18.148 29.4657 18.0717 29.3895 18.0717C29.3514 18.0717 29.3895 18.2623 29.3514 18.3767C29.3133 18.491 29.2751 18.5673 29.0846 18.5673C28.894 18.5673 28.6272 18.5673 28.5509 18.5291C28.3985 18.491 28.5129 17.9193 28.4747 17.6525C28.4366 17.5381 28.4366 17.4619 28.3603 17.5C28.3222 17.9574 27.9411 18.3767 27.9411 18.3767C27.9411 18.3767 27.7505 18.3767 27.5599 18.1861C27.4074 18.0717 27.5218 17.843 27.5218 17.843C27.5218 17.843 27.6742 17.8049 27.8267 17.6906C27.9792 17.5762 28.1316 17.3094 28.0173 17.0807C27.9411 16.852 27.8648 17.2332 27.7124 17.3475C27.5218 17.4619 27.5218 17.3094 27.598 17.1951C27.6742 17.0807 27.903 16.6614 27.7886 16.5852C27.6743 16.509 27.6742 16.6614 27.598 16.6614C27.5218 16.6996 27.5218 16.1659 27.5218 16.1659C27.5218 16.1659 27.6743 16.0516 27.7886 16.204C27.9411 16.3565 28.0554 16.509 28.3603 16.5852C28.4366 16.6233 28.3604 17.0045 28.4747 17.0426C28.551 17.0426 28.6271 16.7377 28.7796 16.7377C28.9321 16.7377 29.0083 17.7668 29.1608 17.7668C29.3514 17.7287 29.1989 16.6614 29.1989 16.6614C29.1989 16.6614 29.3133 16.5852 29.5038 16.509C29.6563 16.4709 29.8088 16.4327 29.8088 16.4327C29.8088 16.4327 29.9612 16.4708 30.1518 16.7377C30.3424 16.9664 30.3424 17.0807 30.4187 17.0807C30.4949 17.0426 30.4186 16.6995 30.1518 16.4327C30.0375 16.3184 30.0756 16.2422 30.0756 16.2422C30.0756 16.2422 30.2281 16.0516 30.3806 16.0897C30.533 16.1278 30.8379 16.3565 30.9523 16.5471C31.0666 16.7377 31.181 16.6996 31.181 16.509C31.181 16.3184 31.181 16.2421 30.9523 16.0897C30.7236 15.9372 30.6473 15.861 30.5711 15.7847C30.533 15.7466 30.533 15.2892 30.7236 15.0987C30.7998 15.0224 30.7617 14.9843 31.181 14.9462C31.4859 14.9081 31.7909 14.9462 31.7528 14.8318C31.7528 14.7175 31.4097 14.5269 30.6854 14.6794C30.6092 14.6794 30.533 14.6413 30.533 14.5269C30.4949 14.3744 30.4187 14.1457 30.3806 14.0314C30.3424 13.917 30.3424 13.917 30.4949 13.7646C30.6855 13.6121 30.7998 13.4596 30.8379 13.3834C30.8761 13.2691 30.7998 13.0404 30.6474 13.1928C30.4949 13.3072 30.3424 13.4596 30.19 13.5359C30.0756 13.6121 29.7325 13.4596 29.8088 13.3453C29.8469 13.2691 29.9994 13.1166 30.1137 12.8498C30.2281 12.6211 30.2662 12.4686 30.3424 12.3543C30.4186 12.278 30.9523 12.1256 31.0666 12.1637C31.181 12.2018 31.4097 12.278 31.4478 12.3543C31.4859 12.4686 31.5621 12.583 31.524 12.6973C31.4478 12.8879 31.181 12.9641 31.1429 13.0404C31.1429 13.0785 31.181 13.3072 31.2191 13.3072C31.2572 13.3072 31.4097 13.2309 31.4859 13.1547C31.5622 13.0785 31.6765 12.9641 31.7528 13.0404C31.829 13.1547 31.8671 13.3834 31.7528 13.4596C31.3335 13.6883 31.3716 13.6502 31.3716 13.7265C31.3716 13.7646 31.4478 13.917 31.524 13.8789C31.6765 13.8789 31.8671 13.7646 31.9433 13.7646C31.9052 13.9552 31.9814 14.2601 31.9433 14.6794ZM32.1339 17.9574C32.172 17.9574 32.2482 17.9955 32.2482 18.0336C32.3245 18.2242 32.3626 18.6054 32.3626 18.7578C32.4007 18.9484 32.3245 19.2152 32.3245 19.2152C32.2864 19.2152 32.2101 19.2534 32.0576 19.1771C31.9052 19.1009 31.9052 19.0247 31.9052 19.0247C31.9052 19.0247 32.0196 18.2242 32.0196 18.1099C32.0958 18.0717 32.0958 17.9955 32.1339 17.9574ZM32.9725 20.3969C33.0106 20.5112 32.9725 20.778 32.7438 20.9305C32.6294 20.8924 31.9433 20.5112 31.6384 20.13C31.3715 19.7489 30.9523 18.5673 30.9142 18.4148C30.8761 18.2242 31.0285 18.3004 31.1047 18.3767C31.1428 18.4529 31.4478 19.0628 31.7528 19.5202C32.0958 19.9395 32.9725 20.3969 32.9725 20.3969ZM33.0106 23.0269C33.163 23.1413 33.2011 23.2175 33.1249 23.37C33.0487 23.5224 32.9343 23.5224 32.8962 23.5224C32.8962 23.5224 32.7438 23.37 32.5151 23.1031C32.2864 22.8363 32.172 22.4933 32.172 22.4933C32.172 22.4933 32.172 22.4552 32.2101 22.4552C32.2483 22.4552 32.4007 22.4933 32.4007 22.4933C32.4007 22.4933 32.4769 22.5695 32.5913 22.6839C32.6675 22.7601 32.8962 22.9507 33.0106 23.0269ZM30.7617 32.4417C30.6855 32.4798 30.5711 32.5561 30.4568 32.5179C31.6384 29.0493 32.0958 23.9417 32.1339 23.4081C32.1339 23.4081 32.1339 23.3318 32.172 23.37C32.2482 23.4081 32.4388 23.713 32.5913 23.8655C32.7437 23.9798 31.9814 29.926 30.7617 32.4417ZM28.2079 31.9081C27.8648 32.213 27.8267 32.0987 27.3312 32.4798C26.8738 32.8229 26.9119 33.1659 26.7594 33.204C26.7594 33.204 26.6451 32.7085 26.9119 32.2892C27.1788 31.87 27.7124 31.565 27.903 31.3744C28.0935 31.1457 28.246 30.9933 28.2841 30.8027C28.3223 30.6121 28.4366 30.7265 28.4366 30.8027C28.4747 30.8408 28.6272 31.5269 28.2079 31.9081ZM26.5689 32.1749C26.5308 32.0987 26.5308 31.9843 26.5689 31.6413C26.607 31.2982 26.7213 31.1839 26.8738 31.1076C27.0263 31.0314 27.3693 30.8408 27.6362 30.4215C28.0173 29.8498 27.9411 29.5067 27.9411 29.5067L27.9792 29.4686C27.9792 29.4686 28.1698 29.6211 28.1316 30.1166C28.0935 30.6502 27.9411 31.0314 27.4456 31.4126C26.8357 31.8318 26.6833 32.1749 26.6833 32.1749C26.6833 32.1749 26.607 32.2511 26.5689 32.1749ZM26.2258 30.4978C25.8828 30.4978 25.5779 30.2309 25.5397 29.8879C25.5016 29.6211 25.5778 29.3161 25.6922 29.0493C25.8065 28.7825 26.0353 28.5919 26.0353 28.5919C26.0353 28.5919 26.0734 28.7063 26.0734 28.935C26.0734 29.278 25.9209 29.583 25.8828 29.6973C25.8828 29.7735 25.959 29.8117 26.0353 29.8117C26.1877 29.8117 26.1496 29.3924 26.3021 29.3924C26.3783 29.8117 26.2258 29.926 26.1877 30.0022C26.2639 30.0404 26.302 30.0785 26.3402 30.0404C26.607 29.9641 26.6832 29.6592 26.6451 29.4686C26.607 29.2018 26.4164 29.0874 26.3783 28.935C26.3783 28.7063 26.4545 28.5919 26.4545 28.5919C26.4545 28.5919 26.6832 28.7444 26.7976 29.0112C26.9119 29.278 26.9882 29.6211 26.95 29.8879C26.8738 30.2309 26.5689 30.4978 26.2258 30.4978ZM25.8828 32.1749C25.8447 32.2511 25.8447 32.1749 25.8447 32.1749C25.8447 32.1749 25.6922 31.87 25.0824 31.4126C24.5487 31.0314 24.3963 30.6502 24.3581 30.1166C24.32 29.6592 24.5106 29.4686 24.5106 29.4686L24.5487 29.5067C24.5487 29.5067 24.5106 29.8879 24.8536 30.4215C25.1204 30.8408 25.4635 31.0314 25.616 31.1076C25.7685 31.1839 25.8828 31.2982 25.9209 31.6413C25.959 31.9462 25.959 32.0987 25.8828 32.1749ZM25.6922 33.1659C25.5397 33.1278 25.5779 32.7848 25.1205 32.4417C24.6249 32.0605 24.5868 32.213 24.2438 31.87C23.8626 31.4888 24.015 30.8027 24.015 30.7265C24.015 30.6502 24.1294 30.5359 24.1675 30.7265C24.2057 30.917 24.3581 31.0695 24.5487 31.2982C24.7393 31.5269 25.2729 31.8318 25.5397 32.213C25.8066 32.6704 25.6922 33.1659 25.6922 33.1659ZM20.8133 21.5785C20.5083 21.8834 19.8985 22.074 19.8985 22.074C19.8985 22.074 19.7841 22.1502 19.7079 21.9978C19.6317 21.8834 19.6698 21.4641 19.6698 21.4641C19.6698 21.4641 20.5083 21.1211 20.8895 20.6637C21.1563 20.3587 21.2326 20.0919 21.2707 19.9776C21.3088 19.8632 21.385 19.787 21.385 19.9013C21.4231 20.0538 21.385 21.0448 20.8133 21.5785ZM21.7281 21.0067C21.7281 21.0067 21.8424 20.8924 21.8424 20.9305C21.5756 25.1233 22.7572 31.6031 22.7572 31.7175C22.7953 32.0224 22.5285 32.4036 22.4904 32.3274C21.5756 30.1547 20.9276 23.6368 20.9276 22.7982C20.8895 22.4552 21.3088 22.0359 21.7281 21.0067ZM24.5106 13.8027C24.4343 13.6502 24.7393 13.5359 24.8918 13.4978C25.1205 13.4596 25.311 13.4978 25.4635 13.574C25.5397 13.6121 25.616 13.7265 25.4635 13.7265C25.311 13.7646 25.2348 13.7265 25.0824 13.7646C24.8537 13.8027 24.5868 13.9933 24.5106 13.8027ZM24.015 13.8408C24.663 14.0695 24.8918 14.7937 24.6631 15.4417C24.4344 16.0897 23.7864 16.3946 23.1765 16.204C22.5285 15.9753 22.2617 15.2892 22.4904 14.6413C22.681 13.9552 23.3671 13.6121 24.015 13.8408ZM24.4725 12.7735C24.4344 12.7735 24.0913 12.6211 23.4814 12.8498C23.2146 12.9641 23.0241 12.926 22.9859 12.8498C22.8335 12.583 23.5958 12.4305 23.8245 12.4305C24.32 12.4305 24.4725 12.6211 24.5106 12.6592C24.5487 12.7354 24.5487 12.7735 24.4725 12.7735ZM24.968 13.1166C25.0442 13.1547 25.0442 13.2691 24.8918 13.2691C24.6631 13.2309 24.5868 13.2309 24.2056 13.3834C23.7482 13.5359 23.5958 13.4215 23.5577 13.3834C23.5195 13.3453 23.4052 13.1547 23.5577 13.1547C23.9007 13.1547 24.1294 13.0404 24.3962 13.0022C24.6249 12.9641 24.8917 13.0404 24.968 13.1166ZM25.6541 12.4305C25.6541 12.5448 25.616 12.6211 25.5397 12.583C25.4254 12.3924 25.0824 12.5067 25.1967 12.7735C25.1967 12.8498 25.0823 12.8879 25.0061 12.8117C24.8536 12.6973 24.7774 12.3543 25.0824 12.1637C25.2729 12.0112 25.616 12.1637 25.6541 12.4305ZM26.607 11.7063C26.5308 11.63 26.4164 11.5157 26.2258 11.5157C26.0352 11.5157 25.9209 11.63 25.8447 11.7063C25.7303 11.7825 25.6541 11.7063 25.616 11.63C25.6541 11.4013 25.9209 11.1345 26.2258 11.1345C26.5307 11.1345 26.8357 11.4013 26.8357 11.63C26.7976 11.7063 26.7213 11.7825 26.607 11.7063ZM27.4837 12.8117C27.3693 12.8879 27.2931 12.8117 27.2931 12.7735C27.4074 12.5067 27.0263 12.3543 26.95 12.583C26.8738 12.6211 26.7976 12.5448 26.8357 12.4305C26.8738 12.2018 27.1788 12.0493 27.4456 12.2018C27.7505 12.3543 27.6361 12.6973 27.4837 12.8117ZM28.0935 13.0022C28.3604 13.0404 28.5509 13.1547 28.9321 13.1547C29.0846 13.1547 28.9702 13.3453 28.9321 13.3834C28.894 13.4215 28.7034 13.5359 28.2841 13.3834C27.903 13.2691 27.8267 13.2691 27.598 13.2691C27.4455 13.2691 27.4075 13.1547 27.5218 13.1166C27.5981 13.0404 27.8267 12.9641 28.0935 13.0022ZM29.4657 12.8879C29.4276 12.926 29.237 12.9641 28.9702 12.8879C28.3985 12.6592 28.0554 12.8117 27.9792 12.8117C27.9411 12.8117 27.903 12.7735 27.9411 12.7354C27.9792 12.6973 28.1698 12.4686 28.6272 12.5067C28.8178 12.4686 29.6182 12.6211 29.4657 12.8879ZM28.4747 13.8408C29.1227 13.6121 29.8088 13.9552 29.9994 14.6031C30.2281 15.2511 29.9612 15.9372 29.3132 16.1659C28.6653 16.3946 28.0173 16.0516 27.7886 15.4036C27.598 14.7937 27.8268 14.0314 28.4747 13.8408ZM27.3693 13.7646C27.2169 13.7265 27.1407 13.7265 26.9882 13.7265C26.8357 13.7265 26.912 13.6121 26.9882 13.574C27.1407 13.4978 27.3312 13.4596 27.5599 13.4978C27.7124 13.5359 28.0173 13.6502 27.9792 13.8027C27.903 13.9933 27.598 13.8027 27.3693 13.7646ZM29.5801 23.9036C29.5801 23.7892 29.542 23.5605 29.6563 23.5224C29.8088 23.5987 29.9613 23.7892 30.0756 24.0561C30.2662 24.4372 30.3043 24.9327 30.0375 25.0471C29.5038 25.2758 29.0464 24.5897 28.9702 24.1323C28.894 23.7511 29.1227 23.6749 29.1227 23.6749C29.1227 23.6749 29.2371 23.9798 29.3514 24.1323C29.4657 24.361 29.6563 24.5516 29.7707 24.5134C29.8469 24.5134 29.6182 24.2466 29.5801 23.9036ZM27.0644 23.1031C27.1025 22.9507 27.255 22.9126 27.255 22.9126C27.255 22.9126 27.3312 23.4081 27.4837 23.6749C27.598 23.9798 27.903 24.2848 28.0555 24.2466C28.2079 24.1704 28.0173 24.0179 27.903 23.6749C27.7886 23.2556 27.8649 22.8744 27.8649 22.8744C27.8649 22.8744 27.9792 22.8363 28.0173 22.9888C28.3222 23.7892 28.3985 23.7511 28.5891 24.1323C28.7797 24.5135 28.6653 24.9327 28.2079 25.009C27.1025 25.1995 27.0263 23.37 27.0644 23.1031ZM26.7976 27.2578C26.7976 27.2578 27.1787 28.1345 27.4074 28.0202C27.5218 27.9821 27.1025 27.5628 27.1025 27.0673C27.1407 26.991 27.255 26.991 27.255 26.991C27.255 26.991 27.3694 27.1435 27.5218 27.296C27.7505 27.4865 28.3603 28.5538 27.7124 28.8206C27.0263 29.0874 26.5689 28.0202 26.5689 27.639C26.607 27.2578 26.7976 27.2578 26.7976 27.2578ZM25.3111 25.4664C25.3492 24.3991 25.6922 24.0561 25.6922 24.0561C25.6922 24.0561 25.7684 24.1704 25.7684 24.2466C25.7684 24.3229 25.616 24.8184 25.616 25.0852C25.616 25.352 25.6922 25.4282 25.8065 25.3901C25.8828 25.352 25.7303 25.009 25.959 25.009C26.1115 25.009 26.1877 25.3901 26.1877 25.7713C26.1877 26.1906 26.1115 26.343 26.1115 26.343C26.2639 26.4574 26.4545 26.2287 26.4927 25.8094C26.5308 25.4283 26.4546 25.1995 26.5689 25.1995C26.6451 25.1995 26.6451 25.352 26.6451 25.5426C26.6451 25.6951 26.6451 25.8475 26.6833 25.8856C26.7595 25.9238 26.9119 25.5807 26.9119 25.2377C26.9119 24.9708 26.8357 24.704 26.7976 24.6278C26.7976 24.5135 26.8357 24.4372 26.8357 24.4372C26.8357 24.4372 27.1406 24.3991 27.1787 25.4664C27.2168 26.1525 26.8738 26.991 26.264 26.991C25.616 26.991 25.2729 26.1525 25.3111 25.4664ZM24.9299 27.296C25.0823 27.1816 25.1967 26.991 25.1967 26.991C25.1967 26.991 25.311 26.9529 25.3491 27.0673C25.3491 27.5628 24.8917 27.9821 25.0442 28.0202C25.2729 28.1345 25.6541 27.2578 25.6541 27.2578C25.6541 27.2578 25.8447 27.2578 25.8828 27.639C25.9209 28.0202 25.4254 29.0874 24.7393 28.8206C24.0913 28.5919 24.7012 27.4865 24.9299 27.296ZM25.3491 19.9776C25.4254 19.8251 25.5397 19.9013 25.5397 19.9013C25.5397 19.9013 25.4254 20.2825 25.4635 20.7018C25.5016 20.9686 25.5778 21.1592 25.6922 21.1592C25.8065 21.1592 25.8065 20.9305 25.8065 20.7399C25.8065 20.6637 25.9209 20.6256 25.9209 20.7018C25.9971 21.0067 25.8447 21.5022 25.9971 22.0359C26.0352 22.2265 26.264 22.4552 26.3783 22.3789C26.4164 22.3408 26.4164 22.2646 26.3783 22.1883C26.3402 22.1121 26.3402 22.0359 26.3021 21.9596C26.1496 21.3879 26.3402 20.5874 26.4927 20.2825C26.5308 20.2063 26.6451 20.3587 26.6451 20.5493C26.6451 20.7399 26.607 21.1211 26.6833 21.5404C26.7214 21.7309 26.8738 21.6166 26.95 21.3117C27.0644 20.8161 26.9119 20.0157 26.9119 20.0157C26.9119 20.0157 27.0263 19.9013 27.1025 20.0919C27.1788 20.2444 27.4074 21.4641 27.255 22.2265C27.1406 22.722 26.8738 23.2175 26.264 23.2175C25.616 23.2175 25.3872 22.722 25.2729 22.2265C25.0442 21.3498 25.2729 20.13 25.3491 19.9776ZM25.8828 13.7646C25.9209 13.8027 25.9209 13.8408 25.8828 13.8789C25.6922 14.1076 25.4635 14.4126 25.2348 14.2601C25.1586 14.222 25.1967 14.0314 25.4635 13.8789C25.5397 13.8789 25.7684 13.7265 25.8828 13.7646ZM26.6451 12.3161C26.607 12.5067 26.5689 12.583 26.5308 12.6211C26.4926 12.6592 26.4164 12.6211 26.4545 12.583C26.4545 12.5448 26.4927 12.2399 26.264 12.2399C25.9971 12.2399 26.0353 12.5448 26.0734 12.583C26.0734 12.6211 26.0352 12.6592 25.9971 12.6211C25.959 12.583 25.9209 12.5067 25.8828 12.3161C25.8447 12.1256 26.0352 11.8587 26.3021 11.8587C26.5308 11.8587 26.6832 12.1256 26.6451 12.3161ZM26.607 13.917C26.5689 13.8789 26.5689 13.8408 26.607 13.8027C26.7213 13.7646 26.9501 13.8789 27.0263 13.917C27.2931 14.0695 27.3312 14.222 27.255 14.2982C27.0263 14.4507 26.7595 14.1457 26.607 13.917ZM25.8828 14.4126C25.8828 14.3744 25.959 13.8789 26.2258 13.8789C26.4926 13.8789 26.5689 14.3363 26.5689 14.4126C26.5689 14.5269 26.4926 14.565 26.4164 14.565C26.2639 14.5269 26.3783 14.1839 26.2258 14.1839C26.0733 14.1839 26.1877 14.4888 26.0353 14.565C25.959 14.565 25.8828 14.4888 25.8828 14.4126ZM25.9971 15.5942C26.0734 15.8229 26.0734 16.2422 26.0734 17.0045C26.0734 17.4619 26.1877 17.8812 26.264 17.8812C26.3402 17.8812 26.4545 17.5 26.4545 17.0045C26.4545 16.2422 26.4545 15.8229 26.5308 15.5942C26.5308 15.5561 26.7976 15.5942 27.0263 15.7847C27.2931 16.0134 27.1406 16.9283 27.0644 17.3475C26.9881 17.7287 26.7213 18.5291 26.3021 18.796C25.8828 18.491 25.616 17.6906 25.5397 17.3475C25.4254 16.9283 25.311 16.0134 25.5778 15.7847C25.7303 15.5942 25.9971 15.5561 25.9971 15.5942ZM24.2438 25.009C23.7864 24.9327 23.672 24.5135 23.8626 24.1323C24.0532 23.7511 24.1675 23.7892 24.4343 22.9888C24.4724 22.8363 24.5868 22.8744 24.5868 22.8744C24.5868 22.8744 24.663 23.2556 24.5487 23.6749C24.4343 24.0179 24.2819 24.1704 24.3962 24.2466C24.5487 24.3229 24.8536 23.9798 24.968 23.6749C25.0823 23.37 25.1967 22.9126 25.1967 22.9126C25.1967 22.9126 25.3491 22.9507 25.3872 23.1031C25.4254 23.37 25.3492 25.1995 24.2438 25.009ZM22.7191 24.5516C22.8334 24.5897 22.9859 24.361 23.1384 24.1704C23.2527 23.9798 23.3671 23.713 23.3671 23.713C23.3671 23.713 23.5958 23.7892 23.5196 24.1704C23.4433 24.6278 22.9859 25.3139 22.4523 25.0852C22.1473 24.9327 22.2236 24.4753 22.4142 24.0942C22.5285 23.8655 22.681 23.6368 22.8335 23.5605C22.9478 23.5987 22.9097 23.7892 22.9097 23.9417C22.8335 24.2466 22.6047 24.5135 22.7191 24.5516ZM23.9769 26.8767C23.5577 27.296 23.1384 27.4484 22.9097 27.2578C22.4904 26.991 22.6047 26.5336 23.2527 25.8475C23.5958 25.4664 23.8245 25.2377 23.8245 25.2377C23.8245 25.2377 23.9007 25.1996 23.9389 25.2758C23.9389 25.2758 23.7864 25.8856 23.672 26C23.5958 26.1143 23.4433 26.3812 23.4814 26.4193C23.4814 26.4574 23.5577 26.4955 23.6339 26.4574C23.7101 26.3812 23.8626 26.0762 23.9769 26C24.0913 25.8856 24.2819 25.5807 24.3962 25.5426H24.4343C24.4724 25.6188 24.4343 26.3812 23.9769 26.8767ZM23.5958 31.2601C23.5958 31.565 23.5195 31.7556 23.3671 31.7556C23.2146 31.7556 23.1384 31.565 23.1384 31.2601C23.1384 30.917 23.2528 29.926 23.2909 29.6973H23.3671C23.4052 29.6973 23.5958 30.9552 23.5958 31.2601ZM23.0621 29.0112C22.8334 28.7825 22.9478 28.4395 23.1384 28.1726C23.329 27.9058 23.6339 27.7152 23.672 27.6771C23.7864 27.6009 23.8245 27.639 23.8626 27.6771C23.8626 27.6771 23.329 28.4395 23.5196 28.5538C23.672 28.6682 24.1294 27.9821 24.1294 27.9821C24.1676 28.0583 24.2057 28.0964 24.1675 28.2108C24.1675 28.2489 24.0532 28.5538 23.8245 28.7825C23.5958 29.0493 23.2908 29.2399 23.0621 29.0112ZM28.5128 26.8767C28.0554 26.3812 28.0173 25.6188 28.0555 25.5045H28.0935C28.2079 25.5807 28.3985 25.8856 28.5128 25.9619C28.6272 26.0762 28.7796 26.3431 28.8559 26.4193C28.9321 26.4955 29.0084 26.4193 29.0084 26.3812C29.0084 26.343 28.894 26.0762 28.8178 25.9619C28.7415 25.8475 28.5509 25.2377 28.5509 25.2377C28.589 25.1996 28.6272 25.1995 28.6272 25.1995C28.6272 25.1995 28.8559 25.4283 29.1989 25.8094C29.8088 26.4955 29.9613 26.9529 29.542 27.2197C29.3133 27.4484 28.894 27.3341 28.5128 26.8767ZM29.3132 31.2601C29.3132 31.565 29.237 31.7556 29.0846 31.7556C28.9321 31.7556 28.8559 31.565 28.8559 31.2601C28.8559 30.9552 29.0846 29.6973 29.0846 29.6973H29.1608C29.1989 29.926 29.3132 30.917 29.3132 31.2601ZM28.6272 28.7825C28.4366 28.5538 28.3223 28.2489 28.2841 28.2108C28.246 28.0964 28.246 28.0583 28.3222 27.9821C28.3222 27.9821 28.7796 28.6682 28.9321 28.5538C29.0846 28.4395 28.5891 27.6771 28.5891 27.6771C28.6272 27.639 28.6272 27.6009 28.7415 27.6771C28.7796 27.7152 29.0846 27.9058 29.2752 28.1726C29.5038 28.4395 29.5801 28.8206 29.3514 29.0112C29.1608 29.2399 28.8559 29.0493 28.6272 28.7825ZM31.0666 19.9395C31.0666 19.8251 31.181 19.9013 31.2191 20.0157C31.2572 20.13 31.3334 20.3969 31.6003 20.7018C31.9814 21.1592 32.82 21.5022 32.82 21.5022C32.82 21.5022 32.8581 21.8834 32.7819 22.0359C32.7056 22.1502 32.5913 22.1121 32.5913 22.1121C32.5913 22.1121 32.0196 21.9215 31.6765 21.6166C31.0666 21.0448 31.0285 20.0538 31.0666 19.9395ZM31.5622 22.7982C31.5622 23.6368 30.8761 30.1547 29.9613 32.3274C29.9232 32.4036 29.6182 32.0224 29.6944 31.7175C29.7326 31.6031 30.9142 25.1233 30.6093 20.9305C30.6093 20.8924 30.7236 21.0067 30.7236 21.0067C31.1429 22.0359 31.5622 22.4552 31.5622 22.7982ZM30.1518 18.7578C30.1899 18.6816 30.3043 18.7578 30.3424 18.796C30.4568 18.9103 31.0285 19.9013 30.533 20.13C29.9994 20.3587 29.5801 19.3296 29.5038 19.0628C29.4657 18.8341 29.6182 18.8722 29.6182 18.8722C29.6182 18.8722 29.9993 19.4821 30.1518 19.4058C30.3424 19.3296 30.1518 18.7578 30.1518 18.7578ZM29.5038 20.3587C29.4276 20.1682 29.4657 19.9776 29.4657 19.9776C29.5039 19.9395 29.6944 20.1682 29.6944 20.1682C29.6944 20.1682 29.7325 20.3587 29.8088 20.5112C29.885 20.6637 30.19 21.083 29.9613 21.2354C29.7326 21.3879 29.4276 21.3117 29.1608 20.8543C28.894 20.3587 28.894 19.6345 28.9321 19.5583C28.9702 19.4821 29.0465 19.5202 29.0465 19.5964C29.0465 19.6726 29.1227 19.9776 29.3132 20.3587C29.5038 20.7399 29.5801 20.6637 29.5801 20.6637C29.5801 20.6637 29.5801 20.5493 29.5038 20.3587ZM28.9321 21.6928C28.8559 21.426 28.8559 21.2735 28.8559 21.2735C28.8559 21.2735 28.9321 21.1973 29.0465 21.3498C29.1227 21.5022 29.3895 21.7309 29.7325 21.9978C29.9993 22.1883 30.1137 22.6839 29.7707 22.9507C29.542 23.1413 29.1227 23.1031 28.7034 22.6457C28.2841 22.1883 28.1316 21.5022 28.1316 21.3498C28.1316 21.2354 28.2079 21.2354 28.2079 21.2354C28.2079 21.2354 28.4747 21.6166 28.7034 21.8453C28.9321 22.074 29.0464 22.1883 29.1989 22.1883C29.3514 22.2646 29.0465 21.9596 28.9321 21.6928ZM27.9792 19.2152C27.9792 19.2152 28.0173 19.2152 28.1316 19.2534C28.2841 19.3677 28.4747 19.5583 28.5509 19.8251C28.7034 20.2444 28.5509 20.435 28.3603 20.5493C28.0935 20.6637 27.3693 20.2825 27.2931 19.2534C27.2931 19.139 27.4074 19.139 27.4074 19.139C27.4074 19.139 27.7505 20.0538 28.0935 19.9395C28.246 19.9013 27.9792 19.2152 27.9792 19.2152ZM24.3962 19.9395C24.7393 20.0538 25.0824 19.139 25.0824 19.139C25.0824 19.139 25.1967 19.139 25.1967 19.2534C25.1205 20.2825 24.3581 20.6637 24.0913 20.5493C23.9007 20.4731 23.7482 20.2825 23.9007 19.8251C24.015 19.5202 24.2056 19.3296 24.32 19.2534C24.3962 19.1771 24.4725 19.2152 24.4725 19.2152C24.4725 19.2152 24.2056 19.9013 24.3962 19.9395ZM23.2909 22.2646C23.4433 22.2646 23.5577 22.1502 23.7864 21.9215C24.0151 21.6928 24.2819 21.3117 24.2819 21.3117C24.2819 21.3117 24.3581 21.3117 24.3581 21.426C24.3581 21.5404 24.2056 22.2646 23.7864 22.722C23.3671 23.1794 22.9478 23.2175 22.7191 23.0269C22.376 22.7601 22.4523 22.2646 22.7572 22.074C23.1003 21.8072 23.3671 21.6166 23.4433 21.426C23.5196 21.2735 23.6339 21.3498 23.6339 21.3498C23.6339 21.3498 23.6339 21.5022 23.5577 21.7691C23.4052 21.9596 23.1003 22.2646 23.2909 22.2646ZM23.1384 20.3587C23.329 19.9776 23.3671 19.6726 23.4052 19.5964C23.4052 19.5202 23.4814 19.4821 23.5196 19.5583C23.5577 19.6345 23.5577 20.3587 23.2527 20.8543C22.9859 21.3117 22.681 21.3879 22.4523 21.2354C22.2236 21.083 22.4904 20.6637 22.6047 20.5112C22.7191 20.3587 22.7191 20.1682 22.7191 20.1682C22.7191 20.1682 22.9097 19.9013 22.9859 19.9776C22.9859 19.9776 23.024 20.1682 22.9478 20.3587C22.8715 20.5493 22.8716 20.6637 22.8716 20.6637C22.8716 20.6637 22.9478 20.7399 23.1384 20.3587ZM22.2617 19.4058C22.4142 19.4821 22.7953 18.8722 22.7953 18.8722C22.7953 18.8722 22.9478 18.8341 22.9097 19.0628C22.8716 19.3677 22.4142 20.3587 21.8806 20.13C21.385 19.9013 21.9568 18.9103 22.0711 18.796C22.1092 18.7578 22.2236 18.6816 22.2617 18.7578C22.2998 18.7578 22.1092 19.3296 22.2617 19.4058ZM19.8603 23.8655C20.0128 23.713 20.2034 23.37 20.2796 23.37C20.3559 23.3318 20.3178 23.4081 20.3178 23.4081C20.3559 23.9417 20.8133 29.0493 21.9949 32.5179C21.9187 32.5942 21.8043 32.5561 21.7281 32.5179C20.5084 29.6973 19.7079 23.9798 19.8603 23.8655ZM19.2124 22.7982C19.1361 22.9126 18.9074 23.1031 18.9074 23.3318C18.9074 23.5987 19.2505 23.7892 19.3267 23.9036C19.5173 25.8475 20.5083 31.1457 21.4231 32.8229C21.0801 33.3184 21.042 33.7377 21.1563 34.5C21.0039 34.5762 20.8514 34.6525 20.6989 34.7668L19.9366 35.3386C20.394 35.491 20.8133 35.6816 21.1945 35.9865L24.5106 38.426C25.0061 38.1211 25.616 37.8543 26.1877 37.8543C26.8738 37.8543 27.3312 38.1592 27.9792 38.5785L29.5801 39.6457C29.5801 39.6457 30.3424 39.1502 30.3806 39.1502L25.6541 35.7578C25.7303 35.6435 25.8065 35.3767 25.8065 35.1099C25.6159 34.6906 25.5398 34.0045 25.616 33.8901C25.6541 33.852 25.8447 34.0045 26.0353 34.2332C26.1496 34.4238 26.1877 34.4238 26.1877 34.4238C26.1877 34.4238 26.2258 34.4238 26.3402 34.2332C26.4926 33.9664 26.6832 33.8139 26.7213 33.8901C26.7976 34.0045 26.7213 34.6525 26.5308 35.1099C26.5308 35.3767 26.6451 35.6816 26.6833 35.7578L28.6272 37.2063L29.0846 37.5493C29.0846 37.5493 30.6092 36.3677 31.1047 35.9484C31.4859 35.6435 31.9433 35.4529 32.3626 35.3004L31.6003 34.7287C31.4478 34.6143 31.3335 34.5381 31.1429 34.4619C31.2572 33.6995 31.2191 33.2803 30.876 32.7848C31.829 31.1076 32.82 25.7713 33.0106 23.8655C33.0868 23.7511 33.4298 23.5224 33.4298 23.2937C33.4298 23.0269 33.2011 22.8744 33.1249 22.7601C33.0487 22.6076 33.0487 22.5314 33.0487 22.1502C33.0106 21.7691 33.0487 21.3498 33.0487 21.3498C33.0487 21.3498 33.3536 20.9686 33.3155 20.5493C33.2774 20.13 32.8962 19.8632 32.8962 19.8632C32.8962 19.8632 32.7819 19.0628 32.6294 18.0336C32.5151 17.0045 32.2864 16.204 32.2864 16.204C32.2864 16.204 32.4007 15.5179 32.3245 14.7937C32.2483 13.8408 31.7146 12.926 31.7528 12.583C31.829 11.9731 32.0958 12.0112 32.2101 10.9821C32.3245 10.1054 31.7909 9.49551 31.7909 9.49551C31.7909 9.49551 31.6384 10.2578 31.2572 10.4103C30.8761 10.5628 30.7236 10.4103 30.3043 10.4484C30.1137 10.4484 29.7707 10.4865 29.3514 10.7152C28.6272 10.296 28.4366 10.3341 27.7886 10.3722C27.1787 10.4103 27.1406 10.3722 26.607 10.2197C26.5308 10.2197 26.3021 10.1435 26.0734 10.1435C25.8447 10.1435 25.5779 10.1816 25.5397 10.2197C25.0061 10.3341 24.968 10.3722 24.3581 10.3722C23.7483 10.3341 23.5196 10.296 22.7953 10.7152C22.3761 10.4865 22.033 10.4865 21.8424 10.4484C21.4231 10.4103 21.2707 10.5628 20.8895 10.4103C20.5083 10.2578 20.3559 9.49551 20.3559 9.49551C20.3559 9.49551 19.8223 10.1054 19.9747 10.9821C20.1272 12.0493 20.3559 11.9731 20.4321 12.583C20.4702 12.926 19.9366 13.8408 19.8603 14.7937C19.8222 15.5561 19.8985 16.204 19.8985 16.204C19.8985 16.204 19.6698 17.0045 19.5554 18.0336C19.403 19.0628 19.2886 19.8632 19.2886 19.8632C19.2886 19.8632 18.9075 20.1682 18.8693 20.5493C18.8312 20.9686 19.1362 21.3498 19.1362 21.3498C19.1362 21.3498 19.1742 21.7691 19.1742 22.1502C19.2886 22.6076 19.2886 22.6839 19.2124 22.7982ZM21.4231 11.4776C21.9949 11.4776 22.1473 11.5919 22.2998 11.7063C22.3379 11.7444 22.4142 11.63 22.3379 11.5157C22.2617 11.4013 22.1474 11.2108 22.0711 11.2108C21.9186 11.1345 21.7281 11.1345 21.5756 11.1345C21.3088 11.1345 21.1182 11.0964 20.9276 11.0202C20.8133 10.9821 20.737 10.9058 20.6227 10.8296C20.5846 10.8296 20.5846 10.9058 20.5846 10.9439C20.6608 11.0202 20.8514 11.4776 21.4231 11.4776ZM29.2752 15.7466C29.6563 15.5561 29.8088 15.0605 29.6182 14.6794C29.542 14.4888 29.3895 14.4507 29.4276 14.5269C29.5801 14.87 29.4657 15.2892 29.1608 15.4036C28.8178 15.5561 28.4747 15.4036 28.3222 15.0605C28.246 14.9081 28.1698 15.0987 28.2841 15.3274C28.4366 15.7466 28.894 15.9372 29.2752 15.7466ZM30.1518 11.7063C30.3043 11.5919 30.4568 11.4776 31.0285 11.4776C31.6003 11.4776 31.829 11.0202 31.829 10.9821C31.8671 10.9439 31.8671 10.8677 31.7909 10.8677C31.6765 10.9439 31.6384 11.0202 31.4859 11.0583C31.2953 11.1345 31.1048 11.1726 30.8379 11.1726C30.6855 11.1726 30.4949 11.1726 30.3424 11.2489C30.2662 11.287 30.19 11.4395 30.0756 11.5538C30.0375 11.63 30.1137 11.7444 30.1518 11.7063ZM14.2191 38.426C14.9814 39.1502 15.82 39.8363 16.6967 40.4462C16.6967 40.4462 16.811 40.3699 18.2976 39.2646C18.8693 38.8453 19.5173 38.6166 20.2415 38.6166C20.9276 38.6166 21.6137 38.8453 22.1855 39.2646L22.8335 39.7601L23.9769 38.9215L20.7752 36.7489C19.4792 35.8722 17.8021 35.8341 16.5442 36.7489L14.1429 38.426C14.181 38.3879 14.181 38.3879 14.2191 38.426ZM23.1765 15.7466C23.5577 15.9372 24.0151 15.7466 24.2056 15.3274C24.32 15.0605 24.2438 14.9081 24.1675 15.0605C24.0151 15.4036 23.6339 15.5561 23.329 15.4036C22.9859 15.2511 22.9097 14.87 23.0621 14.5269C23.1002 14.4507 22.9478 14.5269 22.8716 14.6794C22.6429 15.0987 22.7572 15.5942 23.1765 15.7466ZM26.7594 43.2668C26.4164 43.0381 25.3491 42.2758 21.8043 39.8363C20.8514 39.1883 19.6698 39.1883 18.6787 39.8363C17.3828 40.713 17.2684 40.7511 17.2684 40.7892C20.089 42.5045 23.4433 43.3812 26.7594 43.2668ZM24.7012 39.1502L23.4052 40.1031C24.2438 40.713 26.8357 42.6569 27.6743 43.2287C29.237 43.1143 30.7617 42.7713 32.2482 42.2377C31.9052 42.009 30.8761 41.2848 27.7505 39.1502C26.7595 38.5022 25.616 38.4641 24.7012 39.1502ZM29.6944 37.9686L30.9142 38.8834C31.3335 38.6928 31.7908 38.6166 32.2482 38.6166C32.9343 38.6166 33.4298 38.9215 34.0778 39.3027C35.5262 40.2175 35.755 40.4081 35.7931 40.4081C36.7079 39.7982 37.5465 39.1121 38.3469 38.3498L35.7931 36.6726C34.5353 35.7578 32.82 35.7578 31.5622 36.6726L29.6944 37.9686ZM30.6854 39.8363L30.2662 40.1413C30.4949 40.2937 32.6294 41.8565 32.7819 41.9709C33.6586 41.6278 34.4971 41.1704 35.2976 40.713C35.1451 40.5987 34.6877 40.3318 33.5061 39.6457C32.5151 39.074 31.6002 39.1502 30.6854 39.8363ZM26.2258 0.995516C12.4657 0.995516 1.22134 12.2018 1.22134 26C1.22134 39.7982 12.4276 51.0045 26.2258 51.0045C40.024 51.0045 51.2303 39.7982 51.2303 26C51.2303 12.2018 40.024 0.995516 26.2258 0.995516ZM26.2258 51.5C12.1608 51.5 0.72583 40.065 0.72583 26C0.72583 11.935 12.1608 0.5 26.2258 0.5C40.2908 0.5 51.7258 11.935 51.7258 26C51.7258 40.065 40.2908 51.5 26.2258 51.5ZM44.4455 23.1413C44.3312 22.4933 44.4837 22.074 44.5599 21.9215C44.7123 21.8072 45.246 21.6166 45.589 21.5785C45.6653 21.6166 45.6653 21.7309 45.6272 21.7691C45.246 21.9215 44.5599 22.3408 44.6743 23.2556C44.7886 23.9036 45.246 24.1323 45.7034 24.0942C46.0464 24.0561 46.3895 23.9417 46.6945 23.3318L47.0756 22.5314C47.2662 22.1121 47.6473 21.6166 48.2572 21.5404C48.9814 21.426 49.6294 21.9215 49.7819 22.9126C49.82 23.1413 49.82 23.4462 49.7819 23.6368C49.7819 23.7511 49.7819 23.8274 49.7819 23.9036C49.5913 23.9798 49.2101 24.1323 48.8671 24.1704C48.829 24.1323 48.7909 24.0179 48.829 23.9798C49.172 23.8274 49.6294 23.5605 49.5532 22.8363C49.4389 22.074 48.9433 21.9978 48.5621 22.074C48.1047 22.1502 47.8379 22.5314 47.7236 22.8363L47.4186 23.4843C47.1899 24.0179 46.8088 24.5516 46.0846 24.6659C45.2841 24.704 44.598 24.1323 44.4455 23.1413ZM44.8267 16.0897C44.6361 16.1278 44.6362 16.1278 44.7124 16.3184L45.1317 17.1569C45.246 17.3475 45.2841 17.3475 45.4366 17.1951L46.3895 16.2803C46.542 16.1278 46.6944 15.9753 46.7326 15.8991C46.6944 15.8991 46.5038 15.8991 46.237 15.9372L44.8267 16.0897ZM44.8648 17.7668C44.9792 17.6525 45.0173 17.6143 44.903 17.3856L44.4074 16.3565C44.3312 16.204 44.2931 16.1659 44.1025 16.1659L43.2639 16.2803C42.8828 16.3184 42.6922 16.3565 42.616 16.3946C42.5397 16.4327 42.5016 16.509 42.5779 16.6614L42.6541 16.8901C42.6541 16.9664 42.5397 17.0045 42.4635 16.9664C42.3873 16.7758 42.2729 16.5852 42.1204 16.2422C42.0061 16.0135 41.8536 15.7848 41.7774 15.5942C41.7774 15.5561 41.8918 15.4798 41.9299 15.4798L42.0442 15.7085C42.1586 15.861 42.2729 15.9753 42.5779 15.9753C42.959 15.9372 43.4926 15.9372 44.4074 15.8229L46.6182 15.6323C46.9231 15.5942 47.0756 15.5942 47.1518 15.5179C47.2662 15.6704 47.4568 15.7085 47.5711 15.7466C47.6092 15.7848 47.6092 15.861 47.5711 15.8991C47.3043 16.1278 47.0375 16.3946 46.8088 16.6614L44.4837 18.9484C43.9882 19.4439 43.9119 19.5964 44.0263 19.9013L44.1025 20.0919C44.1025 20.1682 43.9882 20.2063 43.9501 20.1682C43.8357 19.8632 43.7213 19.6345 43.5689 19.3296C43.4164 18.9865 43.2639 18.7578 43.1496 18.5291C43.1496 18.4529 43.264 18.4148 43.3021 18.4148L43.4164 18.6054C43.4927 18.7578 43.5689 18.8341 43.6451 18.796C43.7214 18.7578 43.8357 18.6816 43.9882 18.5291L44.8648 17.7668ZM40.8626 12.7354C40.2909 13.2691 40.2146 13.3834 40.4814 13.7265L40.6339 13.917C40.6339 13.9552 40.5196 14.0695 40.4814 14.0314C40.1765 13.6883 40.024 13.4978 39.7953 13.2691C39.6047 13.0404 39.4142 12.8498 39.0711 12.5067C39.0711 12.4686 39.1474 12.3543 39.2236 12.3924L39.4142 12.583C39.7572 12.8879 39.8716 12.8117 40.4433 12.278L42.959 9.95291C43.1496 9.80045 43.1496 9.80045 42.9971 9.60986L42.7303 9.30493C42.5016 9.07623 42.1967 8.7713 41.9299 8.73318C41.6631 8.69507 41.5106 8.7713 41.32 8.84753C41.2438 8.84753 41.2057 8.73318 41.2057 8.65695C41.5487 8.50448 41.968 8.27578 42.2348 8.0852C42.2729 8.0852 42.3492 8.16143 42.3492 8.19955C42.1967 8.39013 42.3873 8.58072 42.616 8.84753L44.7505 11.1345C45.0173 11.4395 45.0936 11.4776 45.3223 11.4395C45.3604 11.4776 45.3985 11.5157 45.3985 11.5538C45.0935 11.7063 44.6362 12.0874 44.4837 12.278C44.4075 12.278 44.3312 12.2018 44.3312 12.1256C44.4455 11.9731 44.6362 11.7444 44.598 11.5919C44.5599 11.3632 44.4075 11.1345 44.1407 10.7915L43.7595 10.4103C43.607 10.2578 43.607 10.2578 43.4164 10.4103L40.8626 12.7354ZM37.8133 6.713C38.2326 6.02691 38.3088 5.91255 37.9276 5.64574L37.7751 5.53139C37.737 5.49327 37.8514 5.37892 37.8895 5.37892C38.1944 5.60762 38.4231 5.76009 38.69 5.91256C38.9568 6.06502 39.1855 6.21749 39.4904 6.40807C39.5285 6.44619 39.4523 6.56053 39.4142 6.56053L39.2617 6.4843C38.8424 6.29372 38.7662 6.36995 38.3469 7.05605L36.8985 9.38117C36.4792 10.0673 36.4411 10.1816 36.7841 10.4484L36.9366 10.5628C36.9747 10.6009 36.8603 10.7152 36.8222 10.7152C36.5173 10.4865 36.2886 10.3722 36.0218 10.1816C35.755 9.99103 35.5263 9.87668 35.1832 9.6861C35.1451 9.64798 35.2214 9.53363 35.2595 9.53363L35.45 9.60986C35.8693 9.80045 35.9456 9.72421 36.3648 9.03812L37.8133 6.713ZM31.6384 8.35202C31.0285 8.16143 30.6854 7.8565 30.5711 7.70403C30.533 7.51345 30.6092 6.97982 30.6854 6.63677C30.7236 6.59865 30.8379 6.59865 30.876 6.67489C30.876 7.09417 30.9523 7.89462 31.7909 8.16143C32.4007 8.35202 32.82 8.04708 32.9725 7.58968C33.0868 7.28475 33.125 6.90359 32.7057 6.36996L32.172 5.68386C31.8671 5.34081 31.6003 4.76906 31.7909 4.15919C32.0196 3.47309 32.7438 3.09193 33.6967 3.35874C33.9254 3.43498 34.1541 3.54933 34.3447 3.66368C34.4209 3.70179 34.5352 3.77803 34.5734 3.77803C34.5734 3.96861 34.5353 4.42601 34.4209 4.73094C34.3828 4.76906 34.2684 4.76906 34.2303 4.69282C34.2303 4.31166 34.1922 3.77802 33.5061 3.54932C32.7819 3.32062 32.4769 3.73991 32.3626 4.08296C32.2101 4.50224 32.477 4.92152 32.7057 5.18834L33.1631 5.72197C33.5442 6.14125 33.8491 6.713 33.6204 7.3991C33.3536 8.27578 32.5913 8.65695 31.6384 8.35202ZM25.5778 4.61659C25.5778 4.76906 25.5779 4.84529 25.616 4.88341C25.6541 4.92152 25.7685 4.92152 26.1496 4.92152C26.4164 4.92152 26.7213 4.88341 26.95 4.73094C27.1406 4.57847 27.3312 4.31166 27.3312 3.77803C27.3312 3.16816 26.9881 2.59641 26.1115 2.59641C25.6541 2.59641 25.616 2.63453 25.616 2.82511L25.5778 4.61659ZM24.968 3.51121C24.968 2.787 24.968 2.63453 24.6631 2.59641L24.4343 2.5583C24.3962 2.52018 24.3962 2.40583 24.4343 2.36771C24.8536 2.3296 25.3873 2.32959 26.1496 2.32959C26.607 2.32959 27.0644 2.36771 27.4074 2.59641C27.7886 2.78699 28.0554 3.13004 28.0173 3.66368C28.0173 4.38789 27.4075 4.76906 27.0263 4.92152C26.9882 4.95964 27.0263 5.03587 27.0644 5.11211C27.6742 6.10314 28.0554 6.75112 28.5891 7.1704C28.7034 7.28475 28.894 7.36098 29.1227 7.3991C29.1608 7.3991 29.1608 7.47533 29.1227 7.51345C29.0465 7.55157 28.9321 7.55157 28.7796 7.55157C28.1316 7.55157 27.7505 7.32287 27.2169 6.56053C27.0263 6.2556 26.7214 5.72197 26.4927 5.37892C26.3783 5.22646 26.264 5.15022 25.959 5.11211C25.616 5.11211 25.5778 5.11211 25.5778 5.26457V6.21749C25.5778 7.01794 25.5779 7.13229 26.0353 7.1704L26.1877 7.20852C26.2258 7.24663 26.2258 7.36098 26.1877 7.3991C25.8447 7.36098 25.5778 7.36098 25.2729 7.36098C24.9298 7.36098 24.663 7.36098 24.32 7.36098C24.2819 7.32287 24.2819 7.20852 24.32 7.1704L24.5106 7.13229C24.968 7.09417 24.968 6.97982 24.968 6.17937V3.51121ZM18.5644 4.80718C18.3357 4.04484 18.2976 3.93049 17.8402 4.00673L17.7258 4.04484C17.6877 4.04484 17.6496 3.89238 17.6877 3.85426C17.9926 3.77803 18.2595 3.70179 18.5644 3.62556L19.9366 3.20628C20.394 3.05381 20.8514 2.93946 20.9276 2.90135C21.0039 3.0157 21.1944 3.51121 21.3469 3.85426C21.3088 3.89238 21.2326 3.96861 21.1563 3.93049C20.9276 3.62556 20.8133 3.39686 20.394 3.39686C20.2415 3.39686 19.9747 3.47309 19.6698 3.54932L19.1362 3.70179C18.9075 3.77802 18.9074 3.77803 18.9837 4.08296L19.4411 5.53139C19.5173 5.76009 19.5173 5.72197 19.746 5.64574L20.1653 5.53139C20.4702 5.45516 20.6989 5.3408 20.7752 5.30269C20.8514 5.26457 20.8895 5.18834 20.8895 4.99776L20.8514 4.69282C20.8895 4.65471 21.0039 4.61659 21.042 4.65471C21.0801 4.84529 21.1563 5.11211 21.2325 5.41704C21.3088 5.68386 21.4231 5.95067 21.4613 6.10314C21.4613 6.14125 21.3088 6.21749 21.2707 6.17937L21.1182 5.91256C21.042 5.79821 20.9657 5.68386 20.8133 5.68386C20.6989 5.68386 20.5084 5.72197 20.2415 5.7982L19.8223 5.91256C19.5936 5.98879 19.5935 5.98879 19.6317 6.17937L19.9366 7.20852C20.0509 7.58968 20.1653 7.8565 20.3178 7.93273C20.4321 8.00897 20.6227 8.04709 21.2707 7.81839C21.8424 7.66592 22.033 7.55157 22.1855 7.43722C22.2998 7.32287 22.4142 7.01793 22.4904 6.56053C22.5285 6.52242 22.6429 6.4843 22.681 6.56053C22.7191 6.82735 22.681 7.43722 22.6429 7.66592C21.9568 7.8565 21.3088 8.04708 20.6608 8.23767L20.0128 8.42825C19.7079 8.50448 19.4411 8.61883 19.0218 8.73318C18.9837 8.73318 18.9074 8.61883 18.9456 8.5426L19.1742 8.46636C19.5935 8.3139 19.5935 8.16143 19.3648 7.3991L18.5644 4.80718ZM12.542 7.66592C12.1608 7.3991 11.9702 7.32287 11.6653 7.47534L11.5509 7.55157C11.4747 7.55157 11.4366 7.43722 11.4747 7.36098C11.6653 7.24663 11.894 7.13229 12.1608 6.9417C12.4276 6.75112 12.6563 6.59865 12.9231 6.44619C12.9994 6.44619 13.0756 6.52242 13.0375 6.59865L12.9231 6.63677C12.6944 6.82735 12.6563 6.90359 12.6944 6.9417C12.7326 6.97982 13.0756 7.28475 13.6092 7.6278C14.3716 8.19955 15.1339 8.73318 15.9343 9.26681C15.8581 8.69506 15.7056 7.8565 15.6675 7.43722C15.5913 6.86547 15.4007 5.95067 15.3626 5.60762C15.3245 5.41704 15.2864 5.37892 15.2482 5.30269C15.2101 5.26457 15.1339 5.26457 14.8671 5.37892L14.7527 5.45515C14.6765 5.45515 14.6384 5.3408 14.6765 5.30269C14.8671 5.18834 15.0958 5.03587 15.3626 4.88341C15.5913 4.76906 15.7819 4.61659 15.9725 4.46413C16.0487 4.46413 16.0868 4.57847 16.0868 4.61659L15.8962 4.76906C15.7438 4.88341 15.7057 5.03587 15.7057 5.18834C15.7057 5.60762 15.7819 6.29372 15.9343 7.13229L16.0868 8.16143C16.2012 8.92376 16.3536 9.87668 16.468 10.296C16.468 10.3341 16.4299 10.3341 16.3918 10.3722C16.3536 10.4103 16.3155 10.4103 16.2774 10.4103C16.0487 10.1816 15.7057 9.95292 15.4388 9.72422L12.542 7.66592ZM9.95004 10.5247C9.37829 9.95292 9.26395 9.87668 8.9209 10.1816L8.76843 10.296C8.73032 10.296 8.61597 10.1816 8.65409 10.1435C8.9209 9.87668 9.11149 9.6861 9.34019 9.4574C9.56889 9.2287 9.72135 9.03812 9.98816 8.7713C10.0263 8.7713 10.1406 8.84753 10.1406 8.88565L10.0263 9.03812C9.75947 9.38116 9.8357 9.49551 10.4074 10.0673L12.3514 11.9731C12.9232 12.5448 13.0375 12.6211 13.3805 12.3161L13.533 12.2018C13.5711 12.2018 13.6855 12.3161 13.6474 12.3543C13.3805 12.6211 13.19 12.8117 12.9613 13.0022C12.7326 13.2309 12.5801 13.4215 12.3133 13.7265C12.2752 13.7265 12.1608 13.6502 12.1608 13.6121L12.2752 13.4596C12.542 13.0785 12.4657 13.0022 11.894 12.4305L9.95004 10.5247ZM9.87382 14.5269C10.0644 14.6413 10.8648 15.0987 11.0554 15.1368C11.0935 15.1749 11.0935 15.2511 11.0554 15.3274C10.903 15.3274 10.5599 15.4036 9.56888 15.6323L6.93882 16.204C6.63389 16.2803 5.83345 16.4327 5.60475 16.4708C5.68098 16.5471 5.83345 16.6233 6.02403 16.7377L7.47245 17.5381C7.77739 17.7287 8.65409 18.1861 8.9209 18.1861C8.99714 18.1861 9.11149 18.0717 9.22584 17.9193L9.37828 17.7287C9.45452 17.7287 9.53075 17.7668 9.53075 17.843C9.34017 18.148 9.22584 18.3767 9.07337 18.6054C8.92091 18.8722 8.80653 19.0628 8.69218 19.3296C8.61595 19.3677 8.53974 19.2915 8.50162 19.2534L8.57784 19.0628C8.65407 18.9103 8.65408 18.7578 8.61596 18.6816C8.42538 18.4529 7.58682 17.9955 7.28189 17.843L5.33793 16.7758C5.14735 16.6614 4.99488 16.5852 4.76618 16.6614C4.61371 16.6996 4.49937 16.852 4.38502 17.0045L4.3088 17.1188C4.23257 17.1569 4.15633 17.0807 4.15633 17.0045C4.34691 16.7377 4.53748 16.3946 4.61371 16.2422C4.68994 16.1278 4.72806 16.0134 4.76618 15.9372C5.18546 15.9753 6.51955 15.7085 6.8626 15.5942L7.96799 15.3655C8.73032 15.1749 9.30205 15.0605 9.79757 14.9462C9.75945 14.9081 9.68322 14.8318 9.53075 14.7556L8.08233 13.9552C7.7774 13.7646 6.90073 13.3072 6.63391 13.3072C6.55768 13.3072 6.44331 13.3834 6.25272 13.6502L6.1765 13.7646C6.10027 13.8027 5.98592 13.7265 6.02403 13.6502C6.21462 13.3453 6.32898 13.1166 6.48144 12.8879C6.63391 12.583 6.74825 12.4305 6.8626 12.2018C6.93884 12.1637 7.01505 12.2018 7.05317 12.278L7.01507 12.3924C6.93884 12.6211 6.90071 12.7735 6.93882 12.8498C7.12941 13.1166 7.968 13.5359 8.27293 13.7265L9.87382 14.5269ZM5.14734 20.5493C4.68994 20.4731 3.81327 20.3206 3.54645 20.435C3.4321 20.4731 3.35588 20.5874 3.31776 20.778L3.27963 20.9686C3.2034 21.0067 3.12719 20.9686 3.08907 20.9305C3.1653 20.6637 3.20339 20.3587 3.24151 20.0919C3.27963 19.787 3.31777 19.5583 3.35588 19.2915C3.394 19.2534 3.50833 19.2534 3.54645 19.2915V19.4821C3.54645 19.6726 3.58456 19.8251 3.66079 19.9013C3.88949 20.0538 4.76618 20.2063 5.18546 20.2825L6.02403 20.435C6.67202 20.5493 7.3581 20.778 7.73927 21.2735C8.0442 21.6547 8.12044 22.2646 8.04421 22.7982C7.96798 23.3318 7.7774 23.8274 7.39623 24.1323C7.01507 24.4753 6.40521 24.5516 5.52853 24.4372L3.73704 24.1323C2.9366 24.0179 2.82223 23.9798 2.70788 24.4372L2.66978 24.6278C2.63167 24.6659 2.51731 24.6278 2.47919 24.5897C2.55542 24.2085 2.63167 23.9417 2.66978 23.6749C2.7079 23.37 2.74602 23.1031 2.82225 22.7601C2.86037 22.722 2.9747 22.722 3.01282 22.7601V22.9507C2.9747 23.4081 3.08907 23.4462 3.88951 23.5605L5.52853 23.8274C6.74826 24.0561 7.62494 23.7892 7.81552 22.6457C8.0061 21.5404 7.20566 21.0067 6.06216 20.778L5.14734 20.5493Z" fill="#060400"/>
    <path d="M6.63409 32.4796C6.4435 32.5558 6.40537 32.5558 6.55784 32.937C6.86277 33.6612 7.20581 33.9661 7.89191 33.7374C8.57801 33.4706 8.65425 32.8608 8.46367 32.3271C8.42555 32.1747 8.34931 32.0603 8.3112 32.0222C8.27308 31.946 8.23497 31.946 8.08251 31.9841L6.63409 32.4796ZM4.95695 33.0895C4.69013 33.2038 4.34707 33.3182 4.23272 33.5469C4.11837 33.7374 4.15649 33.9661 4.23272 34.1948C4.46142 34.8428 4.91883 35.224 5.64305 34.9572C6.2148 34.7285 6.74843 34.233 6.32915 33.0895C6.17668 32.7083 6.13855 32.6702 5.98608 32.7464L4.95695 33.0895ZM7.35828 31.5267C7.89191 31.3361 8.00627 31.2599 7.93004 30.9168L7.85382 30.6881C7.89193 30.6119 8.00626 30.5738 8.04438 30.6119C8.23496 30.993 8.42556 31.4504 8.65426 32.1365C8.80673 32.5939 8.95918 33.0513 8.88295 33.4325C8.84483 33.8137 8.65425 34.1567 8.19685 34.3092C7.70134 34.4998 7.32016 34.3092 6.939 33.928C6.86276 33.9661 6.86278 34.0042 6.9009 34.1186C6.97713 34.5379 6.82466 35.224 6.06233 35.5289C5.22377 35.8338 4.42331 35.4146 3.96591 34.1186C3.88967 33.928 3.77532 33.5469 3.66097 33.2419C3.54662 32.937 3.43228 32.6702 3.31793 32.4415C3.31793 32.4034 3.43229 32.3271 3.50853 32.3652L3.58475 32.4796C3.77533 32.8226 3.88967 32.8226 4.61388 32.5558L7.35828 31.5267Z" fill="#060400"/>
    <path d="M9.64517 36.8249C10.2932 36.3675 10.3694 36.2532 10.1407 35.872L10.0645 35.7577C10.0645 35.6814 10.1788 35.6433 10.2169 35.6433C10.4075 35.9101 10.56 36.1388 10.7506 36.3675L11.6273 37.511C11.9322 37.8922 12.199 38.2734 12.2752 38.3115C12.199 38.4258 11.7797 38.807 11.551 39.0357C11.5129 39.0357 11.3985 38.9594 11.4367 38.8832C11.6654 38.5783 11.8178 38.3496 11.6654 37.9684C11.5891 37.816 11.4748 37.6254 11.2461 37.3586L10.903 36.9012C10.7506 36.7106 10.7506 36.7106 10.5219 36.9012L9.30214 37.816C9.14967 37.9303 9.14966 37.9684 9.26401 38.159L9.53083 38.5021C9.72141 38.7689 9.87388 38.9595 9.95011 38.9976C10.0263 39.0357 10.1026 39.0738 10.2932 38.9976L10.5981 38.8451C10.6362 38.8451 10.7506 38.9595 10.7125 38.9976C10.56 39.1119 10.2932 39.2644 10.0645 39.455C9.83576 39.6074 9.6452 39.8361 9.49273 39.9124C9.4165 39.9124 9.34024 39.8361 9.37836 39.7599L9.56895 39.5312C9.64519 39.4168 9.72141 39.3025 9.64517 39.15C9.60706 39.0357 9.49272 38.8832 9.30214 38.6545L9.03532 38.3115C8.88286 38.1209 8.88285 38.1209 8.73038 38.2352L7.85372 38.8832C7.54879 39.1119 7.32008 39.3025 7.28196 39.4931C7.28196 39.6074 7.28197 39.798 7.70125 40.3316C8.0443 40.789 8.19676 40.9796 8.38735 41.0559C8.53981 41.1321 8.88286 41.1321 9.30214 41.0559C9.37837 41.094 9.41648 41.1702 9.37836 41.2464C9.11154 41.3608 8.5398 41.5514 8.3111 41.6276C7.89182 41.0559 7.51065 40.5222 7.09137 39.9505L6.67208 39.4169C6.4815 39.15 6.32904 38.9594 6.02411 38.5783C6.02411 38.5402 6.10035 38.4258 6.17658 38.4639L6.32905 38.6545C6.63398 38.9595 6.74833 38.9595 7.39631 38.4639L9.64517 36.8249Z" fill="#060400"/>
    <path d="M13.4185 42.5049C13.3423 42.6193 13.3042 42.6955 13.3042 42.7336C13.3042 42.7717 13.3804 42.848 13.7234 43.0767C13.9521 43.2291 14.2189 43.3816 14.4858 43.3816C14.7526 43.3816 15.0575 43.2673 15.3624 42.848C15.7055 42.3525 15.7436 41.6664 15.0575 41.1708C14.6763 40.904 14.6382 40.904 14.5239 41.0946L13.4185 42.5049ZM13.5328 41.2471C13.9521 40.6753 14.0284 40.5229 13.7615 40.3323L13.571 40.1798C13.5329 40.1036 13.6091 40.0273 13.6853 40.0273C14.0665 40.256 14.4857 40.5229 15.0956 40.9803C15.4768 41.2471 15.8198 41.552 16.0104 41.8951C16.201 42.2762 16.201 42.6955 15.8961 43.1529C15.4768 43.7247 14.7907 43.7246 14.3714 43.6484C14.3333 43.6484 14.2952 43.7628 14.2952 43.839C14.2189 44.9825 14.1808 45.7448 14.3714 46.3928C14.4095 46.5453 14.5239 46.7359 14.6763 46.8883C14.7144 46.9264 14.6763 46.9646 14.6382 46.9646C14.562 46.9264 14.4476 46.8883 14.3333 46.8121C13.7997 46.4309 13.6091 46.0498 13.6091 45.0969C13.6091 44.7538 13.6472 44.1439 13.6853 43.7247C13.6853 43.5341 13.6472 43.3816 13.3804 43.2291C13.1136 43.0386 13.0754 43.0386 12.9992 43.1529L12.4275 43.9534C11.9701 44.6013 11.9319 44.6776 12.2369 44.9825L12.3512 45.0969C12.3512 45.135 12.275 45.2493 12.2369 45.2493C11.9701 45.0206 11.7414 44.8681 11.5127 44.7157C11.2459 44.5251 11.0172 44.3726 10.7122 44.1821C10.6741 44.1439 10.7503 44.0296 10.8266 44.0296L10.979 44.1058C11.3602 44.3345 11.4364 44.2583 11.8938 43.6103L13.5328 41.2471Z" fill="#060400"/>
    <path d="M21.309 48.4506C21.2328 48.7555 21.1946 48.9461 21.309 49.0224C21.309 49.0605 21.309 49.0986 21.2709 49.0986C21.1946 49.0605 21.0422 49.0605 20.8897 49.0605C20.4704 49.0224 19.9368 48.9461 19.5175 48.8318C18.6408 48.565 17.9166 48.0695 17.5354 47.3071C17.2305 46.7354 17.1924 46.0874 17.383 45.4394C17.5736 44.8295 17.9928 44.2578 18.6027 43.9147C19.2507 43.5717 20.0893 43.4573 21.1946 43.8004C21.6139 43.9147 21.957 44.1434 22.0713 44.2197C22.1857 44.2959 22.4144 44.4103 22.4906 44.4103C22.4144 44.639 22.3381 45.0582 22.2619 45.5156C22.2238 45.5538 22.1094 45.5156 22.0713 45.4775C22.1094 44.639 21.652 44.2197 20.8897 43.9529C19.4794 43.4955 18.5265 44.334 18.1834 45.4013C17.726 46.8116 18.1072 48.1457 19.5937 48.6031C20.0511 48.7556 20.3561 48.7174 20.4704 48.6412C20.5085 48.6031 20.6229 48.4887 20.661 48.26L20.7372 47.9551C20.9278 47.3452 20.9278 47.3071 20.4704 47.1165L20.1655 46.9641C20.1274 46.926 20.1655 46.7735 20.2417 46.7735C20.4323 46.8497 20.8516 47.0022 21.2709 47.1165C21.5377 47.1928 21.8045 47.269 22.0713 47.3452C22.1094 47.3834 22.0713 47.4977 22.0332 47.5358L21.9188 47.4977C21.6139 47.4215 21.5377 47.6502 21.4233 47.9932L21.309 48.4506Z" fill="#060400"/>
    <path d="M25.3872 45.7827C25.3872 44.9823 25.3492 44.8679 24.8918 44.8298H24.7774C24.7393 44.7917 24.7393 44.6773 24.7774 44.6392C25.1205 44.6392 25.3491 44.6392 25.6922 44.6392L27.1406 44.6011C27.6362 44.6011 28.0936 44.6011 28.1698 44.563C28.2079 44.6773 28.2841 45.2491 28.3222 45.5921C28.2841 45.6302 28.1698 45.6684 28.1316 45.5921C28.0173 45.2491 27.9411 44.9823 27.5218 44.8679C27.3694 44.8298 27.1025 44.8298 26.7594 44.8298H26.2258C25.9971 44.8298 25.9971 44.8298 25.9971 45.1347L26.0353 46.6594C26.0353 46.8881 26.0734 46.8881 26.3021 46.8881H26.7594C27.0644 46.8881 27.3312 46.85 27.4074 46.85C27.4837 46.8119 27.5599 46.7737 27.598 46.5832L27.6743 46.2782C27.7124 46.2401 27.8267 46.2401 27.8649 46.2782C27.8649 46.4688 27.8267 46.7737 27.8649 47.0406C27.8649 47.3074 27.903 47.6123 27.903 47.7648C27.8648 47.8029 27.7505 47.8029 27.7124 47.7648L27.6362 47.4598C27.5981 47.3074 27.5599 47.193 27.4074 47.1549C27.2931 47.1168 27.1025 47.1168 26.8357 47.1168H26.3783C26.1496 47.1168 26.1115 47.1168 26.1115 47.3455L26.1496 48.4128C26.1496 48.832 26.1877 49.0607 26.3021 49.2132C26.3783 49.2894 26.5689 49.3657 27.2169 49.3657C27.7886 49.3657 28.0173 49.3276 28.2079 49.2513C28.3604 49.1751 28.5509 48.9083 28.7415 48.489C28.7796 48.4509 28.894 48.4509 28.9321 48.5271C28.894 48.7939 28.7034 49.4038 28.5891 49.5944C27.903 49.5944 27.2169 49.5944 26.5308 49.5944H25.8447C25.5016 49.5944 25.2729 49.5944 24.8155 49.6325C24.7774 49.5944 24.7393 49.48 24.8155 49.4419L25.0824 49.4038C25.5398 49.3657 25.5397 49.2513 25.5397 48.4509L25.3872 45.7827Z" fill="#060400"/>
    <path d="M36.5173 45.9728C36.5935 46.2015 36.9366 47.0401 37.0509 47.1926C37.0509 47.2307 37.0128 47.3069 36.9365 47.3069C36.7841 47.2307 36.4792 47.0401 35.6025 46.5827L33.2011 45.363C32.9343 45.2105 32.2101 44.8293 31.9814 44.715C31.9814 44.8293 32.0576 44.9818 32.1339 45.1724L32.7437 46.7352C32.8962 47.0782 33.2393 47.993 33.468 48.1455C33.5442 48.2217 33.6967 48.1836 33.8873 48.1455L34.1159 48.0692C34.1922 48.1074 34.1922 48.1836 34.154 48.2598C33.811 48.3742 33.5823 48.4504 33.3155 48.5648C33.0105 48.6791 32.8199 48.7553 32.5912 48.8697C32.515 48.8697 32.4769 48.7553 32.5151 48.6791L32.7056 48.6029C32.8581 48.5266 32.9724 48.4123 32.9724 48.3361C32.9724 48.0311 32.6294 47.1926 32.4769 46.8495L31.6383 44.7912C31.5621 44.6006 31.4859 44.4482 31.2572 44.3338C31.1047 44.2576 30.9141 44.2957 30.7617 44.3338L30.6473 44.3719C30.6092 44.3338 30.533 44.2576 30.6092 44.1813C30.9142 44.067 31.2953 43.9526 31.4096 43.8764C31.524 43.8383 31.6383 43.7621 31.7146 43.7239C32.0195 44.0289 33.2011 44.6387 33.5442 44.7912L34.5352 45.2867C35.2594 45.6298 35.755 45.8966 36.2124 46.0872C36.2124 46.0491 36.1742 45.9347 36.1361 45.7822L35.5262 44.2576C35.3738 43.9145 35.0307 42.9997 34.802 42.8473C34.7258 42.8091 34.6115 42.8091 34.3065 42.8854L34.1922 42.9235C34.116 42.8854 34.0778 42.771 34.154 42.7329C34.4971 42.6186 34.7258 42.5423 34.9926 42.428C35.2975 42.3136 35.4881 42.2374 35.7168 42.123C35.7931 42.123 35.8312 42.2374 35.7931 42.3136L35.7168 42.3518C35.4881 42.4661 35.3738 42.5805 35.3738 42.6567C35.3357 42.9616 35.7168 43.8383 35.8693 44.1432L36.5173 45.9728Z" fill="#060400"/>
    <path d="M41.8537 43.9526C41.3582 44.3719 40.9389 44.4862 40.7864 44.5243C40.5958 44.4481 40.1766 44.1051 39.9098 43.8764C39.9098 43.8001 39.986 43.7239 40.0241 43.7239C40.3672 43.9526 41.0913 44.2956 41.7774 43.7239C42.273 43.3046 42.1968 42.771 41.9299 42.4279C41.7012 42.1611 41.3963 41.9324 40.7483 42.0468L39.8716 42.1611C39.4142 42.2373 38.8043 42.1992 38.3851 41.7037C37.8895 41.1701 37.9277 40.3315 38.69 39.6835C38.8806 39.5311 39.1093 39.3786 39.2999 39.3024C39.4142 39.2642 39.4905 39.188 39.5286 39.1499C39.681 39.2261 40.0241 39.5311 40.2528 39.7598C40.2528 39.7979 40.1766 39.9122 40.1385 39.9122C39.8335 39.6835 39.338 39.4548 38.8043 39.9503C38.2326 40.4459 38.4613 40.9414 38.69 41.2082C38.9949 41.5512 39.4904 41.5512 39.7954 41.475L40.5196 41.3607C41.0913 41.2463 41.7393 41.2844 42.1967 41.8181C42.6922 42.4279 42.616 43.2665 41.8537 43.9526Z" fill="#060400"/>
    <path d="M42.5779 37.1299C41.8918 36.6725 41.7774 36.6344 41.5106 36.9775L41.3963 37.1299C41.3582 37.1681 41.2438 37.0537 41.2438 37.0156C41.4725 36.7106 41.6249 36.482 41.7774 36.2151C41.9299 35.9483 42.0824 35.7577 42.2729 35.4147C42.3111 35.3766 42.4254 35.4528 42.4254 35.4909L42.3492 35.6434C42.1205 36.0246 42.2348 36.1389 42.9209 36.5582L45.2079 38.0447C45.894 38.5021 45.9703 38.5403 46.2752 38.1972L46.3895 38.0447C46.4277 38.0447 46.542 38.121 46.542 38.1591C46.3133 38.464 46.1608 38.6927 46.0083 38.9214C45.8178 39.1882 45.7034 39.4169 45.5128 39.76C45.4747 39.7981 45.3604 39.7219 45.3604 39.6837L45.4366 39.4932C45.6272 39.0739 45.5509 39.0358 44.8648 38.5784L42.5779 37.1299Z" fill="#060400"/>
    <path d="M48.7909 33.5466C48.6003 34.1564 48.2572 34.4995 48.1429 34.5757C47.9523 34.6138 47.4187 34.5376 47.0756 34.4233C47.0375 34.3851 47.0757 34.2708 47.1138 34.2327C47.5331 34.2327 48.3335 34.1946 48.6003 33.356C48.7909 32.7461 48.486 32.3268 48.0667 32.1744C47.7618 32.06 47.3806 32.0219 46.8469 32.4412L46.1609 32.9748C45.8178 33.2416 45.246 33.5466 44.6362 33.356C43.9501 33.1273 43.5689 32.4031 43.8739 31.4502C43.9501 31.2215 44.0644 30.9928 44.1788 30.8022C44.2169 30.726 44.2931 30.6116 44.2931 30.5735C44.4837 30.5735 44.903 30.6497 45.208 30.7259C45.2461 30.7641 45.2079 30.8784 45.1698 30.9165C44.7886 30.9165 44.255 30.9546 44.0263 31.6407C43.7976 32.365 44.2169 32.6699 44.5599 32.7842C44.9792 32.9367 45.3985 32.6699 45.6653 32.4793L46.2371 32.0219C46.6563 31.6789 47.2281 31.3358 47.9142 31.5645C48.7528 31.8313 49.0958 32.6318 48.7909 33.5466Z" fill="#060400"/>
</svg>
