<svg width="311" height="48" viewBox="0 0 311 48" fill="none" xmlns="http://www.w3.org/2000/svg">
    <path d="M40.9977 0.0361454C41.1084 4.19277 40.8501 9.10843 40.3336 13.7349C39.6325 23.4217 36.2748 32.6024 29.9284 39.6867C27.3825 42.759 24.2093 45.6145 20.9623 48C11.1107 41.3855 4.21088 30.7229 2.32911 18.9036C1.33287 12.4699 0.89004 6.39759 1.00073 0H40.9977V0.0361454Z" fill="#E7070F"/>
    <path d="M36.4225 16.8801C36.1273 16.8801 35.8321 16.9523 35.5738 17.0608C35.6845 16.8078 35.7584 16.5548 35.7584 16.2656C35.7584 15.2536 34.9466 14.4584 33.9135 14.4584C32.8804 14.4584 32.0686 15.2897 32.0686 16.2656C32.0686 16.627 32.1793 16.9523 32.3638 17.2415L31.22 16.9885H22.6966V8.20536L22.4383 7.08488C22.7335 7.2656 23.0656 7.37404 23.4346 7.37404C24.4677 7.37404 25.2795 6.57885 25.2795 5.56681C25.2795 4.55476 24.4308 3.75958 23.4346 3.75958C23.1394 3.75958 22.8811 3.83187 22.6229 3.9403C22.7336 3.68729 22.8073 3.43428 22.8073 3.14512C22.8073 2.13307 21.9956 1.33789 20.9624 1.33789C19.9293 1.33789 19.1175 2.13307 19.1175 3.14512C19.1175 3.43428 19.1913 3.68729 19.302 3.9403C19.0437 3.83187 18.7855 3.75958 18.5272 3.75958C17.494 3.75958 16.6823 4.55476 16.6823 5.56681C16.6823 6.57885 17.5309 7.37404 18.5272 7.37404C18.8961 7.37404 19.1914 7.2656 19.4865 7.12102L19.2282 8.20536V16.9885H10.7049L9.59802 17.2415C9.78251 16.9523 9.89315 16.627 9.89315 16.2656C9.89315 15.2536 9.0814 14.4584 8.04827 14.4584C7.01514 14.4584 6.20339 15.2897 6.20339 16.2656C6.20339 16.5548 6.27714 16.8078 6.38783 17.0608C6.12955 16.9523 5.87126 16.8801 5.57608 16.8801C4.54295 16.8801 3.7312 17.6752 3.7312 18.6873C3.7312 19.6993 4.54295 20.4945 5.57608 20.4945C5.87126 20.4945 6.12955 20.4222 6.38783 20.3138C6.27714 20.5307 6.20339 20.8198 6.20339 21.0728C6.20339 22.0849 7.01514 22.8801 8.04827 22.8801C9.0814 22.8801 9.89315 22.0849 9.89315 21.0728C9.89315 20.7114 9.78243 20.3861 9.63484 20.1331L10.7418 20.3861H19.2652V29.7837V38.5668L19.5235 39.6511C19.2283 39.4704 18.9331 39.3981 18.5641 39.3981C17.531 39.3981 16.7192 40.1933 16.7192 41.2054C16.7192 42.2174 17.5679 43.0126 18.5641 43.0126C18.8593 43.0126 19.1175 42.9403 19.3389 42.8319C19.2282 43.0849 19.1545 43.3379 19.1545 43.627C19.1545 44.6391 19.9662 45.4343 20.9994 45.4343C22.0325 45.4343 22.8442 44.6391 22.8442 43.627C22.8442 43.3379 22.7704 43.0487 22.6597 42.8319C22.918 42.9403 23.1763 43.0126 23.4714 43.0126C24.5046 43.0126 25.3163 42.2174 25.3163 41.2054C25.3163 40.1933 24.4677 39.3981 23.4714 39.3981C23.1025 39.3981 22.7704 39.5066 22.4752 39.6873L22.7336 38.5668V29.7837V20.3861H31.2569L32.3638 20.1331C32.1793 20.4222 32.0686 20.7114 32.0686 21.0728C32.0686 22.0849 32.9173 22.8801 33.9135 22.8801C34.9098 22.8801 35.7584 22.0849 35.7584 21.0728C35.7584 20.7837 35.6845 20.5307 35.5738 20.3138C35.8321 20.4222 36.0904 20.4945 36.3856 20.4945C37.4187 20.4945 38.2305 19.6993 38.2305 18.6873C38.2305 17.6752 37.4188 16.8801 36.4225 16.8801Z" fill="#FFD104"/>
    <path d="M28.7846 3.75871V3.1804C28.7846 2.81896 28.5263 2.49365 28.1942 2.49365C27.8621 2.49365 27.6038 2.78281 27.6038 3.1804V3.72257L28.3049 3.43341C28.4156 3.54185 28.6001 3.65028 28.7846 3.75871Z" fill="#FFD104"/>
    <path d="M28.268 7.22918L27.5669 6.86774V16.4822H28.7845V6.68701C28.4524 6.94002 28.268 7.22918 28.268 7.22918Z" fill="#FFD104"/>
    <path d="M27.5669 38.2772C27.5669 38.6386 27.8252 38.9639 28.1573 38.9639C28.4894 38.9639 28.7477 38.6747 28.7477 38.2772V20.8555H27.53V38.2772H27.5669Z" fill="#FFD104"/>
    <path d="M34.6145 1.771C34.6145 1.771 31.6257 4.51799 29.5595 4.37341C29.5595 4.37341 29.1905 4.37341 28.7847 4.19268C28.6002 4.12039 28.4157 3.97581 28.2681 3.83124L27.5671 4.1204L26.903 4.40955V5.99991L27.5671 6.36136L28.2681 6.7228C28.2681 6.7228 28.4526 6.43365 28.7847 6.21678C29.006 6.0722 29.2643 5.96377 29.5595 5.96377C30.4081 5.92762 31.4782 5.92762 33.6921 8.60232C33.6921 8.56618 35.2787 5.4216 34.6145 1.771Z" fill="white"/>
    <path d="M13.1769 3.75871V3.1804C13.1769 2.81896 13.4351 2.49365 13.7672 2.49365C14.0993 2.49365 14.3576 2.78281 14.3576 3.1804V3.72257L13.6565 3.43341C13.5458 3.54185 13.3614 3.65028 13.1769 3.75871Z" fill="#FFD104"/>
    <path d="M13.6934 7.22918L14.3945 6.86774V16.4822H13.1769V6.68701C13.509 6.94002 13.6934 7.22918 13.6934 7.22918Z" fill="#FFD104"/>
    <path d="M14.3944 38.2772C14.3944 38.6386 14.1361 38.9639 13.8041 38.9639C13.472 38.9639 13.2137 38.6747 13.2137 38.2772V20.8555H14.3944V38.2772Z" fill="#FFD104"/>
    <path d="M7.34693 1.771C7.34693 1.771 10.3356 4.51799 12.4019 4.37341C12.4019 4.37341 12.7709 4.37341 13.1768 4.19268C13.3613 4.12039 13.5457 3.97581 13.6933 3.83124L14.3944 4.1204L15.0585 4.40955V5.99991L14.3944 6.36136L13.6933 6.7228C13.6933 6.7228 13.5089 6.43365 13.1768 6.21678C12.9923 6.0722 12.6971 5.96377 12.4019 5.96377C11.5532 5.92762 10.4832 5.92762 8.26937 8.60232C8.26937 8.56618 6.68277 5.4216 7.34693 1.771Z" fill="white"/>
    <path d="M57.6385 17.0602C57.6385 18.253 58.0813 19.0843 59.5203 19.0843C61.1438 19.0843 62.3983 18.4699 63.2838 16.8434C64.0587 15.4699 64.5014 13.3012 64.5014 10.1205C64.5014 3.28914 62.1769 0.939747 59.262 0.939747C57.9337 0.939747 57.6016 1.33734 57.6016 2.49396V17.0602H57.6385ZM54.7605 2.6024C54.7605 1.98794 54.5392 1.77107 53.9857 1.66264C53.7643 1.62649 53.469 1.59035 53.1001 1.55421C52.768 1.51806 52.5466 1.44577 52.5466 1.26505C52.5466 0.939744 52.6942 0.903601 53.7274 0.5783C55.2771 0.144565 56.8268 0.0361328 58.893 0.0361328C61.6234 0.0361328 63.8004 0.97589 65.3501 2.67469C66.9367 4.37348 67.7854 6.83131 67.7854 9.83131C67.7854 16.1205 65.1287 19.9879 59.6678 19.9879C58.4871 19.9879 57.3802 19.8795 55.9043 19.8795C54.7236 19.8795 53.8381 19.9879 53.1739 19.9879C52.7681 19.9879 52.5836 19.8434 52.5836 19.5542C52.5836 19.1928 52.768 19.1205 53.5798 19.012C54.4653 18.9036 54.7974 18.4699 54.7974 17.4217V2.6024H54.7605Z" fill="#131207"/>
    <path d="M72.8771 2.34976C72.8771 1.62686 72.4712 1.44614 72.0285 1.33771C71.4381 1.15699 71.0323 1.19313 71.0323 0.831684C71.0323 0.578672 71.2167 0.397949 71.8808 0.397949C72.6557 0.397949 74.1316 0.506385 77.0096 0.506385C79.7032 0.506385 81.5112 0.397949 82.3598 0.397949C82.9871 0.397949 83.0977 0.506385 83.0977 1.55458C83.0977 3.14494 83.0608 4.22928 83.0608 4.98831C83.0608 5.56663 82.9502 5.7112 82.6919 5.7112C82.3967 5.7112 82.249 5.42205 82.1384 5.09675C82.0277 4.77144 81.8433 4.37386 81.7695 4.12084C81.0315 2.20518 79.9984 1.26542 77.637 1.26542C76.9359 1.26542 76.4562 1.37385 76.1979 1.44614C75.8658 1.55458 75.7921 1.80759 75.7921 2.16903V8.63892C75.7921 9.07265 75.9027 9.14494 77.0096 9.14494C78.8545 9.14494 79.4818 8.81964 79.74 7.77144C80.109 6.61482 80.0721 6.43409 80.4411 6.43409C80.6994 6.43409 80.7363 6.57867 80.7363 7.15698C80.7363 7.98831 80.6257 8.81964 80.6257 9.61482C80.6257 10.5546 80.7363 11.6389 80.7363 12.5425C80.7363 12.9401 80.5888 13.0847 80.4043 13.0847C80.146 13.0847 80.0352 12.8317 79.8507 12.0365C79.4448 10.4461 78.9652 10.0124 77.4155 10.0124C75.8658 10.0124 75.7921 10.1208 75.7921 10.5184V17.2413C75.7921 18.5064 76.53 19.0847 78.2642 19.0847C81.0684 19.0847 81.8802 17.8919 82.5812 15.2895C82.8395 14.3498 82.9502 14.169 83.2454 14.169C83.3929 14.169 83.5036 14.169 83.5405 14.422C83.6143 14.7112 83.6512 15.4341 83.6512 17.169C83.6512 18.0726 83.6512 18.651 83.6144 19.0486C83.6144 19.916 83.2822 19.9522 82.7287 19.9522C80.7732 19.9522 78.3011 19.8437 76.3455 19.8437C74.722 19.8437 73.2091 19.9522 71.8808 19.9522C71.2167 19.9522 70.9216 19.8437 70.9216 19.4823C70.9216 19.1931 71.1429 19.0847 71.6964 18.9401C72.6557 18.7955 72.914 18.4341 72.914 17.422V2.34976H72.8771Z" fill="#131207"/>
    <path d="M88.5218 2.81964C88.5218 1.87988 88.3373 1.44614 87.7469 1.37385C87.009 1.26542 86.7506 1.26542 86.7506 0.831684C86.7506 0.434093 87.2304 0.397949 87.5256 0.397949C88.0052 0.397949 88.6324 0.47024 89.1859 0.47024C89.7025 0.47024 90.4036 0.397949 90.8833 0.397949C91.3629 0.397949 91.3998 0.687107 91.9164 1.66301C93.134 4.0847 96.7499 10.7714 98.2996 13.5907C98.7793 14.3859 98.8531 14.422 98.89 14.422C99.0007 14.422 99.0376 14.3136 99.0376 14.0606V3.39795C99.0376 1.87988 98.6687 1.44614 98.0414 1.37385C97.3403 1.26542 96.9344 1.15699 96.9344 0.831684C96.9344 0.578672 97.1189 0.397949 97.3772 0.397949C97.7092 0.397949 98.2258 0.506385 99.5541 0.506385C100.292 0.506385 100.882 0.397949 101.399 0.397949C101.805 0.397949 101.953 0.470241 101.953 0.795542C101.953 1.19313 101.583 1.26542 100.846 1.33771C100.218 1.44614 99.997 1.87988 99.997 2.81964V19.663C99.997 20.422 99.9969 20.4582 99.3697 20.4582C98.89 20.4582 98.8531 20.3498 98.1521 19.0124C97.9676 18.651 97.7831 18.2895 97.5617 17.9281C95.2003 13.5184 92.6912 9.14494 90.4036 4.69916C90.0715 4.04855 89.887 3.68711 89.7025 3.68711C89.5549 3.68711 89.4811 3.79554 89.4811 4.22928V15.398C89.4811 17.9642 89.7025 18.8317 90.4036 18.9763C91.1784 19.157 91.9532 19.0486 91.9532 19.5907C91.9532 19.8799 91.7688 19.916 91.4367 19.916C91.0677 19.916 90.8832 19.8076 89.2966 19.8076C87.8576 19.8076 87.3779 19.916 86.8983 19.916C86.6031 19.916 86.4924 19.8076 86.4924 19.6269C86.4924 19.1931 87.4517 19.1208 87.8207 18.9763C88.4111 18.7594 88.5218 18.2534 88.5218 17.3859V2.81964Z" fill="#131207"/>
    <path d="M114.313 2.81964C114.313 1.87988 114.129 1.44614 113.538 1.37385C112.801 1.26542 112.542 1.26542 112.542 0.831684C112.542 0.434093 113.022 0.397949 113.317 0.397949C113.797 0.397949 114.424 0.47024 114.941 0.47024C115.457 0.47024 116.158 0.397949 116.638 0.397949C117.118 0.397949 117.154 0.687107 117.671 1.66301C118.889 4.0847 122.505 10.7714 124.054 13.5907C124.534 14.3859 124.608 14.422 124.645 14.422C124.755 14.422 124.792 14.3136 124.792 14.0606V3.39795C124.792 1.87988 124.46 1.44614 123.796 1.37385C123.095 1.26542 122.689 1.15699 122.689 0.831684C122.689 0.578672 122.874 0.397949 123.132 0.397949C123.464 0.397949 123.98 0.506385 125.309 0.506385C126.047 0.506385 126.637 0.397949 127.154 0.397949C127.56 0.397949 127.707 0.470241 127.707 0.795542C127.707 1.19313 127.338 1.26542 126.6 1.33771C125.973 1.44614 125.752 1.87988 125.752 2.81964V19.663C125.752 20.422 125.752 20.4582 125.124 20.4582C124.645 20.4582 124.608 20.3498 123.907 19.0124C123.722 18.651 123.538 18.2895 123.316 17.9281C120.955 13.5184 118.446 9.14494 116.158 4.69916C115.826 4.04855 115.642 3.68711 115.457 3.68711C115.31 3.68711 115.236 3.79554 115.236 4.22928V15.398C115.236 17.9642 115.457 18.8317 116.158 18.9763C116.933 19.157 117.708 19.0486 117.708 19.5907C117.708 19.8799 117.523 19.916 117.154 19.916C116.785 19.916 116.601 19.8076 115.014 19.8076C113.575 19.8076 113.096 19.916 112.616 19.916C112.321 19.916 112.21 19.8076 112.21 19.6269C112.21 19.1931 113.169 19.1208 113.538 18.9763C114.129 18.7594 114.24 18.2534 114.24 17.3859V2.81964H114.313Z" fill="#131207"/>
    <path d="M141.986 10.8072C141.986 3.36145 139.847 0.903614 137.928 0.903614C136.12 0.903614 134.09 3.14458 134.09 9.54217C134.09 17.0241 136.23 19.4819 138.112 19.4819C139.957 19.4819 141.986 17.241 141.986 10.8072ZM130.622 10.0482C130.622 4.40964 134.017 0 138.039 0C142.06 0 145.381 4.55422 145.381 10.2651C145.381 15.9398 141.987 20.3133 138.002 20.3133C133.943 20.3494 130.622 15.759 130.622 10.0482Z" fill="#131207"/>
    <path d="M153.609 9.25338C153.609 9.79555 153.609 9.86784 154.79 9.86784C157.151 9.86784 159.218 8.31363 159.218 5.53049C159.218 2.63893 157.779 1.26543 155.417 1.26543C153.831 1.26543 153.646 1.59073 153.646 2.53049V9.25338H153.609ZM153.609 17.6028C153.609 18.3618 153.83 18.8678 154.568 19.0124C155.417 19.1931 155.897 19.2293 155.897 19.5907C155.897 19.8799 155.638 19.9522 155.196 19.9522C154.716 19.9522 154.236 19.8437 152.281 19.8437C150.251 19.8437 149.882 19.9522 149.329 19.9522C148.812 19.9522 148.517 19.8799 148.517 19.5907C148.517 19.1931 148.849 19.2293 149.919 19.0486C150.51 18.9401 150.768 18.5425 150.768 17.4944V2.89194C150.768 1.87989 150.584 1.4823 149.919 1.30158C149.255 1.19314 148.665 1.22929 148.665 0.831696C148.665 0.506395 148.923 0.361816 149.44 0.361816C150.436 0.361816 151.248 0.470253 152.355 0.470253C153.683 0.470253 154.864 0.361816 156.192 0.361816C159.882 0.361816 162.354 2.38592 162.354 5.31363C162.354 7.04857 161.579 8.4582 159.882 9.39796C158.849 9.94013 158.295 9.86784 158.147 10.0486C158.221 10.1931 158.59 10.2293 158.959 11.0245C160.14 13.5546 160.915 15.5787 161.616 16.9883C162.132 18.0727 162.612 18.8317 163.129 19.0124C163.645 19.157 164.457 19.1931 164.457 19.5907C164.457 19.8799 164.272 19.9522 163.904 19.9522C163.461 19.9522 162.981 19.8437 162.132 19.8437C161.431 19.8437 160.73 19.9522 160.214 19.9522C159.734 19.9522 159.55 19.41 158.996 18.0727C158.443 16.8437 157.742 14.9642 156.487 12.0004C156.081 11.0245 155.675 10.7353 154.679 10.7353C153.867 10.7353 153.72 10.8437 153.72 11.2775V17.6028H153.609Z" fill="#131207"/>
    <path d="M178.146 14.3855C178.146 18.1084 175.305 20.3494 171.615 20.3494C170.028 20.3494 168.221 19.9879 167.63 19.4458C167.261 19.1205 167.151 18.506 167.114 16.7711C167.114 15.9036 167.077 14.747 167.187 14.1325C167.298 13.8072 167.372 13.7711 167.593 13.7711C167.962 13.7711 168.036 13.9518 168.147 14.2771C168.922 17.5663 170.065 19.4458 172.132 19.4458C174.05 19.4458 175.379 17.7831 175.379 15.7229C175.379 13.5181 173.866 12.2169 172.132 11.0602C171.689 10.7711 171.246 10.4819 170.803 10.1566C168.995 8.9277 167.261 7.48192 167.261 4.84336C167.261 2.06023 169.992 0.0361328 172.98 0.0361328C174.419 0.0361328 176.117 0.506011 176.596 0.867456C176.855 1.01203 176.891 1.12047 176.928 1.84336V3.86746C176.928 5.38553 176.928 5.56625 176.522 5.56625C176.043 5.56625 176.08 5.02408 175.858 4.37348C175.12 1.95179 174.124 0.867456 172.685 0.867456C171.283 0.867456 170.028 2.06023 170.028 3.54215C170.028 6.21685 172.169 7.37348 174.272 8.71083C176.264 10.0482 178.146 11.4217 178.146 14.3855Z" fill="#131207"/>
    <path d="M183.127 2.74735C183.127 1.77145 182.98 1.48229 182.574 1.37385C181.799 1.15699 181.393 1.19313 181.393 0.795542C181.393 0.54253 181.578 0.397949 181.984 0.397949C182.574 0.397949 183.459 0.506385 184.677 0.506385C185.747 0.506385 186.485 0.397949 187.186 0.397949C187.518 0.397949 187.74 0.506383 187.74 0.831684C187.74 1.26542 187.481 1.19313 186.743 1.37385C186.264 1.48229 186.005 1.80759 186.005 2.31361V8.24132C186.005 9.07265 186.042 9.18108 186.116 9.18108C186.227 9.18108 186.411 8.92807 186.706 8.49433C187.408 7.59072 189.363 5.24132 190.47 3.57867C190.95 2.85578 191.208 2.34976 191.208 2.02445C191.208 1.55458 190.913 1.37385 190.322 1.26542C189.806 1.19313 189.548 1.15699 189.548 0.795542C189.548 0.578674 189.732 0.397949 190.212 0.397949C190.839 0.397949 191.725 0.506385 192.462 0.506385C193.311 0.506385 194.16 0.397949 194.639 0.397949C195.119 0.397949 195.304 0.54253 195.304 0.795542C195.304 1.15699 195.008 1.0847 194.418 1.22928C193.865 1.33771 193.127 1.84373 192.204 2.85578C191.245 3.83169 190.249 4.98831 189.437 6.21723C189.068 6.7594 188.994 6.97626 188.994 7.15698C188.994 7.26542 189.068 7.44614 189.326 8.02446C189.88 9.21723 191.245 12.1449 193.164 15.9401C194.381 18.4702 194.639 18.7955 195.193 18.9763C195.599 19.157 196.005 19.1208 196.005 19.5184C196.005 19.7353 195.857 19.9522 195.377 19.9522C194.75 19.9522 193.975 19.8437 193.053 19.8437C192.02 19.8437 191.134 19.9522 190.581 19.9522C190.027 19.9522 189.806 19.8076 189.806 19.5184C189.769 19.1931 190.138 19.157 190.47 19.0486C190.802 18.9401 191.171 18.8317 191.134 18.398C191.06 18.0004 190.987 17.7112 190.286 16.3739C189.289 14.2413 188.367 12.398 187.518 10.6992C187.223 10.157 187.002 9.7594 186.854 9.7594C186.633 9.7594 185.968 10.4823 185.968 10.9522V17.3136C185.968 18.651 186.411 18.9401 186.854 19.0486C187.26 19.1208 187.703 19.1208 187.703 19.5184C187.703 19.8799 187.407 19.9522 186.854 19.9522C186.301 19.9522 185.636 19.8437 184.566 19.8437C183.238 19.8437 182.722 19.9522 181.984 19.9522C181.541 19.9522 181.319 19.8437 181.319 19.4823C181.319 19.1931 181.43 19.0847 182.057 18.9401C182.906 18.7955 183.054 18.6148 183.054 17.3859V2.74735H183.127Z" fill="#131207"/>
    <path d="M199.547 2.34976C199.547 1.62686 199.141 1.44614 198.698 1.33771C198.108 1.15699 197.702 1.19313 197.702 0.831684C197.702 0.578672 197.886 0.397949 198.55 0.397949C199.325 0.397949 200.801 0.506385 203.679 0.506385C206.373 0.506385 208.181 0.397949 209.029 0.397949C209.657 0.397949 209.767 0.506385 209.767 1.55458C209.767 3.14494 209.73 4.22928 209.73 4.98831C209.73 5.56663 209.583 5.7112 209.361 5.7112C209.066 5.7112 208.919 5.42205 208.808 5.09675C208.66 4.77144 208.513 4.37386 208.439 4.12084C207.701 2.20518 206.668 1.26542 204.306 1.26542C203.605 1.26542 203.126 1.37385 202.867 1.44614C202.535 1.55458 202.462 1.80759 202.462 2.16903V8.63892C202.462 9.07265 202.572 9.14494 203.679 9.14494C205.524 9.14494 206.151 8.81964 206.41 7.77144C206.779 6.61482 206.779 6.43409 207.111 6.43409C207.369 6.43409 207.406 6.57867 207.406 7.15698C207.406 7.98831 207.295 8.81964 207.295 9.61482C207.295 10.5546 207.406 11.6389 207.406 12.5425C207.406 12.9401 207.258 13.0847 207.074 13.0847C206.815 13.0847 206.705 12.8317 206.52 12.0365C206.114 10.4461 205.635 10.0124 204.085 10.0124C202.535 10.0124 202.462 10.1208 202.462 10.5184V17.2413C202.462 18.5064 203.2 19.0847 204.934 19.0847C207.738 19.0847 208.55 17.8919 209.251 15.2895C209.509 14.3498 209.62 14.169 209.915 14.169C210.062 14.169 210.173 14.169 210.21 14.422C210.284 14.7112 210.321 15.4341 210.321 17.169C210.321 18.0726 210.321 18.651 210.284 19.0486C210.284 19.916 209.952 19.9522 209.398 19.9522C207.443 19.9522 204.971 19.8437 203.015 19.8437C201.392 19.8437 199.879 19.9522 198.55 19.9522C197.886 19.9522 197.591 19.8437 197.591 19.4823C197.591 19.1931 197.812 19.0847 198.366 18.9401C199.325 18.7955 199.547 18.4341 199.547 17.422V2.34976Z" fill="#131207"/>
    <path d="M224.416 2.74735C224.416 1.77145 224.305 1.48229 223.862 1.37385C223.087 1.15699 222.681 1.19313 222.681 0.795542C222.681 0.54253 222.866 0.397949 223.272 0.397949C223.862 0.397949 224.748 0.506385 225.965 0.506385C227.035 0.506385 227.773 0.397949 228.474 0.397949C228.806 0.397949 229.028 0.506383 229.028 0.831684C229.028 1.26542 228.769 1.19313 228.031 1.37385C227.552 1.48229 227.294 1.80759 227.294 2.31361V8.24132C227.294 9.07265 227.33 9.18108 227.404 9.18108C227.478 9.18108 227.699 8.92807 227.995 8.49433C228.696 7.59072 230.651 5.24132 231.758 3.57867C232.238 2.85578 232.496 2.34976 232.496 2.02445C232.496 1.55458 232.201 1.37385 231.611 1.26542C231.094 1.19313 230.836 1.15699 230.836 0.795542C230.836 0.578674 231.02 0.397949 231.5 0.397949C232.127 0.397949 233.013 0.506385 233.751 0.506385C234.599 0.506385 235.448 0.397949 235.928 0.397949C236.407 0.397949 236.592 0.54253 236.592 0.795542C236.592 1.15699 236.297 1.0847 235.706 1.22928C235.153 1.33771 234.415 1.84373 233.492 2.85578C232.533 3.83169 231.537 4.98831 230.725 6.21723C230.356 6.7594 230.282 6.97626 230.282 7.15698C230.282 7.26542 230.356 7.44614 230.614 8.02446C231.168 9.21723 232.533 12.1449 234.452 15.9401C235.669 18.4702 235.928 18.7955 236.481 18.9763C236.887 19.157 237.293 19.1208 237.293 19.5184C237.293 19.7353 237.145 19.9522 236.665 19.9522C236.038 19.9522 235.263 19.8437 234.341 19.8437C233.308 19.8437 232.422 19.9522 231.869 19.9522C231.315 19.9522 231.094 19.8076 231.094 19.5184C231.057 19.1931 231.426 19.157 231.758 19.0486C232.127 18.9401 232.459 18.8317 232.422 18.398C232.348 18.0004 232.275 17.7112 231.574 16.3739C230.577 14.2413 229.655 12.398 228.806 10.6992C228.511 10.157 228.29 9.7594 228.142 9.7594C227.921 9.7594 227.257 10.4823 227.257 10.9522V17.3136C227.257 18.651 227.699 18.9401 228.142 19.0486C228.548 19.1208 228.991 19.1208 228.991 19.5184C228.991 19.8799 228.696 19.9522 228.142 19.9522C227.589 19.9522 226.925 19.8437 225.854 19.8437C224.526 19.8437 224.01 19.9522 223.272 19.9522C222.829 19.9522 222.607 19.8437 222.607 19.4823C222.607 19.1931 222.718 19.0847 223.345 18.9401C224.194 18.7955 224.342 18.6148 224.342 17.3859V2.74735H224.416Z" fill="#131207"/>
    <path d="M243.307 11.6751C243.307 11.2413 243.233 10.9883 242.901 10.1931C241.758 7.69915 240.688 5.09674 239.581 2.63891C239.101 1.69915 238.806 1.48229 238.4 1.37385C237.994 1.26542 237.625 1.26542 237.625 0.94012C237.625 0.614819 237.883 0.397949 238.252 0.397949C238.917 0.397949 239.765 0.542527 240.761 0.542527C242.274 0.542527 243.16 0.397949 243.492 0.397949C243.824 0.397949 244.119 0.542528 244.119 0.867829C244.119 1.26542 243.75 1.22928 243.27 1.37385C242.606 1.51843 242.459 1.66301 242.459 2.0606C242.459 2.3859 242.754 3.07265 243.75 5.53048C245.337 9.28952 245.484 9.54253 245.706 9.54253C246.001 9.54253 246.038 9.25337 247.366 6.43409C248.621 3.7594 249.026 2.53048 249.026 2.16903C249.026 1.69915 248.731 1.55458 247.846 1.41C247.44 1.30157 247.145 1.26542 247.145 0.976262C247.145 0.650961 247.366 0.434095 247.772 0.434095C248.436 0.434095 249.063 0.578673 249.691 0.578673C250.687 0.578673 250.945 0.434095 251.499 0.434095C251.831 0.434095 251.904 0.578673 251.904 0.867829C251.904 1.30156 251.72 1.30157 251.351 1.41C250.834 1.55458 250.465 1.77144 249.838 3.07265C248.657 5.53048 247.698 7.69915 246.739 9.7594C246.185 10.8437 246.148 11.0967 246.148 11.5305V17.8558C246.148 18.6148 246.444 19.0124 247.034 19.1208C247.587 19.2293 248.178 19.2293 248.178 19.6269C248.178 19.9883 247.956 20.0606 247.403 20.0606C246.813 20.0606 246.111 19.9522 244.857 19.9522C243.455 19.9522 242.606 20.0606 241.831 20.0606C241.278 20.0606 241.167 19.9522 241.167 19.663C241.167 19.3739 241.462 19.2293 242.348 19.0847C243.086 18.9763 243.27 18.7594 243.27 17.6389V11.6751H243.307Z" fill="#131207"/>
    <path d="M258.62 9.25338C258.62 9.79555 258.62 9.86784 259.8 9.86784C262.162 9.86784 264.228 8.31363 264.228 5.53049C264.228 2.63893 262.789 1.26543 260.428 1.26543C258.841 1.26543 258.657 1.59073 258.657 2.53049V9.25338H258.62ZM258.62 17.6028C258.62 18.3618 258.841 18.8678 259.579 19.0124C260.428 19.1931 260.907 19.2293 260.907 19.5907C260.907 19.8799 260.649 19.9522 260.206 19.9522C259.726 19.9522 259.247 19.8437 257.291 19.8437C255.262 19.8437 254.893 19.9522 254.339 19.9522C253.823 19.9522 253.528 19.8799 253.528 19.5907C253.528 19.1931 253.86 19.2293 254.93 19.0486C255.52 18.9401 255.779 18.5425 255.779 17.4944V2.89194C255.779 1.87989 255.594 1.4823 254.93 1.30158C254.266 1.19314 253.675 1.22929 253.675 0.831696C253.675 0.506395 253.934 0.361816 254.45 0.361816C255.446 0.361816 256.258 0.470253 257.365 0.470253C258.693 0.470253 259.874 0.361816 261.202 0.361816C264.892 0.361816 267.364 2.38592 267.364 5.31363C267.364 7.04857 266.59 8.4582 264.892 9.39796C263.859 9.94013 263.306 9.86784 263.158 10.0486C263.232 10.1931 263.601 10.2293 263.97 11.0245C265.151 13.5546 265.925 15.5787 266.626 16.9883C267.143 18.0727 267.623 18.8317 268.139 19.0124C268.656 19.157 269.467 19.1931 269.467 19.5907C269.467 19.8799 269.283 19.9522 268.914 19.9522C268.471 19.9522 267.992 19.8437 267.143 19.8437C266.442 19.8437 265.741 19.9522 265.224 19.9522C264.745 19.9522 264.56 19.41 264.007 18.0727C263.453 16.8437 262.752 14.9642 261.498 12.0004C261.092 11.0245 260.686 10.7353 259.69 10.7353C258.878 10.7353 258.73 10.8437 258.73 11.2775V17.6028H258.62Z" fill="#131207"/>
    <path d="M273.526 2.74735C273.526 1.77145 273.416 1.48229 272.973 1.37385C272.198 1.15699 271.792 1.19313 271.792 0.795542C271.792 0.54253 271.977 0.397949 272.383 0.397949C272.973 0.397949 273.858 0.506385 275.076 0.506385C276.146 0.506385 276.884 0.397949 277.585 0.397949C277.917 0.397949 278.139 0.506383 278.139 0.831684C278.139 1.26542 277.88 1.19313 277.142 1.37385C276.663 1.48229 276.404 1.80759 276.404 2.31361V8.24132C276.404 9.07265 276.441 9.18108 276.515 9.18108C276.626 9.18108 276.81 8.92807 277.106 8.49433C277.807 7.59072 279.762 5.24132 280.869 3.57867C281.349 2.85578 281.607 2.34976 281.607 2.02445C281.607 1.55458 281.312 1.37385 280.721 1.26542C280.205 1.19313 279.947 1.15699 279.947 0.795542C279.947 0.578674 280.131 0.397949 280.611 0.397949C281.238 0.397949 282.124 0.506385 282.862 0.506385C283.71 0.506385 284.559 0.397949 285.038 0.397949C285.518 0.397949 285.703 0.54253 285.703 0.795542C285.703 1.15699 285.407 1.0847 284.817 1.22928C284.264 1.33771 283.526 1.84373 282.603 2.85578C281.644 3.83169 280.648 4.98831 279.836 6.21723C279.467 6.7594 279.393 6.97626 279.393 7.15698C279.393 7.26542 279.467 7.44614 279.725 8.02446C280.279 9.21723 281.644 12.1449 283.563 15.9401C284.78 18.4702 285.038 18.7955 285.592 18.9763C285.998 19.157 286.404 19.1208 286.404 19.5184C286.404 19.7353 286.256 19.9522 285.776 19.9522C285.149 19.9522 284.374 19.8437 283.452 19.8437C282.419 19.8437 281.533 19.9522 280.98 19.9522C280.426 19.9522 280.205 19.8076 280.205 19.5184C280.168 19.1931 280.537 19.157 280.869 19.0486C281.201 18.9401 281.57 18.8317 281.533 18.398C281.459 18.0004 281.386 17.7112 280.685 16.3739C279.688 14.2413 278.766 12.398 277.917 10.6992C277.622 10.157 277.401 9.7594 277.253 9.7594C277.032 9.7594 276.368 10.4823 276.368 10.9522V17.3136C276.368 18.651 276.81 18.9401 277.253 19.0486C277.659 19.1208 278.102 19.1208 278.102 19.5184C278.102 19.8799 277.806 19.9522 277.253 19.9522C276.7 19.9522 276.035 19.8437 274.965 19.8437C273.637 19.8437 273.121 19.9522 272.383 19.9522C271.94 19.9522 271.718 19.8437 271.718 19.4823C271.718 19.1931 271.829 19.0847 272.456 18.9401C273.305 18.7955 273.453 18.6148 273.453 17.3859V2.74735H273.526Z" fill="#131207"/>
    <path d="M292.898 16.8076C292.898 19.5546 292.529 21.1449 291.016 23.3859C289.872 25.0124 288.322 26.0967 286.699 26.0967C285.223 26.0967 284.559 25.157 284.559 24.0727C284.559 23.1329 285.112 22.4823 286.035 22.4823C286.92 22.4823 287.252 23.0245 287.363 23.6389C287.474 24.1449 287.437 24.7955 287.99 24.7955C288.691 24.7955 289.245 24.0365 289.577 22.9883C289.872 22.0486 290.02 20.6389 290.02 18.904V2.81964C290.02 1.59072 289.724 1.44614 288.876 1.37385C287.843 1.26542 287.584 1.22927 287.584 0.831684C287.584 0.506383 287.953 0.397949 288.47 0.397949C289.208 0.397949 290.315 0.506385 291.643 0.506385C293.119 0.506385 293.82 0.397949 294.373 0.397949C294.816 0.397949 295.111 0.506383 295.111 0.867829C295.111 1.30156 294.742 1.15699 293.894 1.41C292.934 1.62687 292.898 2.0606 292.898 3.83168V16.8076Z" fill="#131207"/>
    <path d="M303.709 12.3255C304.262 12.3255 304.299 12.2171 304.299 12.0363C304.299 11.9279 304.262 11.711 304.188 11.3857C303.93 10.446 303.413 8.74717 302.749 6.18091C302.602 5.53031 302.454 5.38573 302.27 5.38573C302.048 5.38573 302.011 5.56645 301.753 6.5785C301.163 8.96404 300.794 10.3014 300.609 11.0966C300.462 11.8195 300.388 12.0363 300.388 12.1086C300.388 12.217 300.425 12.3255 300.941 12.3255H303.709ZM300.609 13.193C300.166 13.193 300.019 13.3014 299.687 14.5664C299.023 17.1689 298.875 17.7472 298.875 18.2171C298.875 18.6869 299.096 18.9761 299.797 19.1207C300.388 19.2291 300.794 19.2291 300.794 19.6267C300.794 19.952 300.609 20.0243 300.24 20.0243C299.724 20.0243 299.059 19.9158 298.358 19.9158C297.51 19.9158 296.772 20.0243 296.513 20.0243C296.218 20.0243 296.108 19.8797 296.108 19.6267C296.108 19.3737 296.329 19.2652 296.587 19.1568C296.883 19.0845 297.325 18.9761 297.473 18.4701C298.875 14.0604 300.498 7.84356 301.937 2.16886C302.048 1.77127 302.122 1.37368 302.233 1.01223C302.343 0.470063 302.454 0.180908 303.081 0.180908C303.672 0.180908 303.819 0.36163 303.93 0.903799C305.59 6.54235 307.251 12.2532 308.874 17.9279C309.059 18.5785 309.391 19.0484 309.723 19.193C310.092 19.3014 310.571 19.3737 310.571 19.7351C310.571 19.9881 310.313 20.0243 309.834 20.0243C309.059 20.0243 308.431 19.9158 307.62 19.9158C306.771 19.9158 305.885 20.0243 305.184 20.0243C304.742 20.0243 304.52 19.9158 304.52 19.6267C304.52 19.3375 304.852 19.193 305.295 19.1568C305.701 19.1207 306.07 19.0122 306.07 18.3978C306.07 18.0363 305.738 17.0243 305.074 14.5303C304.779 13.4098 304.668 13.193 304.151 13.193H300.609Z" fill="#131207"/>
    <path d="M55.0925 42.9038H58.0443C58.6716 42.9038 59.2251 42.8676 59.7047 42.8315C60.1844 42.7592 60.5534 42.6508 60.8855 42.5062C61.1807 42.3255 61.439 42.0724 61.5866 41.7471C61.7341 41.4218 61.8079 41.0243 61.8079 40.4821C61.8079 39.9761 61.7341 39.5785 61.5496 39.2532C61.3651 38.964 61.1437 38.711 60.8116 38.5303C60.4796 38.3496 60.1106 38.2411 59.6678 38.1688C59.225 38.0965 58.7085 38.0965 58.1919 38.0965H55.0925V42.9038ZM55.0925 37.1206H58.0443C58.6347 37.1206 59.1513 37.0845 59.5571 36.9761C59.963 36.8676 60.2951 36.723 60.5534 36.5423C60.8117 36.3616 60.9962 36.1086 61.1069 35.8194C61.2176 35.5303 61.2545 35.205 61.2545 34.8435C61.2545 34.4821 61.1806 34.1568 61.0699 33.8676C60.9592 33.6146 60.7378 33.3977 60.4796 33.217C60.2213 33.0363 59.8524 32.9279 59.4096 32.8556C58.9668 32.7833 58.4134 32.7471 57.7861 32.7471H55.0925V37.1206ZM53.9487 43.8435V31.7712H58.4133C59.1144 31.7712 59.7416 31.8435 60.2582 31.9881C60.7748 32.1327 61.1806 32.3496 61.5127 32.6026C61.8448 32.8917 62.0662 33.1809 62.2138 33.5785C62.3613 33.9399 62.4351 34.3737 62.4351 34.8074C62.4351 35.2411 62.3614 35.6026 62.2507 35.8917C62.14 36.1809 61.9924 36.47 61.8079 36.6508C61.6234 36.8676 61.402 37.0122 61.1806 37.1206C60.9592 37.2291 60.701 37.3375 60.4427 37.3736V37.4098C61.2914 37.5182 61.9186 37.8435 62.3614 38.3857C62.7673 38.9279 62.9887 39.5785 62.9887 40.4098C62.9887 41.0243 62.8779 41.5664 62.6934 42.0002C62.509 42.4339 62.2137 42.7953 61.8448 43.0484C61.4758 43.3014 61.07 43.5182 60.5534 43.6267C60.0738 43.7351 59.5203 43.8074 58.9299 43.8074H53.9487V43.8435Z" fill="#060400"/>
    <path d="M67.2319 33.2893H66.0881V31.8074H67.2319V33.2893ZM67.195 35.1688V45.0001C67.195 45.3616 67.158 45.6869 67.158 45.976C67.1211 46.2652 67.0473 46.4821 66.9366 46.6989C66.8259 46.8797 66.6415 47.0242 66.4201 47.1327C66.1987 47.2411 65.8666 47.2772 65.4608 47.2772C65.2025 47.2772 64.9811 47.2411 64.7966 47.205V46.3375C65.0918 46.3736 65.3501 46.3736 65.4977 46.3375C65.6822 46.3014 65.8298 46.2291 65.9404 46.1568C66.0511 46.0483 66.1249 45.9399 66.1618 45.7592C66.1987 45.5785 66.2356 45.3977 66.2356 45.1809V35.205H67.195V35.1688Z" fill="#060400"/>
    <path d="M71.918 42.4334C72.1763 42.6864 72.5083 42.8671 72.8404 43.0117C73.2094 43.1201 73.5784 43.1924 73.9105 43.1924C74.4639 43.1924 74.9067 43.084 75.2757 42.8671C75.6446 42.6502 75.9767 42.3972 76.1981 42.0358C76.4564 41.7105 76.604 41.3129 76.7147 40.8792C76.8254 40.4454 76.8992 39.9755 76.8992 39.5057C76.8992 39.0719 76.8623 38.6743 76.7885 38.2767C76.7147 37.8792 76.567 37.5177 76.3825 37.1924L71.918 42.4334ZM75.903 36.6141C75.7554 36.4334 75.4971 36.2527 75.165 36.1081C74.8329 35.9635 74.427 35.8551 73.9105 35.8551C73.357 35.8551 72.9143 35.9635 72.5453 36.1804C72.1763 36.3972 71.8442 36.6502 71.6228 37.0117C71.4015 37.3731 71.2169 37.7707 71.1062 38.2045C70.9955 38.6382 70.9218 39.1081 70.9218 39.578C70.9218 40.1201 70.9586 40.5539 71.0693 40.9153C71.18 41.2768 71.2907 41.6021 71.4383 41.8189L75.903 36.6141ZM70.3683 44.2406L69.741 43.7707L70.7372 42.6502C70.4051 42.2527 70.1837 41.7828 70.0362 41.2406C69.8886 40.6984 69.8148 40.1563 69.8148 39.578C69.8148 38.9274 69.8886 38.349 70.0731 37.8069C70.2576 37.2647 70.5158 36.7587 70.8479 36.3611C71.18 35.9274 71.6228 35.6021 72.1393 35.3852C72.6559 35.1322 73.2464 35.0237 73.9474 35.0237C74.5009 35.0237 74.9805 35.096 75.4233 35.2406C75.8661 35.3852 76.235 35.6021 76.5671 35.8912L77.4526 34.843L78.043 35.349L77.0836 36.4334C77.3788 36.831 77.6371 37.3008 77.7847 37.843C77.9323 38.3852 78.0061 38.9635 78.0061 39.578C78.0061 40.2647 77.9323 40.8792 77.7479 41.4213C77.5634 41.9635 77.3051 42.4695 76.9361 42.8671C76.604 43.2647 76.1612 43.59 75.6447 43.8069C75.1281 44.0237 74.5377 44.1322 73.9105 44.1322C73.2832 44.1322 72.7297 44.0237 72.287 43.843C71.8442 43.6623 71.5121 43.4454 71.2538 43.2286L70.3683 44.2406Z" fill="#060400"/>
    <path d="M81.6587 43.843H80.6256V35.1683H81.6587V36.7948H81.6956C81.9907 36.108 82.3598 35.602 82.8026 35.349C83.2453 35.096 83.8356 34.9514 84.5736 34.9514V36.0358C83.9832 36.0358 83.5036 36.108 83.1346 36.2888C82.7656 36.4695 82.4705 36.7225 82.2491 37.0478C82.0277 37.3731 81.88 37.7707 81.8062 38.2044C81.7325 38.6382 81.6956 39.108 81.6956 39.5779V43.843H81.6587Z" fill="#060400"/>
    <path d="M93.7981 39.542C93.7981 38.9999 93.7243 38.53 93.6136 38.0601C93.4661 37.6264 93.2816 37.2288 93.0233 36.9035C92.765 36.5782 92.4698 36.3252 92.0639 36.1083C91.6949 35.9276 91.2522 35.8191 90.7726 35.8191C90.3298 35.8191 89.9239 35.8914 89.5549 36.036C89.1859 36.1806 88.8907 36.3975 88.5955 36.6866C88.3372 36.9758 88.1159 37.3372 87.9683 37.7348C87.8207 38.1685 87.7469 38.6384 87.7469 39.1806C87.71 39.7228 87.7839 40.2288 87.8946 40.6987C88.0053 41.1685 88.1897 41.6023 88.448 41.9637C88.7063 42.3252 89.0014 42.6143 89.4073 42.795C89.8131 43.0119 90.2559 43.1203 90.8094 43.1203C91.2891 43.1203 91.6949 43.0119 92.0639 42.8312C92.4329 42.6505 92.765 42.3613 93.0233 42.036C93.2816 41.7107 93.4661 41.3131 93.6136 40.8794C93.7243 40.5179 93.7981 40.0481 93.7981 39.542ZM93.7981 35.1685H94.8312V43.0119C94.8312 43.5902 94.7575 44.1324 94.6468 44.6746C94.5361 45.2167 94.3146 45.6866 94.0195 46.0842C93.7243 46.4818 93.2815 46.8071 92.765 47.0601C92.2484 47.3131 91.5473 47.4215 90.6987 47.4215C90.0345 47.4215 89.4812 47.3493 89.0384 47.1685C88.5587 46.9878 88.1897 46.8071 87.8946 46.5541C87.5994 46.3011 87.3779 46.0481 87.2303 45.7589C87.0827 45.4697 87.009 45.1806 86.9721 44.9276H88.079C88.1528 45.2529 88.3004 45.5059 88.448 45.7228C88.6325 45.9396 88.817 46.0842 89.0384 46.2288C89.2598 46.3372 89.518 46.4456 89.8132 46.4818C90.1084 46.5179 90.4035 46.5541 90.6987 46.5541C91.3998 46.5541 91.9533 46.4456 92.3961 46.1926C92.8019 45.9758 93.1339 45.6505 93.3553 45.2529C93.5767 44.8914 93.7244 44.4577 93.7613 43.9517C93.7982 43.4456 93.835 42.9758 93.835 42.4697C93.5029 43.0119 93.0602 43.4095 92.4698 43.6987C91.8795 43.9517 91.2891 44.0962 90.6619 44.0962C89.9977 44.0962 89.4073 43.9878 88.8908 43.7348C88.3742 43.4818 87.9683 43.1565 87.6731 42.7228C87.341 42.289 87.1197 41.8191 86.9352 41.2408C86.7876 40.6987 86.6769 40.0842 86.6769 39.5059C86.6769 38.8553 86.7507 38.277 86.8983 37.6987C87.0458 37.1565 87.3041 36.6505 87.5993 36.2529C87.9314 35.8553 88.3373 35.53 88.8538 35.277C89.3704 35.0601 89.9608 34.9155 90.6987 34.9155C90.9939 34.9155 91.2891 34.9517 91.5843 35.024C91.8795 35.0962 92.1746 35.2047 92.4329 35.3493C92.7281 35.4938 92.9863 35.6746 93.2077 35.8914C93.4291 36.1083 93.6136 36.3613 93.7981 36.6505H93.835V35.1685H93.7981Z" fill="#060400"/>
    <path d="M97.1557 35.1687H98.2627L101.141 42.6145L104.019 35.1687H105.126L101.694 43.8434H100.55L97.1557 35.1687Z" fill="#060400"/>
    <path d="M107.487 43.8435H108.52V35.1688H107.487V43.8435ZM107.45 33.2893H108.594V31.8074H107.45V33.2893Z" fill="#060400"/>
    <path d="M112.874 43.8432H111.841V35.1685H112.874V36.3613C113.28 35.9276 113.723 35.6023 114.166 35.3131C114.608 35.0601 115.125 34.9155 115.752 34.9155C116.306 34.9155 116.822 35.024 117.265 35.2047C117.745 35.3854 118.114 35.7107 118.446 36.1806C118.667 36.5059 118.778 36.8312 118.815 37.1565C118.852 37.4818 118.889 37.8432 118.889 38.1685V43.8432H117.855V38.1685C117.855 37.3734 117.671 36.795 117.339 36.3975C116.97 35.9999 116.38 35.8191 115.568 35.8191C115.236 35.8191 114.94 35.8553 114.682 35.9637C114.424 36.0722 114.166 36.1806 113.981 36.3252C113.797 36.4697 113.575 36.6505 113.428 36.8673C113.28 37.0842 113.169 37.2649 113.096 37.5179C112.985 37.8071 112.911 38.0601 112.911 38.3131C112.874 38.5661 112.874 38.8553 112.874 39.1444V43.8432Z" fill="#060400"/>
    <path d="M128.629 39.47C128.629 40.0122 128.703 40.4821 128.814 40.952C128.961 41.3857 129.146 41.7833 129.404 42.1086C129.663 42.4339 129.958 42.6869 130.364 42.9038C130.732 43.0845 131.175 43.1929 131.655 43.1929C132.098 43.1929 132.504 43.1206 132.873 42.9761C133.241 42.8315 133.537 42.6146 133.832 42.3255C134.09 42.0363 134.312 41.6749 134.459 41.2773C134.607 40.8435 134.681 40.3736 134.681 39.8315C134.717 39.2893 134.644 38.7833 134.533 38.3134C134.422 37.8435 134.238 37.4098 133.98 37.0483C133.721 36.6869 133.389 36.3977 133.02 36.217C132.614 36.0002 132.172 35.8917 131.655 35.8917C131.175 35.8917 130.769 36.0002 130.4 36.1809C130.031 36.3977 129.699 36.6508 129.441 36.9761C129.183 37.3014 128.998 37.699 128.851 38.1327C128.703 38.5303 128.629 39.0002 128.629 39.47ZM128.629 43.8435H127.596V31.7712H128.629V36.5423C128.961 36.0002 129.404 35.6026 129.995 35.3134C130.585 35.0604 131.175 34.9158 131.803 34.9158C132.467 34.9158 133.057 35.0243 133.574 35.2773C134.053 35.5303 134.496 35.8556 134.791 36.2893C135.123 36.723 135.345 37.1929 135.529 37.7712C135.677 38.3134 135.787 38.9279 135.787 39.5062C135.787 40.1568 135.714 40.7351 135.566 41.3134C135.418 41.8556 135.16 42.3616 134.865 42.7592C134.533 43.1568 134.127 43.4821 133.611 43.7351C133.094 43.952 132.504 44.0965 131.766 44.0965C131.47 44.0965 131.175 44.0604 130.88 43.9881C130.585 43.9158 130.29 43.8074 130.031 43.6628C129.736 43.5182 129.515 43.3375 129.257 43.1206C129.035 42.9038 128.814 42.6508 128.666 42.3616H128.629V43.8435Z" fill="#060400"/>
    <path d="M138.776 43.8435H139.809V35.1688H138.776V43.8435ZM138.739 33.2893H139.846V31.8074H138.702V33.2893H138.739Z" fill="#060400"/>
    <path d="M143.721 41.1321C143.868 41.8912 144.163 42.3972 144.569 42.7225C144.975 43.0478 145.566 43.1924 146.377 43.1924C146.746 43.1924 147.078 43.1562 147.337 43.0478C147.595 42.9394 147.853 42.8309 148.001 42.6863C148.148 42.5418 148.296 42.361 148.407 42.1803C148.517 41.9996 148.554 41.7827 148.554 41.5659C148.554 41.1321 148.407 40.8068 148.148 40.6261C147.89 40.4092 147.521 40.2647 147.078 40.1562C146.672 40.0478 146.193 39.9394 145.713 39.8671C145.233 39.7948 144.754 39.6502 144.348 39.5056C143.905 39.3249 143.573 39.108 143.278 38.7827C142.983 38.4574 142.872 38.0237 142.872 37.4454C142.872 36.7225 143.13 36.108 143.684 35.6743C144.237 35.2406 145.012 34.9875 145.971 34.9875C146.931 34.9875 147.706 35.2044 148.296 35.602C148.886 36.0357 149.255 36.7225 149.366 37.6984H148.333C148.259 37.0116 147.964 36.5418 147.558 36.2888C147.115 35.9996 146.599 35.8912 145.935 35.8912C145.27 35.8912 144.791 36.0357 144.459 36.2888C144.127 36.5779 143.942 36.9032 143.942 37.3731C143.942 37.7707 144.09 38.0598 144.348 38.2767C144.643 38.4936 144.975 38.6382 145.418 38.7827C145.824 38.9273 146.304 39.0357 146.783 39.108C147.263 39.2165 147.743 39.361 148.148 39.5418C148.554 39.7225 148.923 39.9755 149.182 40.3008C149.477 40.6261 149.587 41.0598 149.587 41.602C149.587 41.9996 149.514 42.3972 149.329 42.6863C149.145 43.0116 148.886 43.2647 148.591 43.4815C148.259 43.6984 147.89 43.843 147.447 43.9514C147.005 44.0598 146.525 44.096 146.008 44.096C145.492 44.096 145.012 44.0237 144.606 43.8791C144.2 43.7345 143.868 43.5177 143.573 43.2647C143.278 43.0116 143.056 42.6863 142.909 42.3249C142.761 41.9635 142.651 41.5659 142.651 41.1683H143.721V41.1321Z" fill="#060400"/>
    <path d="M153.498 39.5418C153.498 40.0478 153.572 40.5177 153.72 40.9514C153.867 41.3852 154.052 41.7827 154.31 42.108C154.568 42.4333 154.864 42.6864 155.269 42.9032C155.638 43.0839 156.044 43.1924 156.524 43.1924C157.041 43.1924 157.52 43.0839 157.889 42.8671C158.295 42.6502 158.59 42.3972 158.849 42.0358C159.107 41.6743 159.291 41.2767 159.402 40.7707C159.513 40.3008 159.55 39.7948 159.55 39.2526C159.55 38.7105 159.476 38.2044 159.328 37.8068C159.181 37.3731 158.959 37.0478 158.701 36.7586C158.443 36.4695 158.111 36.2526 157.742 36.108C157.373 35.9635 156.967 35.8912 156.524 35.8912C156.044 35.8912 155.602 35.9996 155.233 36.1803C154.864 36.3611 154.532 36.6141 154.273 36.9755C154.015 37.3008 153.83 37.6984 153.683 38.1683C153.572 38.5297 153.498 39.0358 153.498 39.5418ZM153.498 47.2767H152.465V35.1683H153.498V36.6864H153.535C153.683 36.3972 153.867 36.1442 154.126 35.9273C154.347 35.7105 154.605 35.5297 154.9 35.3852C155.159 35.2406 155.454 35.1321 155.749 35.0599C156.044 34.9876 156.339 34.9514 156.635 34.9514C157.336 34.9514 157.963 35.0599 158.48 35.3129C158.996 35.5297 159.402 35.855 159.734 36.2888C160.066 36.6864 160.288 37.1924 160.435 37.7346C160.583 38.2767 160.657 38.8912 160.657 39.5418C160.657 40.1562 160.583 40.7345 160.398 41.2767C160.251 41.8189 159.992 42.3249 159.66 42.7586C159.328 43.1924 158.922 43.5177 158.443 43.7707C157.926 44.0237 157.373 44.1321 156.672 44.1321C156.044 44.1321 155.454 43.9876 154.864 43.7346C154.273 43.4815 153.831 43.0478 153.498 42.5056V47.2767Z" fill="#060400"/>
    <path d="M169.918 38.9276C169.918 38.4938 169.844 38.0962 169.734 37.7348C169.623 37.3734 169.438 37.0481 169.217 36.7589C168.996 36.4697 168.7 36.2529 168.331 36.1083C167.962 35.9637 167.557 35.8553 167.114 35.8553C166.671 35.8553 166.265 35.9276 165.896 36.1083C165.564 36.289 165.269 36.5059 165.011 36.795C164.752 37.0842 164.568 37.4095 164.42 37.7709C164.273 38.1324 164.162 38.53 164.125 38.9637H169.918V38.9276ZM164.125 39.7589C164.125 40.2288 164.199 40.6625 164.31 41.0962C164.42 41.53 164.605 41.8914 164.863 42.1806C165.121 42.5059 165.416 42.7228 165.785 42.9035C166.154 43.0842 166.597 43.1926 167.077 43.1926C167.741 43.1926 168.331 43.0119 168.811 42.6866C169.291 42.3252 169.623 41.8553 169.77 41.2047H170.914C170.804 41.6384 170.619 41.9999 170.398 42.3613C170.176 42.7228 169.955 43.0119 169.623 43.2649C169.328 43.5179 168.959 43.7348 168.516 43.8794C168.11 44.024 167.593 44.0962 167.04 44.0962C166.339 44.0962 165.712 43.9878 165.195 43.7348C164.679 43.5179 164.273 43.1926 163.941 42.7589C163.609 42.3613 163.35 41.8914 163.203 41.3131C163.055 40.7709 162.944 40.1565 162.944 39.542C162.944 38.8914 163.055 38.3131 163.24 37.7348C163.424 37.1926 163.682 36.6866 164.051 36.2529C164.383 35.8191 164.826 35.4938 165.343 35.277C165.859 35.024 166.413 34.9155 167.04 34.9155C168.258 34.9155 169.217 35.3131 169.918 36.1444C170.619 36.9758 170.951 38.1685 170.951 39.7228H164.125V39.7589Z" fill="#060400"/>
    <path d="M180.544 39.47C180.544 38.964 180.471 38.4941 180.323 38.0604C180.175 37.6267 179.991 37.2291 179.733 36.9038C179.474 36.5785 179.179 36.3255 178.773 36.1086C178.404 35.9279 177.998 35.8194 177.519 35.8194C177.002 35.8194 176.522 35.9279 176.117 36.1447C175.711 36.3616 175.416 36.6146 175.157 36.9761C174.899 37.3375 174.715 37.7351 174.604 38.2411C174.493 38.711 174.456 39.217 174.456 39.7592C174.456 40.3014 174.53 40.8074 174.678 41.205C174.825 41.6387 175.047 41.964 175.305 42.2532C175.563 42.5423 175.895 42.7592 176.264 42.9038C176.633 43.0483 177.039 43.1206 177.482 43.1206C177.962 43.1206 178.404 43.0122 178.773 42.8315C179.142 42.6508 179.474 42.3977 179.733 42.0363C179.991 41.711 180.175 41.3134 180.323 40.8797C180.471 40.4821 180.544 40.0122 180.544 39.47ZM180.544 31.7712H181.578V43.8435H180.544V42.3255H180.507C180.36 42.6146 180.175 42.8676 179.917 43.0845C179.696 43.3014 179.437 43.4821 179.142 43.6267C178.847 43.7712 178.589 43.8797 178.294 43.952C177.998 44.0243 177.703 44.0604 177.408 44.0604C176.707 44.0604 176.08 43.952 175.563 43.6989C175.047 43.4459 174.641 43.1568 174.309 42.7231C173.977 42.3255 173.755 41.8194 173.608 41.2773C173.46 40.6989 173.386 40.1206 173.386 39.47C173.386 38.8556 173.46 38.2773 173.645 37.7351C173.792 37.1568 174.05 36.6869 174.382 36.2532C174.715 35.8194 175.12 35.4941 175.6 35.2411C176.117 34.9881 176.67 34.8797 177.371 34.8797C177.998 34.8797 178.589 35.0242 179.179 35.2773C179.77 35.5664 180.212 35.964 180.544 36.5062V31.7712Z" fill="#060400"/>
    <path d="M186.374 42.4334C186.632 42.6864 186.965 42.8671 187.297 43.0117C187.666 43.1201 188.035 43.1924 188.367 43.1924C188.92 43.1924 189.363 43.084 189.732 42.8671C190.101 42.6502 190.433 42.3972 190.654 42.0358C190.913 41.7105 191.06 41.3129 191.171 40.8792C191.282 40.4454 191.355 39.9755 191.355 39.5057C191.355 39.0719 191.318 38.6743 191.245 38.2767C191.171 37.8792 191.023 37.5177 190.839 37.1924L186.374 42.4334ZM190.359 36.6141C190.212 36.4334 189.953 36.2527 189.621 36.1081C189.289 35.9635 188.883 35.8551 188.367 35.8551C187.813 35.8551 187.37 35.9635 187.001 36.1804C186.632 36.3972 186.3 36.6502 186.079 37.0117C185.858 37.3731 185.673 37.7707 185.563 38.2045C185.452 38.6382 185.378 39.1081 185.378 39.578C185.378 40.1201 185.415 40.5539 185.526 40.9153C185.636 41.2768 185.747 41.6021 185.895 41.8189L190.359 36.6141ZM184.825 44.2406L184.197 43.7707L185.194 42.6502C184.861 42.2527 184.64 41.7828 184.492 41.2406C184.345 40.6984 184.271 40.1563 184.271 39.578C184.271 38.9274 184.345 38.349 184.529 37.8069C184.714 37.2647 184.972 36.7587 185.304 36.3611C185.636 35.9274 186.079 35.6021 186.596 35.3852C187.112 35.1322 187.703 35.0237 188.404 35.0237C188.957 35.0237 189.437 35.096 189.879 35.2406C190.322 35.3852 190.691 35.6021 191.023 35.8912L191.909 34.843L192.499 35.349L191.54 36.4334C191.835 36.831 192.093 37.3008 192.241 37.843C192.389 38.3852 192.462 38.9635 192.462 39.578C192.462 40.2647 192.389 40.8792 192.204 41.4213C192.02 41.9635 191.761 42.4695 191.392 42.8671C191.06 43.2647 190.617 43.59 190.101 43.8069C189.584 44.0237 188.994 44.1322 188.367 44.1322C187.739 44.1322 187.186 44.0237 186.743 43.843C186.3 43.6623 185.968 43.4454 185.71 43.2286L184.825 44.2406Z" fill="#060400"/>
    <path d="M195.931 43.8432H194.898V35.1685H195.931V36.4697H195.968C196.226 35.9637 196.595 35.5661 197.111 35.3131C197.591 35.0601 198.144 34.9155 198.735 34.9155C199.141 34.9155 199.473 34.9517 199.768 35.0601C200.063 35.1685 200.285 35.277 200.506 35.4215C200.69 35.5661 200.875 35.7468 200.986 35.9637C201.133 36.1806 201.244 36.3975 201.318 36.6143C201.613 36.036 202.019 35.6023 202.498 35.3493C202.978 35.0962 203.568 34.9517 204.196 34.9517C204.786 34.9517 205.266 35.0601 205.635 35.2408C206.004 35.4215 206.262 35.6746 206.446 35.9999C206.631 36.3252 206.779 36.6866 206.815 37.0842C206.889 37.5179 206.926 37.9155 206.926 38.3493V43.8432H205.893V37.8432C205.893 37.2288 205.745 36.7228 205.487 36.3613C205.229 35.9999 204.712 35.8191 203.974 35.8191C203.605 35.8191 203.236 35.8914 202.904 36.0722C202.572 36.2167 202.24 36.4697 201.982 36.8312C201.871 36.9758 201.761 37.1565 201.687 37.3372C201.613 37.5541 201.539 37.7348 201.502 37.9517C201.465 38.1685 201.428 38.3854 201.428 38.6023C201.392 38.8191 201.391 38.9999 201.391 39.1806V43.8432H200.358V37.8432C200.358 37.2288 200.211 36.7228 199.953 36.3613C199.694 35.9999 199.178 35.8191 198.44 35.8191C198.071 35.8191 197.702 35.8914 197.333 36.0722C197.001 36.2167 196.669 36.4697 196.41 36.8312C196.3 36.9758 196.189 37.1565 196.115 37.3372C196.041 37.5541 195.968 37.7348 195.931 37.9517C195.894 38.1685 195.857 38.3854 195.82 38.6023C195.783 38.8191 195.783 38.9999 195.783 39.1806V43.8432H195.931Z" fill="#060400"/>
    <path d="M216.409 38.9276C216.409 38.4938 216.335 38.0962 216.224 37.7348C216.114 37.3734 215.929 37.0481 215.708 36.7589C215.486 36.4697 215.191 36.2529 214.822 36.1083C214.453 35.9637 214.047 35.8553 213.605 35.8553C213.162 35.8553 212.756 35.9276 212.387 36.1083C212.055 36.289 211.76 36.5059 211.502 36.795C211.243 37.0842 211.059 37.4095 210.911 37.7709C210.764 38.1324 210.653 38.53 210.616 38.9637H216.409V38.9276ZM210.616 39.7589C210.616 40.2288 210.69 40.6625 210.801 41.0962C210.911 41.53 211.096 41.8914 211.354 42.1806C211.612 42.5059 211.907 42.7228 212.276 42.9035C212.645 43.0842 213.088 43.1926 213.568 43.1926C214.232 43.1926 214.822 43.0119 215.302 42.6866C215.782 42.3252 216.114 41.8553 216.261 41.2047H217.405C217.294 41.6384 217.11 41.9999 216.889 42.3613C216.667 42.7228 216.446 43.0119 216.114 43.2649C215.819 43.5179 215.45 43.7348 215.007 43.8794C214.601 44.024 214.084 44.0962 213.531 44.0962C212.83 44.0962 212.203 43.9878 211.686 43.7348C211.169 43.5179 210.764 43.1926 210.432 42.7589C210.099 42.3613 209.841 41.8914 209.694 41.3131C209.546 40.7709 209.435 40.1565 209.435 39.542C209.435 38.8914 209.546 38.3131 209.73 37.7348C209.915 37.1926 210.173 36.6866 210.542 36.2529C210.874 35.8191 211.317 35.4938 211.834 35.277C212.35 35.024 212.904 34.9155 213.531 34.9155C214.749 34.9155 215.708 35.3131 216.409 36.1444C217.11 36.9758 217.442 38.1685 217.442 39.7228H210.616V39.7589Z" fill="#060400"/>
</svg>
