<svg width="302" height="48" viewBox="0 0 302 48" fill="none" xmlns="http://www.w3.org/2000/svg">
    <path d="M67.9573 27.2193C67.9573 28.3996 67.5281 29.4368 66.6339 30.0091C65.7397 30.7602 64.5594 31.0464 62.9498 31.0464C61.3403 31.0464 60.1599 30.7602 59.1227 30.2953V28.2207C59.7307 28.5069 60.4461 28.8288 61.0542 28.9719C61.8053 29.1149 62.3776 29.258 62.9856 29.258C63.8798 29.258 64.452 29.1149 64.917 28.8288C65.3462 28.5427 65.4893 28.0777 65.4893 27.5054C65.4893 27.0762 65.3462 26.6112 64.917 26.182C64.4878 25.7528 63.7367 25.4309 62.5563 24.8586C61.376 24.4294 60.4819 23.8213 59.9096 23.106C59.3015 22.3549 59.1585 21.6395 59.1585 20.7453C59.1585 19.565 59.5876 18.6708 60.3388 18.0985C61.0899 17.4905 62.2702 17.0613 63.5936 17.0613C64.917 17.0613 66.2405 17.3474 67.5639 17.9555L67.1346 19.7081C65.9542 19.2789 64.7739 18.9927 63.9155 18.9927C63.1644 18.9927 62.5922 19.1358 62.306 19.4219C62.0199 19.7081 61.7337 20.1731 61.7337 20.6023C61.7337 20.8884 61.8768 21.2103 62.0198 21.4964C62.1629 21.7826 62.449 21.9257 62.7709 22.2476C63.0571 22.5337 63.8082 22.8556 64.7024 23.1418C65.7397 23.571 66.455 23.8929 66.92 24.3221C67.3492 24.7513 67.8142 25.0732 67.9573 25.5024C67.8142 26.0389 67.9573 26.647 67.9573 27.2193Z" fill="#080600"/>
    <path d="M74.1449 29.294C74.7171 29.294 75.1821 29.1509 75.7543 29.0078V30.6174C75.4682 30.7605 75.1821 30.7605 74.8602 30.9035C74.4309 30.9035 74.1091 31.0466 73.6799 31.0466C71.6054 31.0466 70.6038 30.0093 70.6038 27.7917V22.212H69.1373V21.1748L70.6038 20.4236L71.355 18.2061H72.6784V20.5667H75.6113V22.1763H72.6784V27.756C72.6784 28.3283 72.8214 28.6502 73.1076 28.9363C73.4295 29.294 73.7157 29.294 74.1449 29.294Z" fill="#080600"/>
    <path d="M81.0841 29.4366C81.8352 29.4366 82.5504 29.1505 83.0154 28.6855C83.4446 28.2563 83.7666 27.6483 83.7666 26.7898V25.8956H82.4431C81.4059 25.8956 80.6905 26.0387 80.2256 26.5037C79.7964 26.7898 79.4745 27.219 79.4745 27.9702C79.4745 28.3994 79.6175 28.8644 79.9037 29.0074C80.1898 29.2936 80.476 29.4366 81.0841 29.4366ZM84.3031 30.9031L83.8739 29.4366H83.7308C83.3016 30.0089 82.6935 30.4739 82.2643 30.76C81.8351 31.0462 81.084 31.0462 80.3329 31.0462C79.2956 31.0462 78.5802 30.76 77.9722 30.152C77.3641 29.5797 77.078 28.8286 77.078 27.7913C77.078 26.7541 77.5073 25.8956 78.2584 25.4307C79.0095 24.8584 80.3329 24.5365 81.9424 24.5365H83.695V24.1073C83.695 23.535 83.552 22.9269 83.2658 22.6408C82.9797 22.3547 82.5147 22.2116 81.7993 22.2116C81.2271 22.2116 80.7621 22.3547 80.3329 22.4977C79.9036 22.6408 79.4387 22.7839 78.8664 23.07L78.1153 21.4605C78.6876 21.1743 79.2956 20.8882 80.0468 20.7451C80.7979 20.6021 81.3702 20.459 81.9782 20.459C83.3016 20.459 84.3388 20.7451 84.9111 21.3532C85.6622 21.9612 85.9484 22.8196 85.9484 24V30.9031H84.3031Z" fill="#080600"/>
    <path d="M92.8515 29.294C93.4238 29.294 93.8888 29.1509 94.4611 29.0078V30.6174C94.175 30.7605 93.8888 30.7605 93.5669 30.9035C93.1377 30.9035 92.8158 31.0466 92.3866 31.0466C90.312 31.0466 89.3106 30.0093 89.3106 27.7917V22.212H87.8441V21.1748L89.3106 20.4236L90.0617 18.2061H91.3851V20.5667H94.318V22.1763H91.3851V27.756C91.3851 28.3283 91.5282 28.6502 91.8144 28.9363C92.1005 29.294 92.4223 29.294 92.8515 29.294Z" fill="#080600"/>
    <path d="M103.439 27.9704C103.439 29.0077 103.153 29.723 102.402 30.3311C101.65 30.9391 100.649 31.0822 99.3255 31.0822C98.0021 31.0822 96.8218 30.9391 95.9276 30.5099V28.6142C97.1079 29.1865 98.2882 29.5084 99.3255 29.5084C100.649 29.5084 101.4 29.0792 101.4 28.3281C101.4 28.0419 101.257 27.8989 101.114 27.7558C100.971 27.6127 100.685 27.4697 100.363 27.1477C100.041 26.8258 99.4685 26.7185 98.8963 26.5755C97.7159 26.1463 96.8217 25.6813 96.5356 25.2521C96.1064 24.8229 95.9276 24.2148 95.9276 23.4995C95.9276 22.6053 96.2138 21.8899 96.9649 21.4249C97.716 20.9957 98.5744 20.6738 99.8978 20.6738C101.078 20.6738 102.258 20.96 103.296 21.4249L102.545 23.0345C101.364 22.6053 100.47 22.2834 99.7548 22.2834C98.5744 22.2834 98.0021 22.5695 98.0021 23.3206C98.0021 23.6068 98.1451 23.9287 98.4313 24.2148C98.7174 24.501 99.4686 24.8229 100.363 25.109C101.257 25.3951 101.829 25.717 102.294 26.0032C102.723 26.2893 103.045 26.5755 103.188 26.8974C103.296 27.0762 103.439 27.5054 103.439 27.9704Z" fill="#080600"/>
    <path d="M110.95 22.2117H108.446V30.9032H106.229V22.2117H104.476V21.1744L106.229 20.4233V19.708C106.229 18.5276 106.515 17.6335 107.123 17.0612C107.695 16.4531 108.589 16.167 109.77 16.167C110.521 16.167 111.236 16.3101 111.987 16.5962L111.379 18.2057C110.807 18.0627 110.342 17.9196 109.77 17.9196C109.34 17.9196 108.875 18.0627 108.732 18.3488C108.446 18.635 108.446 19.0999 108.446 19.6722V20.4233H110.95V22.2117Z" fill="#080600"/>
    <path d="M114.348 25.7526C114.348 28.1132 115.242 29.2936 116.994 29.2936C118.747 29.2936 119.641 28.1132 119.641 25.7526C119.641 23.3919 118.747 22.2116 116.994 22.2116C116.1 22.2116 115.385 22.4977 114.92 23.1058C114.634 23.6781 114.348 24.5722 114.348 25.7526ZM122.002 25.7526C122.002 27.3621 121.573 28.6855 120.678 29.7228C119.784 30.76 118.604 31.1892 116.994 31.1892C115.957 31.1892 115.242 31.0462 114.491 30.5812C113.775 30.152 113.167 29.5439 112.738 28.6855C112.309 27.7913 112.13 26.9329 112.13 25.8956C112.13 24.2861 112.559 22.9627 113.453 21.9255C114.348 21.0313 115.528 20.459 117.137 20.459C118.604 20.459 119.784 20.8882 120.678 21.9255C121.537 22.8196 122.002 24.143 122.002 25.7526Z" fill="#080600"/>
    <path d="M129.657 20.459C130.086 20.459 130.408 20.459 130.694 20.6021L130.551 22.6766C130.265 22.5335 129.943 22.5335 129.513 22.5335C128.619 22.5335 127.904 22.8196 127.296 23.4277C126.688 24.0357 126.402 24.7511 126.402 25.6453V31.0819H124.184V20.7809H125.937L126.223 22.5335H126.366C126.652 21.9612 127.117 21.3532 127.689 21.067C128.476 20.6021 129.048 20.459 129.657 20.459Z" fill="#080600"/>
    <path d="M135.093 30.9031L131.123 20.6021H133.483L135.558 26.6468C135.844 27.684 136.166 28.3994 136.166 29.1505H136.309C136.309 28.7213 136.595 27.8271 136.917 26.6468L138.992 20.6021H141.352L137.382 30.9031H135.093Z" fill="#080600"/>
    <path d="M146.145 29.4366C146.896 29.4366 147.611 29.1505 148.076 28.6855C148.506 28.2563 148.828 27.6483 148.828 26.7898V25.8956H147.504C146.467 25.8956 145.751 26.0387 145.286 26.5037C144.857 26.7898 144.535 27.219 144.535 27.9702C144.535 28.3994 144.678 28.8644 144.965 29.0074C145.108 29.2936 145.537 29.4366 146.145 29.4366ZM149.364 30.9031L148.935 29.4366H148.792C148.363 30.0089 147.754 30.4739 147.325 30.76C146.896 31.0462 146.145 31.0462 145.394 31.0462C144.357 31.0462 143.641 30.76 143.033 30.152C142.425 29.5797 142.139 28.8286 142.139 27.7913C142.139 26.7541 142.568 25.8956 143.319 25.4307C144.07 24.8584 145.394 24.5365 147.003 24.5365H148.756V24.1073C148.756 23.535 148.613 22.9269 148.327 22.6408C148.041 22.3547 147.576 22.2116 146.86 22.2116C146.288 22.2116 145.823 22.3547 145.394 22.4977C144.965 22.6408 144.5 22.7839 143.927 23.07L143.176 21.4605C143.748 21.1743 144.357 20.8882 145.108 20.7451C145.859 20.6021 146.431 20.459 147.039 20.459C148.363 20.459 149.4 20.7451 149.972 21.3532C150.723 21.9612 151.009 22.8196 151.009 24V30.9031H149.364Z" fill="#080600"/>
    <path d="M156.303 16.3459H154.085V30.9033H156.303V16.3459Z" fill="#080600"/>
    <path d="M163.206 29.294C163.779 29.294 164.244 29.1509 164.816 29.0078V30.6174C164.53 30.7605 164.244 30.7605 163.922 30.9035C163.492 30.9035 163.171 31.0466 162.741 31.0466C160.667 31.0466 159.665 30.0093 159.665 27.7917V22.212H158.199V21.1748L159.665 20.4236L160.417 18.2061H161.74V20.5667H164.673V22.1763H161.74V27.756C161.74 28.3283 161.883 28.6502 162.169 28.9363C162.455 29.294 162.777 29.294 163.206 29.294Z" fill="#080600"/>
    <path d="M170.109 29.4366C170.861 29.4366 171.576 29.1505 172.041 28.6855C172.47 28.2563 172.792 27.6483 172.792 26.7898V25.8956H171.469C170.431 25.8956 169.716 26.0387 169.251 26.5037C168.822 26.7898 168.5 27.219 168.5 27.9702C168.5 28.3994 168.643 28.8644 168.929 29.0074C169.072 29.2936 169.537 29.4366 170.109 29.4366ZM173.364 30.9031L172.935 29.4366H172.792C172.363 30.0089 171.755 30.4739 171.326 30.76C170.896 31.0462 170.145 31.0462 169.394 31.0462C168.357 31.0462 167.642 30.76 167.033 30.152C166.425 29.5797 166.139 28.8286 166.139 27.7913C166.139 26.7541 166.568 25.8956 167.32 25.4307C168.071 24.8584 169.394 24.5365 171.004 24.5365H172.756V24.1073C172.756 23.535 172.613 22.9269 172.327 22.6408C172.041 22.3547 171.576 22.2116 170.861 22.2116C170.288 22.2116 169.823 22.3547 169.394 22.4977C168.965 22.6408 168.5 22.7839 167.928 23.07L167.176 21.4605C167.749 21.1743 168.357 20.8882 169.108 20.7451C169.859 20.6021 170.431 20.459 171.039 20.459C172.363 20.459 173.4 20.7451 173.972 21.3532C174.723 21.9612 175.01 22.8196 175.01 24V30.9031H173.364Z" fill="#080600"/>
    <path d="M183.2 20.459C183.63 20.459 183.951 20.459 184.238 20.6021L184.095 22.6766C183.808 22.5335 183.486 22.5335 183.057 22.5335C182.163 22.5335 181.448 22.8196 180.84 23.4277C180.232 24.0357 179.945 24.7511 179.945 25.6453V31.0819H177.728V20.7809H179.48L179.767 22.5335H179.91C180.196 21.9612 180.661 21.3532 181.233 21.067C182.056 20.6021 182.628 20.459 183.2 20.459Z" fill="#080600"/>
    <path d="M190.282 22.0685C189.531 22.0685 188.959 22.3547 188.673 22.8196C188.243 23.2489 187.921 23.8569 187.921 24.7153H192.643C192.643 23.8211 192.5 23.2489 192.071 22.8196C191.606 22.3547 191.033 22.0685 190.282 22.0685ZM190.711 31.1892C189.102 31.1892 187.921 30.76 186.884 29.7228C185.847 28.6855 185.561 27.5052 185.561 25.8956C185.561 24.2861 185.99 22.9627 186.884 21.9255C187.778 20.8882 188.959 20.459 190.425 20.459C191.749 20.459 192.929 20.8882 193.644 21.6393C194.395 22.5335 194.825 23.535 194.825 25.0372V26.2176H187.921C187.921 27.2548 188.208 27.9702 188.816 28.5782C189.245 29.1863 189.996 29.3293 191.033 29.3293C191.641 29.3293 192.214 29.3293 192.786 29.1863C193.394 29.0432 193.823 28.9001 194.538 28.5782V30.3308C193.966 30.617 193.501 30.76 192.929 30.9389C192.035 31.0462 191.462 31.1892 190.711 31.1892Z" fill="#080600"/>
    <path d="M206.342 30.9031H204.124V24.5723C204.124 23.8211 203.981 23.2489 203.695 22.8196C203.409 22.3904 202.801 22.2116 202.229 22.2116C201.335 22.2116 200.619 22.4977 200.154 23.1058C199.725 23.7138 199.582 24.5722 199.582 25.8956V31.0462H197.364V20.7451H199.117L199.403 22.0685H199.546C199.832 21.6393 200.297 21.1743 200.87 20.8882C201.478 20.6021 202.05 20.459 202.801 20.459C205.305 20.459 206.485 21.7824 206.485 24.2861V30.9031H206.342Z" fill="#080600"/>
    <path d="M216.643 30.9028H214.425V20.6018H216.643V30.9028ZM214.282 17.8119C214.282 17.3827 214.425 17.0608 214.568 16.9177C214.711 16.7747 215.176 16.6316 215.463 16.6316C215.892 16.6316 216.214 16.7747 216.357 16.9177C216.5 17.0608 216.643 17.3469 216.643 17.8119C216.643 18.2411 216.5 18.563 216.357 18.7061C216.214 18.8492 215.749 18.9922 215.463 18.9922C215.033 18.9922 214.711 18.8492 214.568 18.7061C214.425 18.5273 214.282 18.2411 214.282 17.8119Z" fill="#080600"/>
    <path d="M232.667 17.2043H235.027L230.306 30.9033H227.945L223.224 17.2043H225.585L228.375 25.7528C228.518 26.182 228.661 26.647 228.804 27.3623C228.947 28.1134 229.09 28.5427 229.09 28.8288C229.233 28.3996 229.233 27.7915 229.519 27.2193C229.662 26.647 229.805 26.182 229.948 25.8958L232.667 17.2043Z" fill="#080600"/>
    <path d="M240.75 22.0685C239.999 22.0685 239.427 22.3547 239.141 22.8196C238.712 23.2489 238.39 23.8569 238.39 24.7153H243.111C243.111 23.8211 242.968 23.2489 242.503 22.8196C241.931 22.3547 241.358 22.0685 240.75 22.0685ZM241.072 31.1892C239.463 31.1892 238.282 30.76 237.245 29.7228C236.351 28.8286 235.922 27.5052 235.922 25.8956C235.922 24.2861 236.351 22.9627 237.245 21.9255C238.139 20.8882 239.32 20.459 240.786 20.459C242.11 20.459 243.29 20.8882 244.005 21.6393C244.756 22.5335 245.186 23.535 245.186 25.0372V26.2176H238.282C238.282 27.2548 238.569 27.9702 239.177 28.5782C239.606 29.1863 240.357 29.3293 241.394 29.3293C242.002 29.3293 242.575 29.3293 243.147 29.1863C243.755 29.0432 244.184 28.9001 244.899 28.5782V30.3308C244.327 30.617 243.862 30.76 243.29 30.9389C242.396 31.0462 241.788 31.1892 241.072 31.1892Z" fill="#080600"/>
    <path d="M254.592 27.9704C254.592 29.0077 254.306 29.723 253.412 30.3311C252.661 30.9391 251.659 31.0822 250.336 31.0822C249.012 31.0822 247.832 30.9391 246.938 30.5099V28.6142C248.118 29.1865 249.299 29.5084 250.336 29.5084C251.659 29.5084 252.41 29.0792 252.41 28.3281C252.41 28.0419 252.267 27.8989 252.124 27.7558C251.981 27.6127 251.695 27.4697 251.373 27.1477C251.087 27.0047 250.479 26.7185 249.907 26.5755C248.726 26.1463 247.832 25.6813 247.546 25.2521C247.117 24.8229 246.938 24.2148 246.938 23.4995C246.938 22.6053 247.224 21.8899 247.975 21.4249C248.726 20.9957 249.585 20.6738 250.908 20.6738C252.088 20.6738 253.269 20.96 254.306 21.4249L253.555 23.0345C252.375 22.6053 251.48 22.2834 250.765 22.2834C249.585 22.2834 249.012 22.5695 249.012 23.3206C249.012 23.6068 249.156 23.9287 249.442 24.2148C249.728 24.501 250.479 24.8229 251.337 25.109C252.232 25.3951 252.804 25.717 253.269 26.0032C253.698 26.2893 254.02 26.5755 254.163 26.8974C254.306 27.0762 254.592 27.5054 254.592 27.9704Z" fill="#080600"/>
    <path d="M260.78 29.294C261.352 29.294 261.817 29.1509 262.389 29.0078V30.6174C262.103 30.7605 261.817 30.7605 261.495 30.9035C261.066 30.9035 260.744 31.0466 260.315 31.0466C258.24 31.0466 257.239 30.0093 257.239 27.7917V22.212H255.772V21.1748L257.239 20.4236L257.99 18.2061H259.313V20.5667H262.246V22.1763H259.313V27.756C259.313 28.3283 259.456 28.6502 259.743 28.9363C260.029 29.294 260.351 29.294 260.78 29.294Z" fill="#080600"/>
    <path d="M266.682 16.3459H264.464V30.9033H266.682V16.3459Z" fill="#080600"/>
    <path d="M273.012 29.4366C273.763 29.4366 274.479 29.1505 274.944 28.6855C275.373 28.2563 275.695 27.6483 275.695 26.7898V25.8956H274.371C273.334 25.8956 272.619 26.0387 272.154 26.5037C271.725 26.7898 271.403 27.219 271.403 27.9702C271.403 28.3994 271.546 28.8644 271.832 29.0074C271.975 29.2936 272.404 29.4366 273.012 29.4366ZM276.231 30.9031L275.802 29.4366C275.373 30.0089 274.765 30.4739 274.336 30.76C273.907 31.0462 273.155 31.0462 272.404 31.0462C271.367 31.0462 270.652 30.76 270.044 30.152C269.471 29.5797 269.149 28.8286 269.149 27.7913C269.149 26.7541 269.579 25.8956 270.33 25.4307C271.081 24.8584 272.404 24.5365 274.014 24.5365H275.766V24.1073C275.766 23.535 275.623 22.9269 275.337 22.6408C275.051 22.3547 274.586 22.2116 273.871 22.2116C273.263 22.2116 272.833 22.3547 272.404 22.4977C271.975 22.6408 271.51 22.7839 270.938 23.07L270.187 21.4605C270.759 21.1743 271.367 20.8882 271.939 20.7451C272.512 20.6021 273.263 20.459 273.871 20.459C275.194 20.459 276.231 20.7451 276.804 21.3532C277.376 21.9612 277.841 22.8196 277.841 24V30.9031H276.231Z" fill="#080600"/>
    <path d="M289.931 30.9031H287.713V24.5723C287.713 23.8211 287.57 23.2489 287.284 22.8196C286.998 22.3904 286.39 22.2116 285.817 22.2116C284.923 22.2116 284.208 22.4977 283.743 23.1058C283.314 23.7138 283.171 24.5722 283.171 25.8956V31.0462H280.953V20.7451H282.706L282.992 22.0685H283.135C283.421 21.6393 283.886 21.1743 284.458 20.8882C285.066 20.6021 285.638 20.459 286.39 20.459C288.893 20.459 290.074 21.7824 290.074 24.2861V30.9031H289.931Z" fill="#080600"/>
    <path d="M297.12 29.2938C298.014 29.2938 298.73 29.0077 299.051 28.5427C299.338 28.1135 299.624 27.2193 299.624 26.0389V25.7528C299.624 24.4294 299.481 23.5352 299.051 22.9629C298.622 22.3549 298.014 22.0688 296.977 22.0688C296.261 22.0688 295.653 22.3549 295.224 22.9629C294.795 23.5352 294.652 24.4294 294.652 25.6097C294.652 26.7901 294.795 27.6843 295.224 28.2565C295.653 29.0077 296.262 29.2938 297.12 29.2938ZM296.548 31.1895C295.224 31.1895 294.187 30.7603 293.615 29.723C293.042 28.6857 292.577 27.5054 292.577 25.7528C292.577 24.0002 292.864 22.8199 293.615 21.7826C294.366 20.8884 295.367 20.3161 296.691 20.3161C298.014 20.3161 299.051 20.7454 299.767 21.7826H299.91C299.767 21.0673 299.767 20.4592 299.767 20.03V16.2029H301.984V30.7603H300.232L299.803 29.4369H299.659C298.908 30.6172 297.871 31.1895 296.548 31.1895Z" fill="#080600"/>
    <path d="M24.5713 0C37.8052 0 48.5712 10.7303 48.5712 24C48.5712 37.2698 37.841 48 24.5713 48C11.3373 48 0.571289 37.2698 0.571289 24C0.571289 10.7303 11.3015 0 24.5713 0Z" fill="#080600"/>
    <path d="M16.0226 26.1817V25.5737H16.4518H16.5949V25.8598L16.0226 26.1817ZM20.8869 18.0983C20.8869 18.0983 21.7811 16.0237 22.2103 15.8807C22.6395 15.7376 22.9615 15.5945 23.963 15.4515L23.8199 16.0237C23.8199 16.0237 22.6396 16.3099 22.4965 16.4529C22.2104 16.596 21.6023 18.0625 21.6023 18.2056L20.8869 18.0983ZM29.1135 10.444C29.2566 10.444 29.3996 10.1579 29.5427 10.1579C29.6858 10.1579 29.8288 10.3009 29.8288 10.3009V10.5871C29.6857 10.8732 29.3996 11.1951 29.3996 11.1951C29.2565 10.7301 29.1135 10.5871 29.1135 10.444ZM24.2491 10.3009L24.106 9.69289L24.8214 8.94177L28.9346 9.69289H29.0777L28.3266 10.1221C28.3266 10.1221 27.0032 9.54982 25.6798 9.54982C25.6798 9.54982 25.9659 9.97903 25.2506 10.3009C25.1075 10.3009 24.4995 10.444 24.4995 9.87172L24.2491 10.3009ZM26.1806 11.4813L26.3237 12.0535L24.2491 11.7674L24.106 11.1951L26.1806 11.4813ZM11.7663 13.8419C12.0524 13.4127 13.5188 11.6243 14.2699 11.3382C14.6991 11.1951 15.3072 11.1951 15.3072 11.1951V13.4127C15.1641 13.4127 14.878 13.2696 14.5561 13.2696C14.2342 13.2696 13.3757 13.4127 13.3757 13.4127L13.0896 13.8419C13.805 13.6988 14.1269 13.985 14.1269 13.985C14.1269 14.1281 14.2699 14.7361 14.413 14.7361C14.5561 14.8792 15.3072 14.8792 15.3072 14.8792V15.1653C14.878 15.1653 14.1269 15.5945 13.9838 15.7376C13.6977 16.0237 13.4115 16.6318 13.4115 16.6318L13.2684 17.061L13.4115 17.2041C13.4115 17.2041 13.6976 16.7749 13.8407 16.7749C14.1269 16.4887 14.4487 16.9179 14.5918 16.9179C14.7349 16.9179 14.878 16.7749 15.0211 16.6318L15.1641 16.4887V24.143C14.413 23.9999 13.8407 24.286 13.6976 24.4291C13.5545 24.5722 13.4115 24.8583 13.4115 24.8583H14.3057C14.4488 24.8583 14.7349 25.6094 14.7349 25.7525H15.1641V26.6467C15.1641 26.6467 15.0211 26.9328 14.878 27.0759C14.7349 27.362 14.4488 28.2562 14.4488 28.2562L14.5918 28.5424C14.5918 28.5424 14.7349 28.2562 14.7349 28.1132C14.878 27.827 15.0211 27.827 15.0211 27.827V30.1877H15.7722V27.6839L16.0583 27.827C16.2014 27.6839 16.7737 26.5036 16.7737 26.5036C16.9168 26.5036 17.3818 26.6467 17.3818 26.6467L17.6679 27.827H18.276L23.7126 20.1728L24.1418 20.4589L21.9242 23.5349C22.2104 23.9641 22.4964 24.286 22.6395 24.5722C22.9256 25.3233 23.0688 26.3248 23.0688 26.3248V26.4679C22.4608 26.754 20.565 28.2205 20.565 28.3635C20.2789 28.5066 19.6708 29.1146 19.5277 29.2577C19.0985 30.438 19.0986 33.514 19.2416 33.836C19.2416 34.1221 19.6708 34.5871 19.6708 34.5871C19.6708 34.5871 19.5278 34.5871 19.3847 34.7301C19.2417 34.8732 18.4906 35.6243 18.4906 35.6243C18.0614 36.2324 16.416 37.6988 16.416 37.6988C15.9868 37.6988 15.5218 37.5558 15.5218 37.5558V36.6616C15.5218 36.5185 15.5218 36.2324 15.3787 36.0893C15.2356 35.8032 14.9495 35.3382 14.9495 35.3382L14.1984 34.7659H13.7692C13.7692 34.7659 14.0553 35.052 14.1984 35.1951C14.3415 35.3382 14.1984 35.6243 14.1984 35.6243C14.0553 35.7674 13.9123 36.0535 13.9123 36.2324C13.9123 36.4112 14.6634 37.1266 14.6634 37.1266L14.5203 37.2696C14.5203 37.2696 14.0911 36.9835 13.7692 36.8404L13.483 36.6974C13.34 36.6974 12.7319 36.8404 12.5888 36.8404C12.4458 36.8404 11.8377 37.4127 11.8377 37.4127V37.8419C11.8377 37.8419 11.9809 37.6988 12.1239 37.6988C12.267 37.6988 12.41 37.5558 12.6961 37.5558C12.8392 37.5558 12.8392 37.6988 12.8392 37.6988C12.9823 37.985 13.1254 38.1281 13.2684 38.3069C13.4115 38.45 14.4488 38.1638 14.4488 38.1638L14.5918 38.3069C14.1626 38.45 13.8407 38.9149 13.6976 39.058C13.5545 39.2011 13.9838 39.8091 13.9838 39.8091C13.9838 40.0953 13.2327 40.3814 13.2327 40.3814H13.5188H13.6619C13.9481 40.2383 14.2699 40.2383 14.413 40.0953C14.6992 39.8091 15.0211 39.4872 15.0211 39.4872L15.1641 38.9149C15.1641 38.6288 15.4503 38.7719 15.9153 38.7719C16.2014 38.7719 16.2014 38.7719 16.2014 38.9149C16.2014 38.9149 16.2014 39.058 16.3445 39.2011C16.3445 39.3442 16.4876 39.7734 16.4876 39.7734H16.6306C16.6306 39.7734 17.5248 38.593 17.6679 38.593C17.8109 38.45 21.2088 36.0893 21.2088 36.0893C21.495 36.0893 21.6381 36.0893 21.96 35.9462C22.3892 35.6601 22.8542 35.1951 22.8542 35.1951V34.444C22.8542 33.8717 22.9972 33.6929 23.1403 33.4067C23.2834 33.1206 23.7125 32.6556 23.8914 32.3695L24.0345 32.2264C24.0345 32.2264 23.1403 31.1892 22.9972 30.903C22.7111 30.4738 22.7111 30.0088 22.8542 29.7227C23.5696 27.219 24.0345 25.6094 24.0345 25.4664V24.4291L24.6068 24.8583V25.7525C24.6068 26.0386 24.1776 27.827 24.0345 28.1132C23.7483 29.2935 23.2834 30.3307 23.6053 30.6169C23.8914 31.2249 25.2148 32.5126 25.6798 32.8345C26.2878 33.1206 29.0777 32.9775 29.2208 32.9775C31.1523 33.2637 31.1522 33.2637 31.2953 33.5498C31.4384 33.6929 32.6187 35.0163 32.9049 35.3024C33.4771 35.9105 34.3713 37.3769 34.3713 37.3769L33.6201 37.52C33.0479 36.9477 32.5829 36.6258 32.2968 36.4828C31.7245 36.1966 31.1164 36.4828 30.8303 36.4828C30.4011 36.4828 30.2223 36.912 30.2223 36.912C30.5084 36.912 30.9734 36.912 31.1165 37.055C31.2596 37.1981 31.2595 37.6273 31.4026 37.6273C31.5457 37.7704 32.2968 37.7704 32.2968 37.7704V38.0565C32.1537 38.0565 31.4026 38.1996 31.1165 38.1996C30.8303 38.3427 30.8303 38.3427 30.6872 38.4857C30.5441 38.6288 30.115 39.523 30.115 39.523L30.258 39.8091C30.258 39.6661 31.0092 39.2011 31.0092 39.2011C31.1523 39.4872 31.4383 39.4872 31.5814 39.4872C32.0106 39.3442 32.6187 38.593 32.6187 38.593L32.9049 38.7361L32.6187 39.1653C32.1895 39.5945 32.4756 40.6318 32.4756 40.6318C32.6186 40.6318 32.7618 40.7749 32.7618 40.7749C32.6187 40.4887 33.0479 39.8807 33.0479 39.8807C33.334 40.0237 33.6202 39.8807 33.7991 39.7376C34.0852 39.5945 34.0851 38.4142 34.0851 38.4142L35.4085 38.1281L37.0181 38.4142L37.1612 38.1281L36.875 37.8419C36.4458 37.0908 36.267 36.9477 36.1239 36.6616C35.6947 35.6243 34.0493 32.8345 34.0493 32.6914V32.2264C34.0493 32.0833 33.4413 31.3322 33.1552 31.0461C32.869 30.7599 32.261 30.7599 32.261 30.7599C31.3668 30.1877 30.5084 29.5796 30.5084 29.4366C30.2223 29.0073 28.8988 27.6839 28.5769 27.362C28.4338 27.219 27.1104 26.0386 27.1104 26.0386L27.6827 25.8956C27.6827 25.8956 28.8631 26.9328 29.0062 27.0759C29.4354 27.5051 30.3295 27.9701 30.6157 28.1132C33.1194 29.7227 34.2998 29.7227 34.4428 29.7227C36.1954 29.8658 36.9465 28.8285 37.0896 28.6854C37.5188 28.2562 38.1269 26.9328 37.0896 25.2875C36.8035 24.8583 35.6231 23.213 35.6231 23.213L37.9838 21.8896V21.6035L36.9465 21.8896C36.9465 21.8896 36.1955 21.7465 35.9093 21.7465H35.6231L34.872 21.8896V21.6035L38.0911 19.8509V19.4216C38.0911 19.4216 37.0539 19.7078 36.9108 19.7078C36.7677 19.7078 36.0166 19.5647 35.7304 19.5647H35.3012L34.2639 20.3158V20.0297L37.9481 17.9552L38.0911 17.669L36.9108 17.9552C36.9108 17.9552 35.8735 17.669 35.8735 17.8121L35.1224 17.9552H34.9793C34.9793 17.8121 36.3027 16.2026 36.3027 16.0595C36.9108 15.4872 37.483 14.45 37.6261 14.3069C39.0926 11.9462 38.1984 10.4798 37.9123 10.1936C36.732 8.29795 34.6933 8.72716 34.3713 8.72716C32.4399 9.33521 32.4399 11.2309 32.4399 11.374C32.4399 11.517 32.4398 11.6601 32.1537 11.8032C31.7245 12.2324 30.8303 14.0208 30.8303 14.0208H31.2595C31.2595 14.0208 32.0106 13.3054 32.1537 13.1266C32.2967 12.9835 32.2968 13.2696 32.2968 13.4127C32.1537 14.3069 31.5457 15.0222 31.4026 15.3084C30.8303 16.2026 29.9361 18.0983 29.9361 18.0983H30.3653C31.1164 16.9179 33.4413 15.4515 33.6201 15.3084C34.0494 14.8792 33.6201 13.2339 33.6201 13.2339L34.0493 13.3769C34.0493 13.52 34.1925 13.9492 34.3355 14.4142V15.4515L34.6216 15.1653C34.7647 15.0222 35.337 13.0908 34.9078 11.9105C34.7648 11.4813 33.7274 11.0163 33.7274 11.0163C33.5844 10.444 34.0136 9.83596 34.1566 9.69289C35.7662 8.51256 36.9465 9.69289 37.4115 10.444C38.3057 12.1966 36.5173 14.2711 36.0881 14.5573C35.0509 15.5945 32.5471 17.7763 32.4041 18.0983C30.6515 20.1728 31.3669 21.3531 31.6888 21.9254C32.118 22.6765 34.3355 24.7152 34.7647 25.1802C35.5159 25.7525 36.0881 26.6467 36.2312 26.9328C36.8393 29.0073 34.7647 29.2935 33.8705 29.1504C32.1179 28.7212 29.6142 26.5036 29.1492 26.2175C27.5397 25.1802 27.0747 25.4664 27.0747 25.1802C26.9317 23.9999 26.7885 19.7436 26.7885 19.7436C26.7885 19.6005 26.9317 19.7436 27.0747 19.7436C27.2178 19.8866 27.3608 19.8866 27.3608 19.7436V18.5632C27.5039 18.134 27.7901 17.526 27.9331 17.2398C28.6842 15.6303 29.2565 14.45 29.3996 13.6988C29.5427 12.8047 29.3996 11.4813 29.3996 11.4813C29.5427 11.3382 30.0076 10.5871 30.1507 10.5871V9.69289C30.0076 9.54982 29.7215 9.54982 29.7215 9.54982H29.5784L30.7588 7.79721C30.6157 7.79721 30.6157 7.65414 30.4726 7.79721C30.1865 7.79721 29.9004 8.08335 29.9004 8.08335C29.7573 7.79721 29.4712 7.79721 29.3281 7.79721C28.7558 7.94028 28.8988 8.40525 28.8988 8.40525C29.0419 8.83446 29.4712 8.69139 29.65 8.69139L29.2208 9.1206L27.6112 8.83446L27.4681 8.40525C27.4681 8.54832 27.7543 8.54832 27.7543 8.54832C28.0405 8.54832 28.1835 8.26218 28.1835 8.11911C28.1835 7.54683 27.5754 7.54683 27.5754 7.54683C27.5754 7.11762 27.2893 7.11762 27.1462 7.11762C26.717 7.11762 26.5382 7.40376 26.5382 7.40376H26.3952C25.9659 7.26069 25.8229 7.6899 25.8229 7.83297C25.9659 8.58409 26.5382 8.26218 26.5382 8.26218L26.252 8.69139L24.6426 8.40525L24.4995 7.97604C24.4995 7.97604 24.6425 8.11911 24.7856 8.11911C25.3578 7.97604 25.3579 7.6899 25.3579 7.54683C25.3579 6.65265 24.4637 7.11762 24.4637 7.11762C24.0345 6.68841 23.8914 6.83149 23.8914 6.83149L24.3206 8.906C24.3206 8.906 23.1403 10.0863 23.1403 10.2294C23.1403 10.3725 23.2834 11.1236 23.2834 11.1236L23.7126 11.8747L23.4264 12.4828L25.6441 12.7689L25.3579 13.52C25.3579 13.52 22.8542 14.0923 22.2819 14.4142C21.5308 14.9865 20.9584 15.5945 20.5292 16.1668C20.2431 16.4529 19.6351 19.0997 18.9198 20.4231H20.2431L17.7394 25.4306L17.4533 25.2875C17.4533 25.2875 17.5964 24.1072 17.5964 23.9641C17.5964 23.8211 17.4533 23.0699 17.4533 23.0699C17.1671 22.7838 16.5591 22.1757 16.5591 22.1757H16.1299C16.273 22.3188 16.416 22.748 16.416 23.0699C16.416 23.3561 16.273 23.3561 16.1299 23.4991C15.9868 23.6422 15.9868 23.7853 15.9868 23.7853L16.416 24.8225H16.1299C15.9868 24.5364 15.7007 24.3933 15.7007 24.3933V15.7018L16.3087 15.988L16.0226 16.4172L16.9168 16.5602L18.8481 18.3129L19.5635 16.2383L17.811 15.3442L17.5248 14.7361L16.9525 14.8792C16.9525 14.7361 16.8095 14.593 16.8095 14.593C17.0956 14.3069 17.5606 13.6988 17.7037 13.5558C17.7037 13.2696 17.7036 13.1266 17.8467 12.8047C17.8467 12.5185 17.7037 11.9105 17.7037 11.9105C17.5606 11.7674 17.2744 11.4813 17.4175 11.6243C17.5605 12.0535 17.2744 12.6616 17.2744 12.6616C17.2744 12.6616 17.1313 12.6616 16.9883 12.8047C16.8452 12.8047 16.8452 12.9477 16.8452 12.9477L16.7022 13.985L15.9868 13.8419V11.1951H16.416V9.44251H15.9868V8.69139H15.2357V9.44251H14.1984C12.7319 9.15637 10.6574 7.368 10.3713 7.08186C10.1209 10.8732 11.7663 13.8419 11.7663 13.8419ZM23.3907 11.6243C23.3907 11.6243 22.0673 11.4813 21.7811 11.4813C21.495 11.3382 21.03 11.1951 21.03 11.052C21.03 10.909 21.03 10.6228 21.3161 10.7659C21.6023 10.909 21.7454 11.052 22.3534 11.052C22.6395 11.052 22.9614 11.1951 23.1045 11.1951L23.3907 11.6243Z" fill="white"/>
</svg>
