<svg width="220" height="68" viewBox="0 0 220 68" fill="none" xmlns="http://www.w3.org/2000/svg">
    <path d="M188.713 57.0247C188.921 57.1806 189.129 57.2326 189.389 57.2846H189.441C189.805 57.3366 190.117 57.3366 189.337 58.1683C189.285 58.2203 189.233 58.2723 189.181 58.3242C188.245 59.3639 185.49 62.3789 183.827 61.4432C182.527 60.6634 182.527 58.7401 183.463 56.7648C183.931 55.7771 184.294 54.9974 184.658 54.2696C185.542 52.5022 186.218 51.1507 186.738 48.9674C187.621 45.1727 184.814 44.289 182.735 44.289C181.02 44.289 177.173 45.0167 175.561 45.3286C175.354 45.3806 175.198 45.3806 175.094 45.4326C173.846 45.6925 174.47 46.0044 175.405 46.1084C176.237 46.1604 181.799 46.6282 181.695 48.4996C181.591 50.059 175.717 51.9824 171.403 52.5542C171.351 52.5542 171.299 52.5542 171.247 52.5542C169.947 52.7101 169.687 52.7621 169.324 53.4899C168.96 54.1137 168.492 55.2573 168.388 56.5568C168.284 58.2203 169.272 59.104 169.895 59.104C170.675 59.104 170.727 58.2203 170.779 57.4405C170.779 57.1806 170.831 56.9207 170.831 56.7648C171.039 55.6212 171.663 54.6855 172.754 54.6855C173.846 54.6855 174.834 55.985 174.418 57.7005C173.69 60.4555 171.871 62.3789 168.804 62.3789C165.529 62.3269 163.71 60.6115 163.606 58.7401C163.502 57.1286 164.853 54.8414 165.425 53.8537C165.477 53.7498 165.529 53.6458 165.581 53.5419C166.101 52.6062 165.217 52.5542 164.593 52.5542C164.541 52.5542 164.541 52.5542 164.489 52.5542C163.554 52.5022 162.93 52.2423 162.878 51.8784C162.826 51.3586 163.138 50.8908 164.229 50.267C165.373 49.6432 166.153 49.6432 166.984 49.6432C167.192 49.6432 167.4 49.6432 167.66 49.6432C168.44 49.6432 168.752 48.7595 169.064 47.8238C169.116 47.7718 169.116 47.7198 169.116 47.6159C169.428 46.7322 168.492 46.5242 167.296 46.3683C166.049 46.1604 165.477 45.8485 165.061 45.3806C164.541 44.8608 162.722 44.9648 161.318 45.0168H161.214C160.123 45.0687 156.848 45.2767 154.821 45.9524C153.417 46.4203 152.429 47.8238 152.117 48.3436C151.806 48.8634 151.598 49.6432 152.481 49.6952C155.912 49.7991 157.835 48.8634 159.135 48.1877C159.655 47.9278 160.071 47.7198 160.435 47.6159C161.058 47.4599 161.526 47.9797 161.474 48.4476C161.422 48.8634 161.11 49.4352 160.591 49.9551C159.499 50.9427 156.328 51.7225 153.261 52.4502C153.105 52.5022 152.949 52.5022 152.793 52.5542C151.442 52.8661 150.61 53.022 150.87 54.9974C151.234 57.2326 153.053 58.5842 154.353 58.4282C155.86 58.2203 155.704 57.2846 155.6 56.2969C155.6 56.089 155.548 55.8291 155.548 55.6212C155.496 54.1137 156.38 53.3339 157.42 53.2819C158.615 53.23 159.343 54.2696 159.291 55.985C159.239 58.4282 156.744 61.0273 152.117 61.2872C146.191 61.7031 146.295 57.1806 146.347 55.0494C146.347 54.9454 146.347 54.8934 146.347 54.7894C146.347 53.8018 146.191 53.6458 145.724 53.5938C145.412 53.5938 145.204 53.8538 144.892 54.2176C144.736 54.3736 144.58 54.6335 144.32 54.8414L144.268 54.8934C143.54 55.6212 142.865 56.2969 139.746 58.3762C137.198 60.0916 132.832 62.015 130.441 61.8071C129.245 61.7031 128.673 61.0793 128.413 60.5595C128.309 60.3516 128.258 60.1956 128.258 59.9877C128.154 59.6238 128.102 59.3639 127.894 59.3639C127.634 59.3639 127.218 59.8317 126.75 60.4035C126.49 60.7154 126.178 61.0793 125.866 61.3912C124.827 62.3789 123.527 63.5225 122.124 63.2626C120.096 62.8987 119.316 60.8194 118.797 59.4159C118.329 58.0643 118.173 57.0247 118.017 56.2969C117.861 55.4132 117.809 54.9974 117.393 54.9974C116.977 54.9974 116.302 55.985 115.314 57.3885C115.002 57.8044 114.69 58.2203 114.378 58.6881C114.326 58.7921 114.274 58.8441 114.17 58.948C112.715 60.9234 110.635 63.8344 108.4 63.6784C107.309 63.6264 106.529 62.3789 106.113 59.7797C105.957 58.948 105.957 58.1683 105.905 57.5445C105.853 56.3489 105.853 55.6731 105.177 56.2449C105.021 56.4009 104.865 56.5049 104.657 56.7128C104.242 57.0767 103.67 57.6485 102.422 58.6881C100.031 60.7674 98.6795 61.5991 97.0681 60.9234C94.313 59.7797 95.6645 53.5419 96.2363 50.9427C96.2883 50.6308 96.3923 50.319 96.3923 50.163C96.7042 48.4996 96.4443 48.0837 96.0804 47.9797C95.6645 47.9278 94.8848 49.0714 93.6892 50.7868C93.5852 50.8908 93.4813 51.0467 93.4293 51.2027C92.9615 51.8784 92.3377 52.8141 91.7139 53.7498C90.6743 55.3093 89.6346 56.9727 89.0108 57.7005C88.0751 58.8441 87.3473 59.6758 85.424 59.5718C83.5006 59.4678 83.3967 57.0247 83.2927 53.8537C83.2927 53.3339 83.2407 52.8141 83.2407 52.2943C83.2407 52.1383 83.2408 51.9824 83.1888 51.8264C82.9809 48.0837 82.9288 47.0441 82.0971 46.9921C81.3694 46.9401 80.4337 47.5639 78.1465 50.8388C76.2751 53.5419 75.1315 56.141 74.4038 57.7524C74.1958 58.2203 74.0398 58.6361 73.8839 58.896C73.1561 60.3516 72.4284 60.5075 70.9209 60.2996C69.7773 60.1436 68.9456 59.5198 69.1015 57.9084C69.1535 57.3366 69.2575 56.6608 69.3615 55.985C69.6214 54.5295 69.8813 52.8661 69.7773 51.4106C69.6734 50.111 69.3094 49.6432 68.9975 49.2273C68.7896 48.9674 68.5817 48.7595 68.5297 48.3436C68.3218 46.7322 71.4927 44.7049 72.6883 44.7049C73.4161 44.7049 73.9879 45.0167 74.5077 45.3286C74.9756 45.6405 75.4434 45.9004 75.9632 45.9004C76.4831 45.9004 77.4188 45.0687 78.5624 44.0291C80.2778 42.4696 82.409 40.5463 84.1244 40.5982C87.1394 40.5982 87.2434 43.5612 87.3994 46.8361C87.3994 46.9921 87.3993 47.2 87.4513 47.4079C87.4513 47.7198 87.4514 48.0317 87.5033 48.2916C87.5553 49.8511 87.5553 50.9947 88.4909 50.9947C88.8548 50.9947 89.5307 50.163 90.5183 48.8634C91.506 47.6159 92.8575 45.9005 94.6768 44.133C96.9641 41.8458 98.4716 40.5463 99.5632 40.4943C100.655 40.4943 101.954 42.1577 102.006 43.1974C102.058 43.9251 101.227 47.6159 100.707 50.059C100.499 50.9427 100.343 51.6705 100.291 51.9824C99.9271 53.8538 99.7712 56.2449 101.85 55.7251C104.034 55.1533 105.645 53.4899 105.957 52.9181C106.217 52.5022 106.477 51.4626 106.737 50.3709C106.841 50.059 106.893 49.6952 106.997 49.3833C107.361 48.0837 107.984 46.3683 108.66 45.2767C109.544 43.7692 110.324 43.2493 111.883 42.5216C113.598 41.6899 113.962 42.1577 114.17 42.6256C114.274 42.8855 114.014 43.6132 113.546 44.6529C112.975 46.0044 112.143 47.9278 111.571 50.267C110.843 53.3859 110.324 56.6088 111.467 56.9207C112.299 57.1286 113.547 55.1013 114.95 52.8661C115.21 52.4502 115.47 52.0344 115.73 51.6185C116.665 50.111 117.913 47.4079 118.849 45.4846C119.317 44.4449 119.732 43.6132 119.888 43.3013C120.304 42.5736 122.591 39.9745 123.527 40.3383C124.203 40.5982 123.891 41.43 123.475 42.6256C123.215 43.2493 122.955 44.0291 122.747 44.9128C122.02 48.2397 122.02 52.5022 122.383 54.4775V54.5295C122.695 56.037 123.163 58.5322 124.567 58.4802C126.438 58.4282 127.998 56.2449 129.037 54.4256C129.973 52.7101 130.337 52.0344 130.389 51.5145C130.389 51.0987 129.921 50.8388 129.349 50.5269C129.089 50.3709 128.829 50.267 128.621 50.059C127.842 49.4872 127.114 48.3436 127.166 47.304C127.322 45.4846 132.468 42.7295 134.599 41.5859C136.731 40.4423 138.55 39.5066 140.109 39.6106C141.877 39.6626 142.709 41.5859 141.669 42.9894C140.629 44.393 139.122 44.0811 137.822 43.8212C137.718 43.8212 137.614 43.7692 137.458 43.7692C136.159 43.5093 134.443 43.8731 133.768 45.1727C132.988 46.7322 134.339 48.2916 137.458 49.0714C140.11 49.7471 142.657 50.6828 143.384 51.0467C143.904 51.3066 144.164 51.4106 145.62 50.8908C146.919 50.4229 147.283 49.4353 147.803 47.7198C147.959 47.304 148.063 46.8881 148.271 46.3683C148.946 44.5489 149.934 43.5093 150.402 43.2493C151.234 42.7815 151.494 42.7815 154.301 42.8335H154.405C157.264 42.8855 162.93 42.4176 166.621 41.43C170.363 40.4423 172.287 41.0141 173.118 41.6899C173.43 41.9498 173.638 42.1577 173.898 42.2617C174.678 42.6775 175.769 42.4176 181.176 41.378C184.606 40.7542 187.881 40.6502 189.597 42.1577C191.104 43.5093 191.468 45.0168 189.337 50.319C187.829 54.0617 187.621 55.3612 188.037 56.5049C188.349 56.7128 188.505 56.9207 188.713 57.0247ZM131.948 58.2723C133.924 58.3242 136.887 56.7648 138.03 55.4652C139.018 54.3736 137.978 53.8018 137.458 53.5419C136.575 53.074 134.287 52.2423 133.612 52.0344C133.56 52.0344 133.56 52.0344 133.56 51.9824C132.936 51.7745 132.468 51.6185 131.948 52.4502C131.22 53.5419 130.597 55.1013 130.493 55.8811C130.389 56.6608 130.441 58.2203 131.948 58.2723ZM172.962 49.5912C174.47 49.4352 177.641 48.7075 177.693 47.9797C177.745 47.356 174.886 46.7841 173.742 46.7322C173.014 46.7322 172.702 46.8881 172.494 47.148C172.183 47.5119 171.143 48.8634 171.091 49.2793C171.039 49.6952 171.403 49.7471 172.962 49.5912ZM69.7254 40.3383C70.1932 41.222 69.5174 43.1974 67.4381 47.0441C67.1782 47.5119 66.9183 48.0317 66.6584 48.4996C64.683 52.0864 62.4998 56.089 61.98 59.3119C61.6681 61.4432 62.3958 61.911 62.9676 62.067C63.5395 62.2229 64.2672 62.4308 63.0716 64.3542C61.4081 67.0573 59.8487 68.0969 58.7571 67.993C57.5615 67.889 56.4698 66.8493 56.1059 64.7181C55.794 62.7947 56.9376 59.6238 57.7174 57.4925C57.8213 57.2326 57.8733 57.0247 57.9773 56.8168C58.6011 55.1013 58.2372 54.9974 57.9773 54.8934C57.9253 54.8934 57.9253 54.8934 57.8733 54.8414C57.7174 54.7894 57.5614 54.7894 57.3015 54.7894C57.0416 54.7894 56.7298 54.8414 56.3139 54.8414C55.3782 54.7894 54.4945 54.3216 53.7148 53.9057C53.091 53.5938 52.5711 53.2819 52.1033 53.23C51.3755 53.178 51.0636 53.5419 50.4918 54.3736C50.2839 54.6855 49.9721 55.0494 49.6602 55.4652C48.3606 57.0247 46.3852 57.9604 43.1103 59.104C39.5755 60.3515 32.9218 60.7154 30.5826 60.8194C30.4266 60.8194 30.2707 60.8194 30.1668 60.8194C29.1271 60.8714 28.9712 60.9753 28.7632 61.4952V61.5471C28.6073 61.911 28.1914 63.1586 27.4116 63.7824C26.6319 64.4582 25.1765 64.5101 24.2408 63.8344C23.4611 63.2626 23.357 62.3269 23.3051 61.7031C23.3051 61.3912 23.2531 61.1833 23.2011 61.0793C23.0971 60.9753 22.8372 60.7674 22.4733 60.6115C21.5896 60.1436 20.2901 59.4159 20.2381 58.3242C20.2381 57.2326 20.9659 56.3489 21.6417 55.6212C22.0575 55.1533 22.3694 54.7374 22.5254 54.3736C22.8373 53.3339 22.5773 51.3586 21.7456 50.8388C21.3297 50.5789 19.6663 50.6308 18.0028 50.6308C16.5473 50.6308 15.1439 50.6828 14.5721 50.5269C13.6364 50.267 12.1289 49.4352 12.5448 47.7718C12.8047 46.7841 14.3121 46.2643 15.7156 45.7965C17.1191 45.3286 18.5227 44.8608 18.5227 43.9771C18.5227 42.3656 14.676 41.378 12.1808 41.1181C11.1412 41.0141 9.94557 40.9621 8.74998 40.9101C6.56672 40.8062 4.38347 40.7022 3.23986 40.2344C1.57642 39.6106 0.328857 38.363 0.328857 37.2194C0.328857 33.4767 9.06191 33.0608 15.6117 33.3207C22.2654 33.6326 28.0874 34.2564 32.9738 35.348C37.9641 36.4397 42.0187 38.7789 41.9148 41.8458C41.8108 44.4969 39.5756 45.8485 38.432 46.5242C38.276 46.6282 38.172 46.6802 38.068 46.7841C37.4443 47.2 36.8204 47.6159 38.3799 47.9797C39.8874 48.3436 41.9147 49.1234 43.6821 49.7471C44.8258 50.163 45.8654 50.5789 46.6452 50.8388C48.4126 51.3586 49.4522 49.7991 48.4645 47.7198C48.3606 47.4599 48.2046 47.148 48.0486 46.8881C47.2169 45.2247 46.2813 43.3533 47.165 41.43C47.6848 40.2344 49.1923 38.8308 51.7394 38.8308C54.1306 38.8308 54.5465 41.5859 54.8584 43.7692C54.9104 43.9771 54.9103 44.185 54.9623 44.393C55.2222 45.9524 55.742 48.4996 57.8733 48.4996C59.2768 48.4996 61.772 45.0687 63.4874 42.6256L63.5914 42.4696C64.9949 40.4943 65.7227 39.6106 67.0742 39.4027C68.2178 39.2467 69.4135 39.7146 69.7254 40.3383ZM31.6223 39.8705C28.3474 39.8705 27.5156 40.6502 27.2557 41.6379C27.1517 42.0018 26.6839 44.6529 27.9834 45.4326C28.9191 46.0044 30.4786 45.6925 33.1297 44.7049C35.7808 43.7172 36.7166 42.9375 36.6646 41.8458C36.5606 40.8582 34.8972 39.9225 31.6223 39.8705ZM29.7509 54.9454C31.9861 55.3612 36.7685 55.4652 39.9394 54.9454C43.2143 54.3736 41.9668 53.5938 40.3033 52.8661C38.6399 52.1383 34.7932 51.2546 30.4787 51.0987C28.3474 51.0467 28.2434 51.6185 28.2434 52.0863C28.1394 52.8141 28.2434 54.6335 29.7509 54.9454ZM201.657 61.859C202.28 60.4555 202.904 58.5841 202.072 58.2203C201.293 57.9084 200.305 58.1683 199.473 58.5841L199.421 58.6361C198.798 58.948 198.278 59.2079 197.81 60.0916C197.394 60.8714 196.978 62.015 197.238 63.0546C197.394 63.6784 198.174 64.0423 199.161 63.8863C200.201 63.7824 201.033 63.2626 201.657 61.859ZM213.613 39.3507C213.976 39.3507 214.444 39.1427 215.484 38.467C215.9 38.2071 216.316 37.9471 216.68 37.6872C219.383 35.9718 220.526 35.1921 218.343 35.6599C207.115 38.1551 178.784 37.4273 174.366 35.296C172.91 34.5683 171.923 34.3604 171.039 34.4123C169.947 34.4643 168.284 35.8678 168.128 36.5956C167.972 37.2194 169.116 37.9471 172.391 38.519C177.225 39.2987 186.322 39.2987 190.169 39.2987H213.613V39.3507ZM27.6196 0H192.196V3.06696H27.6196V0Z" fill="#0F0D05"/>
</svg>
